<svg width="350" height="291" viewBox="0 0 350 291" fill="none" xmlns="http://www.w3.org/2000/svg">
<g clip-path="url(#clip0_666_1467)">
<path d="M230.251 0H128.547C112.729 0 99.9055 12.8287 99.9055 28.6538V261.161C99.9055 276.986 112.729 289.815 128.547 289.815H230.251C246.069 289.815 258.892 276.986 258.892 261.161V28.6538C258.892 12.8287 246.069 0 230.251 0Z" fill="#3F3D56"/>
<path d="M256.21 28.6557V261.161C256.202 268.047 253.465 274.648 248.598 279.517C243.731 284.385 237.133 287.124 230.25 287.132H128.548C121.665 287.124 115.067 284.385 110.2 279.517C105.334 274.648 102.596 268.047 102.588 261.161V28.6557C102.596 21.7701 105.334 15.1689 110.2 10.3001C115.067 5.43134 121.665 2.69254 128.548 2.68457H141.847V7.28062C141.847 9.36134 142.673 11.3568 144.144 12.8281C145.615 14.2994 147.609 15.126 149.689 15.1261H209.109C211.189 15.126 213.183 14.2994 214.654 12.8281C216.125 11.3568 216.951 9.36134 216.951 7.28062V2.68457H230.25C237.133 2.69254 243.731 5.43134 248.598 10.3001C253.465 15.1689 256.202 21.7701 256.21 28.6557Z" fill="white"/>
<path d="M99.1739 58.7923C98.6567 58.7917 98.1609 58.5859 97.7952 58.22C97.4295 57.8542 97.2237 57.3581 97.2231 56.8407V52.9375C97.2231 52.4199 97.4287 51.9235 97.7945 51.5575C98.1603 51.1915 98.6565 50.9858 99.1739 50.9858C99.6913 50.9858 100.187 51.1915 100.553 51.5575C100.919 51.9235 101.125 52.4199 101.125 52.9375V56.8407C101.124 57.3581 100.918 57.8542 100.553 58.22C100.187 58.5859 99.6911 58.7917 99.1739 58.7923Z" fill="#3F3D56"/>
<path d="M99.1739 78.8069C98.6567 78.8063 98.1609 78.6005 97.7952 78.2346C97.4295 77.8687 97.2237 77.3727 97.2231 76.8553V66.1109C97.2231 65.5933 97.4287 65.0969 97.7945 64.7309C98.1603 64.3649 98.6565 64.1593 99.1739 64.1593C99.6913 64.1593 100.187 64.3649 100.553 64.7309C100.919 65.0969 101.125 65.5933 101.125 66.1109V76.8553C101.124 77.3727 100.918 77.8687 100.553 78.2346C100.187 78.6005 99.6911 78.8063 99.1739 78.8069Z" fill="#3F3D56"/>
<path d="M99.1739 94.8972C98.6567 94.8966 98.1609 94.6908 97.7952 94.3249C97.4295 93.9591 97.2237 93.463 97.2231 92.9456V82.2012C97.2231 81.6836 97.4287 81.1872 97.7945 80.8212C98.1603 80.4552 98.6565 80.2496 99.1739 80.2496C99.6913 80.2496 100.187 80.4552 100.553 80.8212C100.919 81.1872 101.125 81.6836 101.125 82.2012V92.9456C101.124 93.463 100.918 93.9591 100.553 94.3249C100.187 94.6908 99.6911 94.8966 99.1739 94.8972Z" fill="#3F3D56"/>
<path d="M259.136 86.1149C258.619 86.1143 258.123 85.9085 257.757 85.5427C257.392 85.1768 257.186 84.6807 257.185 84.1633V57.9466C257.185 57.429 257.391 56.9326 257.757 56.5666C258.123 56.2006 258.619 55.995 259.136 55.995C259.653 55.995 260.15 56.2006 260.515 56.5666C260.881 56.9326 261.087 57.429 261.087 57.9466V84.1633C261.086 84.6807 260.881 85.1768 260.515 85.5427C260.149 85.9085 259.653 86.1143 259.136 86.1149Z" fill="#3F3D56"/>
<path d="M183.589 8.95099H168.471C168.148 8.95099 167.837 8.82248 167.609 8.59373C167.38 8.36498 167.252 8.05473 167.252 7.73123C167.252 7.40773 167.38 7.09749 167.609 6.86874C167.837 6.63999 168.148 6.51147 168.471 6.51147H183.589C183.913 6.51147 184.223 6.63999 184.451 6.86874C184.68 7.09749 184.809 7.40773 184.809 7.73123C184.809 8.05473 184.68 8.36498 184.451 8.59373C184.223 8.82248 183.913 8.95099 183.589 8.95099Z" fill="white"/>
<path d="M191.392 8.70698C191.931 8.70698 192.368 8.2701 192.368 7.73118C192.368 7.19225 191.931 6.75537 191.392 6.75537C190.854 6.75537 190.417 7.19225 190.417 7.73118C190.417 8.2701 190.854 8.70698 191.392 8.70698Z" fill="white"/>
<path d="M136.036 14.1848H122.869C122.222 14.1848 121.602 13.9278 121.145 13.4703C120.687 13.0128 120.43 12.3923 120.43 11.7453C120.43 11.0983 120.687 10.4778 121.145 10.0203C121.602 9.5628 122.222 9.30579 122.869 9.30579H136.036C136.683 9.30579 137.303 9.5628 137.761 10.0203C138.218 10.4778 138.475 11.0983 138.475 11.7453C138.475 12.3923 138.218 13.0128 137.761 13.4703C137.303 13.9278 136.683 14.1848 136.036 14.1848Z" fill="#E6E6E6"/>
<path d="M222.357 13.9409C223.569 13.9409 224.552 12.9579 224.552 11.7454C224.552 10.5328 223.569 9.5498 222.357 9.5498C221.145 9.5498 220.163 10.5328 220.163 11.7454C220.163 12.9579 221.145 13.9409 222.357 13.9409Z" fill="#E6E6E6"/>
<path d="M229.185 13.9409C230.397 13.9409 231.38 12.9579 231.38 11.7454C231.38 10.5328 230.397 9.5498 229.185 9.5498C227.973 9.5498 226.99 10.5328 226.99 11.7454C226.99 12.9579 227.973 13.9409 229.185 13.9409Z" fill="#E6E6E6"/>
<path d="M236.013 13.9409C237.225 13.9409 238.207 12.9579 238.207 11.7454C238.207 10.5328 237.225 9.5498 236.013 9.5498C234.801 9.5498 233.818 10.5328 233.818 11.7454C233.818 12.9579 234.801 13.9409 236.013 13.9409Z" fill="#E6E6E6"/>
<path d="M220.823 48.2815H138.062C136.459 48.2837 134.922 48.9218 133.788 50.0559C132.655 51.1901 132.017 52.7276 132.015 54.3315V108.152C132.017 109.756 132.655 111.294 133.788 112.428C134.922 113.562 136.459 114.2 138.062 114.202H220.823C222.426 114.201 223.964 113.563 225.098 112.429C226.231 111.294 226.869 109.756 226.87 108.152V54.3315C226.869 52.7274 226.231 51.1893 225.098 50.055C223.964 48.9207 222.426 48.2829 220.823 48.2815Z" fill="#F2F2F2"/>
<path d="M194.913 71.2578C187.434 84.4871 179.181 97.263 170.197 109.519H157.218C165.719 99.1582 174.226 88.7973 182.74 78.4365C185.182 75.4532 187.833 72.3279 191.496 71.1157L194.913 71.2578Z" fill="#3F3D56"/>
<path d="M177.666 69.1363C176.312 70.5474 175.015 72.0153 173.794 73.5402C171.105 76.7791 168.455 80.0465 165.795 83.3043C164.138 85.331 162.481 87.3577 160.844 89.3845C160.324 89.0503 159.83 88.6767 159.367 88.2669C156.751 85.9956 155.129 82.7896 154.847 79.3359C154.566 75.8822 155.648 72.4556 157.861 69.7904C160.075 67.1251 163.244 65.4333 166.689 65.0773C170.134 64.7214 173.582 65.7297 176.293 67.8862C176.782 68.2674 177.24 68.6853 177.666 69.1363Z" fill="#3563DC"/>
<path d="M226.87 67.5976V69.5638L225.993 69.2418L213.639 64.7238C209.616 63.2552 205.602 61.5769 201.447 60.5181C197.832 59.4835 193.993 59.5327 190.406 60.6596C187.208 61.8432 184.282 63.6603 181.803 66.0021C180.706 67.017 179.643 68.0562 178.613 69.1345C178.277 69.4907 177.94 69.8468 177.609 70.203C176.614 71.2861 175.653 72.3937 174.741 73.5403C172.054 76.7799 169.401 80.0489 166.743 83.3032C165.085 85.3329 163.427 87.3577 161.788 89.3825C156.316 96.0814 150.877 102.793 145.47 109.518C144.742 109.51 144.017 109.418 143.31 109.245C148.825 102.39 154.367 95.5528 159.935 88.7336C160.062 88.5774 160.189 88.4213 160.315 88.2652C160.969 87.4504 161.637 86.6307 162.3 85.8159C165.075 82.4152 167.852 79.0178 170.63 75.6236C172.649 73.1548 174.653 70.6763 176.829 68.3343C176.96 68.1831 177.097 68.0367 177.238 67.8855C177.448 67.661 177.658 67.4415 177.872 67.2121C182.598 62.3282 188.494 58.0103 195.556 57.8932C199.711 57.8298 203.725 59.1471 207.587 60.5376C211.747 62.0453 215.892 63.5773 220.048 65.0995L226.87 67.5976Z" fill="#3F3D56"/>
<path d="M228.816 233.031H129.982C128.379 233.03 126.842 232.392 125.708 231.257C124.574 230.123 123.937 228.586 123.935 226.982V213.656C123.937 212.052 124.574 210.514 125.708 209.38C126.842 208.246 128.379 207.608 129.982 207.606H228.816C230.419 207.608 231.957 208.246 233.09 209.38C234.224 210.514 234.861 212.052 234.863 213.656V226.982C234.861 228.586 234.224 230.123 233.09 231.257C231.957 232.392 230.419 233.03 228.816 233.031Z" fill="#F2F2F2"/>
<path d="M228.816 164.725H129.982C128.379 164.723 126.842 164.085 125.708 162.951C124.574 161.817 123.937 160.279 123.935 158.675V145.349C123.937 143.746 124.574 142.208 125.708 141.074C126.842 139.94 128.379 139.302 129.982 139.3H228.816C230.419 139.302 231.957 139.94 233.09 141.074C234.224 142.208 234.861 143.746 234.863 145.349V158.675C234.861 160.279 234.224 161.817 233.09 162.951C231.957 164.085 230.419 164.723 228.816 164.725Z" fill="#F2F2F2"/>
<path d="M228.816 198.878H129.982C128.379 198.876 126.842 198.238 125.708 197.104C124.574 195.97 123.937 194.433 123.935 192.829V179.503C123.937 177.899 124.574 176.361 125.708 175.227C126.842 174.093 128.379 173.455 129.982 173.453H228.816C230.419 173.455 231.957 174.093 233.09 175.227C234.224 176.361 234.861 177.899 234.863 179.503V192.829C234.861 194.433 234.224 195.97 233.09 197.104C231.957 198.238 230.419 198.876 228.816 198.878Z" fill="#F2F2F2"/>
<path d="M191.407 218.038H162.286C161.94 218.038 161.609 217.901 161.365 217.656C161.12 217.412 160.983 217.081 160.983 216.735C160.983 216.389 161.12 216.058 161.365 215.813C161.609 215.569 161.94 215.432 162.286 215.432H191.407C191.752 215.432 192.083 215.569 192.328 215.813C192.572 216.058 192.709 216.389 192.709 216.735C192.709 217.081 192.572 217.412 192.328 217.656C192.083 217.901 191.752 218.038 191.407 218.038Z" fill="white"/>
<path d="M219.415 225.206H161.96C161.615 225.206 161.283 225.069 161.039 224.824C160.795 224.58 160.657 224.249 160.657 223.903C160.657 223.557 160.795 223.226 161.039 222.981C161.283 222.737 161.615 222.6 161.96 222.6H219.415C219.76 222.6 220.092 222.737 220.336 222.981C220.58 223.226 220.717 223.557 220.717 223.903C220.717 224.249 220.58 224.58 220.336 224.824C220.092 225.069 219.76 225.206 219.415 225.206Z" fill="white"/>
<path d="M146.815 229.057C151.639 229.057 155.549 225.145 155.549 220.319C155.549 215.493 151.639 211.581 146.815 211.581C141.991 211.581 138.081 215.493 138.081 220.319C138.081 225.145 141.991 229.057 146.815 229.057Z" fill="white"/>
<path d="M144.869 232.122C143.978 231.705 142.959 231.653 142.03 231.976C141.1 232.299 140.334 232.973 139.893 233.853C139.806 234.033 139.735 234.22 139.679 234.412L126.526 235.198L124.577 242.016L142.478 238.99C143.292 239.16 144.14 239.056 144.889 238.693C145.637 238.331 146.245 237.731 146.617 236.986C146.825 236.561 146.946 236.098 146.975 235.626C147.004 235.153 146.94 234.679 146.786 234.232C146.632 233.784 146.391 233.371 146.078 233.016C145.764 232.661 145.384 232.372 144.958 232.164C144.929 232.15 144.899 232.136 144.869 232.122Z" fill="#FFB6B6"/>
<path d="M115.837 198.496C114.97 198.141 114.037 197.977 113.102 198.015C112.166 198.053 111.25 198.293 110.415 198.717C109.58 199.141 108.846 199.74 108.263 200.473C107.68 201.206 107.262 202.057 107.037 202.966L103.421 217.575L104.101 243.134C104.101 243.134 122.976 246.757 126.144 244.428C129.313 242.099 129.015 240.365 129.313 242.099C129.61 243.833 130.97 244.56 130.989 243.87C131.008 243.181 131.162 243.298 131.951 243.091C132.741 242.883 136.226 241.598 136.226 241.598L136.382 234.311C136.382 234.311 130.621 232.126 129.223 232.778C127.825 233.43 129.52 234.512 127.825 233.43C126.13 232.348 125.945 228.933 125.655 232.011C125.365 235.088 124.516 235.661 123.245 234.293C121.974 232.924 116.086 233.798 116.086 233.798L119.833 205.388C120.021 203.959 119.732 202.508 119.009 201.261C118.286 200.014 117.171 199.042 115.837 198.496Z" fill="#3563DC"/>
<path d="M242.946 274.288L243.144 268.907L222.49 265.58L222.197 273.522L242.946 274.288Z" fill="#FFB6B6"/>
<path d="M239.197 275.909L239.001 267.292L242.683 267.428L248.627 259.462C248.921 259.068 249.332 258.779 249.802 258.636C250.271 258.493 250.774 258.504 251.237 258.668C251.7 258.831 252.098 259.138 252.375 259.544C252.651 259.95 252.79 260.434 252.772 260.924L252.394 271.16L248.687 272.79L252.304 273.613L252.161 277.473L239.197 275.909Z" fill="#2F2E41"/>
<path d="M126.701 286.63L192.121 279.019C192.121 279.019 220.371 280.651 227 276.338L233.989 275.455L234.368 265.183C234.368 265.183 230.094 265.215 227.637 264.069C225.179 262.924 226.887 261.522 224.544 262.9C222.201 264.279 222.449 264.444 220.637 263.811C218.826 263.177 135.755 259.78 135.755 259.78L126.701 286.63Z" fill="#2F2E41"/>
<path d="M212.907 282.172L216.711 278.362L203.831 261.869L198.217 267.493L212.907 282.172Z" fill="#FFB6B6"/>
<path d="M209.057 280.809L214.771 274.359L217.378 276.964L227.151 275.169C227.634 275.08 228.132 275.148 228.574 275.363C229.015 275.578 229.376 275.928 229.605 276.363C229.833 276.797 229.916 277.294 229.843 277.779C229.769 278.264 229.542 278.714 229.195 279.061L221.96 286.308L218.134 284.98L220.226 288.045L217.498 290.777L209.057 280.809Z" fill="#2F2E41"/>
<path d="M100.89 250.786L101.541 265.91C102.306 283.716 121.906 294.492 137.105 285.196C137.385 285.024 137.666 284.847 137.948 284.663C137.948 284.663 143.709 283.115 143.535 280.664C143.36 278.212 144.767 277.019 146.013 277.688C147.258 278.356 163.568 255.2 163.568 255.2C163.568 255.2 197.453 272.11 204.929 276.091L212.816 273.941C212.816 273.941 215.785 275.343 214.715 273.315C213.646 271.286 213.454 272.258 213.126 270.047C212.797 267.837 211.957 265.097 211.447 265.212C210.938 265.327 169.527 236.331 169.527 236.331C169.527 236.331 162.781 229.5 154.412 234.01C154.238 234.673 154.387 234.696 154.387 234.696L126.743 257.231L122.836 249.81L100.89 250.786Z" fill="#2F2E41"/>
<path d="M119.471 195.212L107.618 189.655L104.07 195.832C104.07 195.832 94.5393 209.438 94.4011 219.254C94.2628 229.069 95.9542 231.988 95.9542 231.988C95.9542 231.988 91.8451 235.062 93.8996 236.94C95.9542 238.819 100.503 239.629 97.0092 240.444C93.5157 241.258 94.4011 249.504 98.3026 250.967C102.204 252.431 123.157 252.418 123.157 252.418C122.969 251.779 122.955 251.101 123.117 250.454C123.279 249.808 123.611 249.217 124.079 248.742C125.703 247.113 127.166 248.282 125.703 245.746C124.24 243.21 121.802 244.674 123.752 241.258C125.703 237.843 125.703 236.822 125.703 236.822C125.703 236.822 129.679 229.251 123.689 221.037C123.324 220.536 123.631 220.517 123.631 220.517L118.794 204.301L119.471 195.212Z" fill="#3563DC"/>
<path d="M100.37 171.845C100.47 174.35 98.892 177.898 98.115 180.038C97.2844 182.326 100.885 185.363 103.189 186.028C103.309 185.235 103.704 184.51 104.305 183.98C104.139 184.735 104.125 185.516 104.263 186.277L123.745 190.714C127.25 186.654 130.774 180.816 130.005 173.776C130.189 172.439 129.975 171.077 129.388 169.862C128.801 168.647 127.869 167.632 126.708 166.945L116.859 161.124C112.67 160.17 107.394 159.594 104.368 162.187C103.016 163.391 101.954 164.885 101.261 166.557C100.569 168.23 100.264 170.038 100.37 171.845Z" fill="#2F2E41"/>
<path d="M117.784 188.569C123.979 188.569 129.001 183.545 129.001 177.347C129.001 171.15 123.979 166.125 117.784 166.125C111.589 166.125 106.567 171.15 106.567 177.347C106.567 183.545 111.589 188.569 117.784 188.569Z" fill="#FFB6B6"/>
<path d="M104.643 171.352L104.102 173.731L113.565 175.886C113.573 175.405 113.681 174.931 113.881 174.493C114.081 174.056 114.37 173.664 114.728 173.344C114.524 174.277 114.548 175.245 114.796 176.166C119.9 179.031 124.499 180.046 128.624 179.316C129.183 179.443 129.769 179.343 130.254 179.038C130.74 178.732 131.084 178.247 131.211 177.688C132.87 170.395 128.523 162.941 121.269 161.131C119.505 160.69 117.672 160.605 115.876 160.882C114.079 161.16 112.356 161.793 110.808 162.745C109.259 163.697 107.917 164.948 106.858 166.426C105.799 167.905 105.046 169.579 104.643 171.352Z" fill="#2F2E41"/>
<path d="M110.176 155.658C111.423 155.387 112.744 155.453 113.872 154.607L113.132 156.307C115.184 155.744 117.37 155.963 119.27 156.92C119.835 157.173 120.316 157.581 120.659 158.097C120.844 158.408 120.956 158.757 120.988 159.117C121.019 159.478 120.97 159.841 120.842 160.18C120.721 160.47 120.54 160.732 120.312 160.949C120.084 161.166 119.813 161.333 119.517 161.439C118.991 161.597 118.441 161.655 117.895 161.609C115.592 161.555 113.289 161.502 110.986 161.448C110.108 161.502 109.231 161.332 108.438 160.953C108.016 160.692 107.68 160.314 107.47 159.865C107.26 159.415 107.185 158.915 107.256 158.424C107.476 156.879 108.928 155.929 110.176 155.658Z" fill="#2F2E41"/>
<path d="M171.022 243.608C170.995 243.576 170.965 243.548 170.93 243.524C170.847 243.426 170.745 243.346 170.63 243.288L169.809 242.849L164.36 236.796C164.045 236.632 163.678 236.597 163.337 236.698L163.323 236.703L160.988 237.425L158.981 238.048L156.177 238.918L137.076 244.835L124.52 248.724C124.181 248.831 123.897 249.068 123.73 249.383C123.563 249.697 123.527 250.065 123.628 250.406C123.687 250.594 123.785 250.768 123.915 250.916L124.314 251.361L125.152 252.295L127.094 256.32L127.632 256.922C127.804 257.113 128.027 257.252 128.274 257.321C128.522 257.391 128.784 257.388 129.03 257.314L170.393 245.807C170.608 245.737 170.803 245.616 170.96 245.453C171.117 245.291 171.231 245.092 171.293 244.875C171.355 244.658 171.363 244.428 171.316 244.208C171.269 243.987 171.168 243.781 171.022 243.608Z" fill="#CCCCCC"/>
<path d="M168.566 183.74L167.765 183.87C167.546 183.906 167.35 184.028 167.219 184.208L166.867 184.702L163.683 192.666C163.554 192.848 163.502 193.074 163.539 193.294L163.912 195.563L162.502 236.062C162.538 236.271 162.65 236.46 162.817 236.591L168.998 244.862L169.142 244.977L169.453 245.22C169.613 245.344 169.811 245.407 170.013 245.398L170.538 245.373C170.657 245.367 170.774 245.336 170.88 245.282C170.986 245.228 171.08 245.152 171.155 245.058C171.23 244.966 171.285 244.859 171.315 244.743C171.345 244.628 171.351 244.507 171.33 244.39L169.537 184.433C169.501 184.212 169.379 184.016 169.197 183.885C169.016 183.755 168.791 183.703 168.571 183.739L168.566 183.74Z" fill="#CCCCCC"/>
<path d="M167.225 186.886L164.405 195.48L163.314 229.806L167.704 233.709L167.225 186.886Z" fill="#3563DC"/>
<path d="M145.419 239.246C144.528 238.83 143.509 238.777 142.58 239.101C141.651 239.424 140.884 240.097 140.443 240.977C140.357 241.157 140.285 241.345 140.229 241.537L127.076 242.323L125.127 249.14L143.028 246.114C143.842 246.284 144.69 246.18 145.439 245.818C146.188 245.455 146.795 244.855 147.167 244.111C147.587 243.251 147.647 242.26 147.336 241.356C147.025 240.452 146.368 239.708 145.509 239.289C145.479 239.274 145.449 239.26 145.419 239.246Z" fill="#FFB6B6"/>
<path d="M116.387 205.62C115.521 205.265 114.588 205.102 113.652 205.14C112.716 205.178 111.8 205.417 110.965 205.841C110.13 206.265 109.396 206.864 108.813 207.598C108.23 208.331 107.812 209.181 107.587 210.091L103.971 224.7L104.651 250.258C104.651 250.258 123.526 253.881 126.694 251.552C129.863 249.223 129.565 247.489 129.863 249.223C130.16 250.957 131.52 251.685 131.539 250.995C131.558 250.305 131.712 250.423 132.502 250.215C133.291 250.007 136.776 248.722 136.776 248.722L136.932 241.436C136.932 241.436 131.171 239.25 129.773 239.902C128.375 240.554 130.071 241.636 128.375 240.554C126.68 239.472 126.495 236.058 126.205 239.135C125.915 242.213 125.067 242.785 123.796 241.417C122.525 240.049 116.636 240.923 116.636 240.923L120.383 212.512C120.572 211.083 120.282 209.632 119.559 208.385C118.836 207.138 117.721 206.166 116.387 205.62Z" fill="#3563DC"/>
<path d="M307.822 164.725H208.987C207.384 164.723 205.847 164.085 204.714 162.951C203.58 161.817 202.942 160.279 202.941 158.675V145.349C202.942 143.746 203.58 142.208 204.714 141.074C205.847 139.94 207.384 139.302 208.987 139.3H307.822C309.425 139.302 310.962 139.94 312.096 141.074C313.229 142.208 313.867 143.746 313.869 145.349V158.675C313.867 160.279 313.229 161.817 312.096 162.951C310.962 164.085 309.425 164.723 307.822 164.725Z" fill="#E6E6E6"/>
<path d="M270.412 149.732H241.291C240.946 149.732 240.615 149.594 240.37 149.35C240.126 149.106 239.989 148.774 239.989 148.429C239.989 148.083 240.126 147.751 240.37 147.507C240.615 147.263 240.946 147.125 241.291 147.125H270.412C270.758 147.125 271.089 147.263 271.333 147.507C271.578 147.751 271.715 148.083 271.715 148.429C271.715 148.774 271.578 149.106 271.333 149.35C271.089 149.594 270.758 149.732 270.412 149.732Z" fill="white"/>
<path d="M298.42 156.9H240.966C240.62 156.9 240.289 156.762 240.045 156.518C239.8 156.274 239.663 155.942 239.663 155.596C239.663 155.251 239.8 154.919 240.045 154.675C240.289 154.431 240.62 154.293 240.966 154.293H298.42C298.766 154.293 299.097 154.431 299.342 154.675C299.586 154.919 299.723 155.251 299.723 155.596C299.723 155.942 299.586 156.274 299.342 156.518C299.097 156.762 298.766 156.9 298.42 156.9Z" fill="white"/>
<path d="M225.821 160.751C230.644 160.751 234.555 156.838 234.555 152.012C234.555 147.187 230.644 143.274 225.821 143.274C220.997 143.274 217.086 147.187 217.086 152.012C217.086 156.838 220.997 160.751 225.821 160.751Z" fill="white"/>
<path d="M276.122 198.878H177.288C175.684 198.876 174.147 198.238 173.014 197.104C171.88 195.97 171.243 194.433 171.241 192.829V179.503C171.243 177.899 171.88 176.361 173.014 175.227C174.147 174.093 175.684 173.455 177.288 173.453H276.122C277.725 173.455 279.262 174.093 280.396 175.227C281.53 176.361 282.167 177.899 282.169 179.503V192.829C282.167 194.433 281.53 195.97 280.396 197.104C279.262 198.238 277.725 198.876 276.122 198.878Z" fill="#E6E6E6"/>
<path d="M238.712 183.885H209.592C209.246 183.885 208.915 183.748 208.671 183.503C208.426 183.259 208.289 182.927 208.289 182.582C208.289 182.236 208.426 181.904 208.671 181.66C208.915 181.416 209.246 181.278 209.592 181.278H238.712C239.058 181.278 239.389 181.416 239.634 181.66C239.878 181.904 240.015 182.236 240.015 182.582C240.015 182.927 239.878 183.259 239.634 183.503C239.389 183.748 239.058 183.885 238.712 183.885Z" fill="white"/>
<path d="M266.721 191.053H209.266C208.921 191.053 208.589 190.916 208.345 190.671C208.101 190.427 207.963 190.095 207.963 189.75C207.963 189.404 208.101 189.072 208.345 188.828C208.589 188.584 208.921 188.446 209.266 188.446H266.721C267.066 188.446 267.397 188.584 267.642 188.828C267.886 189.072 268.023 189.404 268.023 189.75C268.023 190.095 267.886 190.427 267.642 190.671C267.397 190.916 267.066 191.053 266.721 191.053Z" fill="white"/>
<path d="M194.121 194.904C198.945 194.904 202.855 190.991 202.855 186.166C202.855 181.34 198.945 177.427 194.121 177.427C189.297 177.427 185.387 181.34 185.387 186.166C185.387 190.991 189.297 194.904 194.121 194.904Z" fill="white"/>
</g>
<defs>
<clipPath id="clip0_666_1467">
<rect width="350" height="290.951" fill="white"/>
</clipPath>
</defs>
</svg>
