<svg width="390" height="269" viewBox="0 0 390 269" fill="none" xmlns="http://www.w3.org/2000/svg">
<g clip-path="url(#clip0_666_1643)">
<path d="M362.674 237.559H256.866C253.016 237.554 249.326 236.022 246.604 233.297C243.882 230.572 242.351 226.878 242.346 223.025V55.9572C242.351 52.1039 243.882 48.4096 246.604 45.6848C249.326 42.9601 253.016 41.4274 256.866 41.4231H362.674C366.523 41.4274 370.214 42.9601 372.936 45.6848C375.658 48.4096 377.189 52.1039 377.193 55.9572V223.025C377.189 226.878 375.658 230.572 372.936 233.297C370.214 236.022 366.523 237.554 362.674 237.559Z" fill="#E6E6E6"/>
<path d="M364.43 50.0957H256.668C255.463 50.0972 254.308 50.577 253.456 51.4299C252.604 52.2829 252.124 53.4393 252.123 54.6455V223.891C252.125 225.097 252.604 226.254 253.456 227.107C254.308 227.959 255.463 228.439 256.668 228.441H364.43C365.635 228.44 366.791 227.96 367.643 227.107C368.495 226.254 368.974 225.098 368.975 223.891V54.6455C368.974 53.4393 368.495 52.2829 367.643 51.4299C366.791 50.577 365.635 50.0972 364.43 50.0957Z" fill="white"/>
<path d="M259.453 41.4236C259.453 41.1289 259.571 40.8463 259.779 40.6378C259.987 40.4294 260.269 40.3121 260.564 40.3118H268.117C268.412 40.3118 268.694 40.4289 268.903 40.6374C269.111 40.846 269.228 41.1288 269.228 41.4236C269.228 41.7185 269.111 42.0014 268.903 42.2099C268.694 42.4184 268.412 42.5355 268.117 42.5355H260.564C260.269 42.5352 259.987 42.4179 259.779 42.2095C259.571 42.001 259.453 41.7184 259.453 41.4236Z" fill="#E6E6E6"/>
<path d="M271.892 41.4236C271.893 41.1289 272.01 40.8463 272.218 40.6378C272.426 40.4294 272.709 40.3121 273.003 40.3118H280.556C280.851 40.3118 281.134 40.4289 281.342 40.6374C281.55 40.846 281.667 41.1288 281.667 41.4236C281.667 41.7185 281.55 42.0014 281.342 42.2099C281.134 42.4184 280.851 42.5355 280.556 42.5355H273.003C272.709 42.5352 272.426 42.4179 272.218 42.2095C272.01 42.001 271.893 41.7184 271.892 41.4236Z" fill="#E6E6E6"/>
<path d="M346.536 41.4236C346.536 41.1289 346.653 40.8463 346.862 40.6378C347.07 40.4294 347.352 40.3121 347.647 40.3118H355.2C355.494 40.3118 355.777 40.4289 355.985 40.6374C356.194 40.846 356.311 41.1288 356.311 41.4236C356.311 41.7185 356.194 42.0014 355.985 42.2099C355.777 42.4184 355.494 42.5355 355.2 42.5355H347.647C347.352 42.5352 347.07 42.4179 346.862 42.2095C346.653 42.001 346.536 41.7184 346.536 41.4236Z" fill="#E6E6E6"/>
<path d="M325.482 224.955C325.482 226.124 325.46 227.29 325.407 228.441H256.668C255.463 228.44 254.308 227.96 253.456 227.107C252.604 226.254 252.125 225.098 252.123 223.892V138.704C272.593 142.014 291.217 152.512 304.659 168.316C318.101 184.12 325.483 204.198 325.482 224.955Z" fill="#F2F2F2"/>
<path d="M323.148 93.5889H297.512C296.345 93.5889 295.4 94.5355 295.4 95.7033V98.3417C295.4 99.5094 296.345 100.456 297.512 100.456H323.148C324.315 100.456 325.26 99.5094 325.26 98.3417V95.7033C325.26 94.5355 324.315 93.5889 323.148 93.5889Z" fill="#3563DC"/>
<path d="M339.441 107.324H281.218C280.051 107.324 279.106 108.27 279.106 109.438V112.077C279.106 113.244 280.051 114.191 281.218 114.191H339.441C340.607 114.191 341.553 113.244 341.553 112.077V109.438C341.553 108.27 340.607 107.324 339.441 107.324Z" fill="#E6E6E6"/>
<path d="M339.441 121.058H281.218C280.051 121.058 279.106 122.005 279.106 123.172V125.811C279.106 126.979 280.051 127.925 281.218 127.925H339.441C340.607 127.925 341.553 126.979 341.553 125.811V123.172C341.553 122.005 340.607 121.058 339.441 121.058Z" fill="#E6E6E6"/>
<path d="M329.47 216.875C329.137 216.89 328.806 216.803 328.524 216.624C328.241 216.445 328.021 216.183 327.892 215.875C327.763 215.566 327.732 215.225 327.803 214.898C327.874 214.571 328.044 214.274 328.289 214.047L328.401 213.603C328.386 213.567 328.371 213.532 328.356 213.496C328.02 212.701 327.457 212.023 326.737 211.547C326.017 211.072 325.172 210.82 324.31 210.823C323.447 210.826 322.605 211.085 321.888 211.565C321.172 212.046 320.613 212.729 320.283 213.526C318.963 216.71 317.282 219.898 316.868 223.264C316.685 224.752 316.762 226.26 317.095 227.722C313.994 220.95 312.383 213.59 312.373 206.14C312.372 204.271 312.476 202.403 312.683 200.545C312.855 199.022 313.093 197.51 313.398 196.008C315.06 187.862 318.629 180.227 323.812 173.73C326.32 172.36 328.348 170.253 329.624 167.694C330.086 166.773 330.412 165.791 330.593 164.777C330.31 164.815 330.023 164.838 329.74 164.856C329.652 164.861 329.559 164.866 329.471 164.87L329.438 164.872C329.127 164.886 328.818 164.81 328.549 164.652C328.281 164.495 328.063 164.263 327.923 163.985C327.783 163.706 327.726 163.394 327.76 163.084C327.793 162.774 327.915 162.48 328.111 162.238C328.234 162.088 328.356 161.938 328.478 161.787C328.664 161.555 328.854 161.328 329.039 161.095C329.061 161.073 329.081 161.05 329.1 161.026C329.313 160.761 329.526 160.501 329.74 160.236C329.35 159.631 328.826 159.124 328.209 158.755C326.071 157.501 323.12 158.37 321.576 160.306C320.027 162.242 319.734 164.959 320.272 167.378C320.801 169.436 321.677 171.389 322.861 173.154C322.745 173.303 322.624 173.446 322.508 173.595C320.388 176.324 318.541 179.254 316.992 182.343C317.368 178.882 316.919 175.381 315.68 172.128C314.425 169.096 312.071 166.543 309.999 163.922C307.51 160.773 302.405 162.147 301.967 166.138C301.963 166.177 301.958 166.215 301.954 166.254C302.262 166.428 302.563 166.612 302.858 166.808C303.229 167.055 303.516 167.409 303.682 167.823C303.848 168.237 303.885 168.691 303.789 169.126C303.692 169.562 303.467 169.958 303.142 170.262C302.817 170.567 302.407 170.767 301.967 170.835L301.922 170.842C302.032 171.952 302.225 173.053 302.502 174.134C303.302 177.152 304.717 179.972 306.658 182.417C308.598 184.862 311.022 186.879 313.778 188.342C313.959 188.435 314.135 188.528 314.316 188.616C312.76 193.031 311.784 197.629 311.413 202.295C311.202 205.048 311.215 207.814 311.45 210.565L311.436 210.467C310.842 207.408 309.212 204.648 306.82 202.653C303.268 199.732 298.25 198.657 294.418 196.309C294.011 196.047 293.538 195.908 293.054 195.906C292.57 195.905 292.096 196.043 291.687 196.302C291.279 196.562 290.953 196.933 290.748 197.372C290.544 197.811 290.469 198.3 290.532 198.78C290.537 198.814 290.543 198.848 290.548 198.882C291.119 199.115 291.675 199.384 292.213 199.686C292.521 199.86 292.822 200.044 293.117 200.239C293.487 200.487 293.774 200.841 293.94 201.255C294.106 201.668 294.144 202.123 294.047 202.558C293.951 202.993 293.726 203.389 293.4 203.694C293.075 203.999 292.666 204.198 292.226 204.266L292.181 204.273C292.148 204.278 292.12 204.283 292.088 204.287C293.064 206.62 294.434 208.767 296.137 210.635C298.242 212.895 300.786 214.702 303.613 215.943C306.439 217.185 309.49 217.835 312.577 217.855H312.581C313.419 221.5 314.634 225.048 316.204 228.442H329.146C329.192 228.298 329.234 228.149 329.276 228.005C328.078 228.08 326.875 228.009 325.695 227.792C326.655 226.612 327.615 225.423 328.575 224.244C328.597 224.222 328.617 224.199 328.636 224.174C329.123 223.571 329.615 222.972 330.102 222.368L330.102 222.367C330.128 220.517 329.915 218.671 329.47 216.875ZM314.65 187.692L314.657 187.683L314.65 187.701V187.692ZM311.784 213.56L311.672 213.309C311.677 213.128 311.677 212.947 311.672 212.761C311.672 212.71 311.663 212.659 311.663 212.608C311.705 212.928 311.742 213.249 311.788 213.569L311.784 213.56Z" fill="#CCCCCC"/>
<path d="M359.043 65.0379H262.053C261.844 65.0333 261.644 64.9466 261.497 64.7964C261.35 64.6462 261.268 64.4445 261.268 64.2344C261.268 64.0243 261.35 63.8226 261.497 63.6724C261.644 63.5222 261.844 63.4355 262.053 63.4309H359.043C359.253 63.4355 359.452 63.5222 359.599 63.6724C359.746 63.8226 359.828 64.0243 359.828 64.2344C359.828 64.4445 359.746 64.6462 359.599 64.7964C359.452 64.9466 359.253 65.0333 359.043 65.0379Z" fill="#CACACA"/>
<path d="M267.228 61.1077C268.531 61.1077 269.587 60.0268 269.587 58.6935C269.587 57.3602 268.531 56.2793 267.228 56.2793C265.925 56.2793 264.869 57.3602 264.869 58.6935C264.869 60.0268 265.925 61.1077 267.228 61.1077Z" fill="#3F3D56"/>
<path d="M275.379 61.1077C276.682 61.1077 277.738 60.0268 277.738 58.6935C277.738 57.3602 276.682 56.2793 275.379 56.2793C274.076 56.2793 273.02 57.3602 273.02 58.6935C273.02 60.0268 274.076 61.1077 275.379 61.1077Z" fill="#3F3D56"/>
<path d="M283.529 61.1077C284.832 61.1077 285.889 60.0268 285.889 58.6935C285.889 57.3602 284.832 56.2793 283.529 56.2793C282.226 56.2793 281.17 57.3602 281.17 58.6935C281.17 60.0268 282.226 61.1077 283.529 61.1077Z" fill="#3F3D56"/>
<path d="M355.252 57.2117H349.972C349.868 57.2137 349.768 57.2568 349.695 57.3316C349.621 57.4065 349.58 57.507 349.58 57.6118C349.58 57.7166 349.621 57.8172 349.695 57.892C349.768 57.9668 349.868 58.0099 349.972 58.012H355.252C355.356 58.0099 355.456 57.9668 355.529 57.892C355.603 57.8172 355.644 57.7166 355.644 57.6118C355.644 57.507 355.603 57.4065 355.529 57.3316C355.456 57.2568 355.356 57.2137 355.252 57.2117Z" fill="#3F3D56"/>
<path d="M355.252 58.7141H349.972C349.868 58.7162 349.768 58.7592 349.695 58.8341C349.621 58.9089 349.58 59.0095 349.58 59.1143C349.58 59.219 349.621 59.3197 349.695 59.3945C349.768 59.4693 349.868 59.5124 349.972 59.5144H355.252C355.356 59.5124 355.456 59.4693 355.529 59.3945C355.603 59.3197 355.644 59.219 355.644 59.1143C355.644 59.0095 355.603 58.9089 355.529 58.8341C355.456 58.7592 355.356 58.7162 355.252 58.7141Z" fill="#3F3D56"/>
<path d="M355.252 60.2141H349.972C349.868 60.2162 349.768 60.2592 349.695 60.3341C349.621 60.4089 349.58 60.5095 349.58 60.6143C349.58 60.719 349.621 60.8197 349.695 60.8945C349.768 60.9693 349.868 61.0124 349.972 61.0144H355.252C355.356 61.0124 355.456 60.9693 355.529 60.8945C355.603 60.8197 355.644 60.719 355.644 60.6143C355.644 60.5095 355.603 60.4089 355.529 60.3341C355.456 60.2592 355.356 60.2162 355.252 60.2141Z" fill="#3F3D56"/>
<path d="M197.888 138.768H141.656C140.861 138.769 140.098 139.086 139.536 139.65C138.975 140.214 138.659 140.978 138.66 141.774V230.693H200.891V141.774C200.892 141.379 200.814 140.988 200.663 140.623C200.512 140.258 200.291 139.927 200.012 139.648C199.733 139.368 199.402 139.147 199.037 138.996C198.673 138.845 198.282 138.767 197.888 138.768ZM169.961 189.29C168.203 189.282 166.518 188.579 165.275 187.334C164.031 186.089 163.329 184.404 163.321 182.643V172.387C163.323 170.626 164.023 168.936 165.268 167.691C166.513 166.446 168.201 165.746 169.961 165.746C171.721 165.746 173.409 166.446 174.654 167.691C175.899 168.936 176.6 170.626 176.601 172.387V182.643C176.593 184.404 175.891 186.09 174.647 187.334C173.404 188.579 171.72 189.282 169.961 189.29Z" fill="#E6E6E6"/>
<path d="M138.467 227.848V236.427C138.468 236.872 138.645 237.298 138.959 237.612C139.273 237.927 139.698 238.103 140.143 238.104H199.409C199.852 238.102 200.277 237.925 200.591 237.611C200.905 237.297 201.082 236.871 201.084 236.427V227.848L138.467 227.848Z" fill="#CCCCCC"/>
<path d="M291.003 0H50.6337C48.5686 0.0032887 46.589 0.825941 45.1287 2.28768C43.6684 3.74941 42.8466 5.73101 42.8433 7.79822V170.163C42.8452 172.23 43.6667 174.213 45.1272 175.675C46.5878 177.137 48.5682 177.959 50.6337 177.961H291.003C293.068 177.959 295.049 177.137 296.509 175.675C297.97 174.213 298.791 172.23 298.793 170.163V7.79822C298.79 5.73101 297.968 3.74941 296.508 2.28768C295.048 0.82594 293.068 0.00328742 291.003 0Z" fill="#E6E6E6"/>
<path d="M288.996 5.63232H52.642C51.5363 5.63473 50.4767 6.07608 49.6956 6.85956C48.9145 7.64303 48.4758 8.70465 48.4757 9.8115V168.151C48.4776 169.257 48.9172 170.317 49.6981 171.098C50.479 171.88 51.5376 172.32 52.642 172.322H288.996C290.101 172.32 291.159 171.88 291.94 171.098C292.721 170.317 293.161 169.257 293.163 168.151V9.8115C293.163 8.70465 292.724 7.64303 291.943 6.85956C291.162 6.07608 290.102 5.63473 288.996 5.63232Z" fill="white"/>
<path d="M293.161 9.8115V168.151C293.159 169.257 292.72 170.317 291.939 171.098C291.158 171.88 290.099 172.32 288.995 172.322H205.651C196.431 163.763 188.867 153.575 183.338 142.27C182.975 141.542 182.628 140.805 182.299 140.059C177.261 129.117 174.211 117.364 173.291 105.351C173.23 104.614 173.178 103.877 173.143 103.132C173.031 101.224 172.979 99.2906 172.979 97.3484C172.962 84.4315 175.399 71.6291 180.159 59.6232C180.445 58.8776 180.748 58.1406 181.06 57.4036C190.641 34.8715 207.952 16.5097 229.87 5.63232H288.995C290.101 5.63473 291.16 6.07608 291.941 6.85956C292.722 7.64303 293.161 8.70465 293.161 9.8115Z" fill="#3563DC"/>
<path d="M277.115 27.4482H55.9589C55.7289 27.4433 55.51 27.3484 55.3491 27.1838C55.1881 27.0193 55.098 26.7981 55.098 26.5679C55.098 26.3376 55.1881 26.1164 55.3491 25.9519C55.51 25.7873 55.7289 25.6924 55.9589 25.6875H277.115C277.345 25.6924 277.564 25.7873 277.725 25.9519C277.886 26.1164 277.976 26.3376 277.976 26.5679C277.976 26.7981 277.886 27.0193 277.725 27.1838C277.564 27.3484 277.345 27.4433 277.115 27.4482Z" fill="#CACACA"/>
<path d="M71.0135 21.1926C73.8601 21.1926 76.1677 18.8312 76.1677 15.9183C76.1677 13.0054 73.8601 10.644 71.0135 10.644C68.167 10.644 65.8594 13.0054 65.8594 15.9183C65.8594 18.8312 68.167 21.1926 71.0135 21.1926Z" fill="#3F3D56"/>
<path d="M88.8186 21.1926C91.6651 21.1926 93.9727 18.8312 93.9727 15.9183C93.9727 13.0054 91.6651 10.644 88.8186 10.644C85.972 10.644 83.6644 13.0054 83.6644 15.9183C83.6644 18.8312 85.972 21.1926 88.8186 21.1926Z" fill="#3F3D56"/>
<path d="M106.624 21.1926C109.47 21.1926 111.778 18.8312 111.778 15.9183C111.778 13.0054 109.47 10.644 106.624 10.644C103.777 10.644 101.469 13.0054 101.469 15.9183C101.469 18.8312 103.777 21.1926 106.624 21.1926Z" fill="#3F3D56"/>
<path d="M266.395 11.9512H253.747C253.497 11.9561 253.258 12.0593 253.082 12.2386C252.907 12.4178 252.808 12.6588 252.808 12.9098C252.808 13.1608 252.907 13.4018 253.082 13.5811C253.258 13.7603 253.497 13.8635 253.747 13.8684H266.395C266.646 13.8635 266.885 13.7603 267.06 13.5811C267.236 13.4018 267.334 13.1608 267.334 12.9098C267.334 12.6588 267.236 12.4178 267.06 12.2386C266.885 12.0593 266.646 11.9561 266.395 11.9512Z" fill="#3F3D56"/>
<path d="M266.395 15.5498H253.747C253.497 15.5548 253.258 15.658 253.082 15.8372C252.907 16.0164 252.808 16.2574 252.808 16.5084C252.808 16.7594 252.907 17.0004 253.082 17.1797C253.258 17.3589 253.497 17.4621 253.747 17.4671H266.395C266.646 17.4621 266.885 17.3589 267.06 17.1797C267.236 17.0004 267.334 16.7594 267.334 16.5084C267.334 16.2574 267.236 16.0164 267.06 15.8372C266.885 15.658 266.646 15.5548 266.395 15.5498Z" fill="#3F3D56"/>
<path d="M266.395 19.1433H253.747C253.497 19.1483 253.258 19.2515 253.082 19.4307C252.907 19.6099 252.808 19.8509 252.808 20.1019C252.808 20.3529 252.907 20.594 253.082 20.7732C253.258 20.9524 253.497 21.0556 253.747 21.0606H266.395C266.646 21.0556 266.885 20.9524 267.06 20.7732C267.236 20.594 267.334 20.3529 267.334 20.1019C267.334 19.8509 267.236 19.6099 267.06 19.4307C266.885 19.2515 266.646 19.1483 266.395 19.1433Z" fill="#3F3D56"/>
<path d="M123.673 78.8796H92.7468C91.5802 78.8796 90.6345 79.8263 90.6345 80.994V84.2894C90.6345 85.4572 91.5802 86.4038 92.7468 86.4038H123.673C124.84 86.4038 125.786 85.4572 125.786 84.2894V80.994C125.786 79.8263 124.84 78.8796 123.673 78.8796Z" fill="#3563DC"/>
<path d="M141.527 93.928H74.8957C73.7291 93.928 72.7834 94.8746 72.7834 96.0424V99.3378C72.7834 100.506 73.7291 101.452 74.8957 101.452H141.527C142.693 101.452 143.639 100.506 143.639 99.3378V96.0424C143.639 94.8746 142.693 93.928 141.527 93.928Z" fill="#E6E6E6"/>
<path d="M141.527 108.976H74.8957C73.7291 108.976 72.7834 109.923 72.7834 111.091V114.386C72.7834 115.554 73.7291 116.501 74.8957 116.501H141.527C142.693 116.501 143.639 115.554 143.639 114.386V111.091C143.639 109.923 142.693 108.976 141.527 108.976Z" fill="#E6E6E6"/>
<path d="M78.5668 163.244C78.572 166.343 78.0204 169.418 76.9384 172.322H52.642C51.5376 172.32 50.479 171.88 49.6981 171.098C48.9172 170.317 48.4776 169.257 48.4757 168.152V137.562C49.8332 137.342 51.2062 137.232 52.5814 137.233C55.9939 137.232 59.373 137.905 62.5258 139.212C65.6786 140.519 68.5433 142.435 70.9563 144.851C73.3693 147.266 75.2834 150.134 76.5892 153.29C77.895 156.446 78.567 159.828 78.5668 163.244Z" fill="#3563DC"/>
<path opacity="0.2" d="M293.378 59.6231V57.4034H256.21V31.6782H254.001V57.4035H211.402V31.6782H209.194V57.4035H181.06C180.748 58.1404 180.445 58.8775 180.159 59.6231H209.194V103.131H173.143C173.178 103.877 173.23 104.614 173.291 105.351H209.194V140.059H182.299C182.628 140.805 182.974 141.542 183.338 142.27H209.194V171.446H211.402V142.27H254.001V171.446H256.21V142.27H293.378V140.059H256.21C256.21 135.501 257.107 130.988 258.849 126.777C260.592 122.566 263.146 118.74 266.366 115.517C269.585 112.294 273.408 109.737 277.614 107.993C281.821 106.249 286.33 105.351 290.883 105.351H293.378V103.131H256.21V59.6231H293.378ZM254.001 140.059H211.402V105.351H254.001V140.059ZM254.001 103.131H211.402V102.264C211.402 90.9552 215.891 80.1092 223.879 72.1124C231.868 64.1156 242.703 59.6231 254.001 59.6231L254.001 103.131Z" fill="black"/>
<path d="M263.453 155.895C262.979 155.917 262.509 155.792 262.108 155.538C261.707 155.284 261.394 154.912 261.211 154.474C261.028 154.036 260.984 153.552 261.085 153.087C261.186 152.623 261.427 152.201 261.775 151.879C261.834 151.647 261.876 151.48 261.934 151.248C261.913 151.197 261.892 151.147 261.871 151.096C259.74 146.01 252.518 146.045 250.405 151.139C248.53 155.66 246.142 160.189 245.554 164.969C245.295 167.082 245.404 169.224 245.877 171.3C241.472 161.682 239.185 151.229 239.17 140.649C239.17 137.994 239.317 135.341 239.612 132.702C239.856 130.539 240.194 128.392 240.626 126.26C242.987 114.69 248.056 103.847 255.416 94.6193C258.979 92.6736 261.86 89.6816 263.671 86.0465C264.327 84.7397 264.791 83.3448 265.048 81.9051C264.646 81.9579 264.237 81.9908 263.836 82.0172C263.71 82.0238 263.579 82.0304 263.453 82.037L263.406 82.0391C262.965 82.0589 262.527 81.9506 262.145 81.727C261.763 81.5035 261.455 81.1743 261.256 80.7792C261.057 80.384 260.976 79.9397 261.023 79.4997C261.071 79.0597 261.244 78.6428 261.523 78.2992C261.696 78.0854 261.87 77.8718 262.044 77.6583C262.307 77.3285 262.577 77.0054 262.841 76.6757C262.871 76.6444 262.9 76.6113 262.926 76.5767C263.229 76.2008 263.532 75.8316 263.836 75.4557C263.282 74.5963 262.538 73.8763 261.661 73.3521C258.624 71.5716 254.435 72.8047 252.241 75.5546C250.04 78.3045 249.625 82.1623 250.39 85.598C251.042 88.5391 252.465 91.2363 254.066 93.8015C253.901 94.0125 253.73 94.217 253.565 94.428C250.554 98.3032 247.93 102.464 245.73 106.852C246.265 101.937 245.627 96.9644 243.868 92.3442C242.084 88.0383 238.742 84.4119 235.799 80.6895C232.264 76.2183 225.015 78.1697 224.392 83.8376C224.386 83.8924 224.38 83.9473 224.374 84.0021C224.811 84.249 225.239 84.511 225.658 84.7882C226.184 85.14 226.591 85.6426 226.827 86.2302C227.063 86.8178 227.116 87.463 226.979 88.0813C226.842 88.6995 226.522 89.2619 226.06 89.6949C225.599 90.1278 225.017 90.4111 224.392 90.5076L224.328 90.5175C224.484 92.0946 224.759 93.6576 225.151 95.193C226.289 99.4792 228.298 103.484 231.054 106.956C233.81 110.429 237.253 113.294 241.167 115.372C241.424 115.504 241.674 115.636 241.931 115.761C239.721 122.031 238.334 128.561 237.807 135.188C237.508 139.098 237.526 143.026 237.859 146.933L237.84 146.795C236.996 142.45 234.681 138.53 231.285 135.696C226.24 131.548 219.114 130.021 213.672 126.687C211.052 125.082 207.695 127.156 208.152 130.196C208.16 130.244 208.167 130.293 208.175 130.342C208.986 130.672 209.776 131.053 210.54 131.482C210.977 131.729 211.405 131.991 211.823 132.268C212.349 132.62 212.757 133.123 212.993 133.71C213.228 134.298 213.281 134.943 213.144 135.561C213.008 136.18 212.687 136.742 212.226 137.175C211.764 137.608 211.183 137.891 210.557 137.988L210.493 137.998C210.447 138.004 210.408 138.011 210.362 138.018C211.748 141.33 213.693 144.38 216.113 147.032C219.102 150.243 222.715 152.808 226.729 154.572C230.744 156.335 235.076 157.259 239.46 157.287H239.467C240.657 162.463 242.381 167.502 244.612 172.322H262.992C263.058 172.118 263.117 171.906 263.177 171.702C261.475 171.809 259.767 171.707 258.091 171.399C259.455 169.724 260.818 168.035 262.182 166.361C262.212 166.329 262.241 166.296 262.268 166.262C262.959 165.404 263.658 164.554 264.349 163.696L264.35 163.695C264.387 161.068 264.085 158.446 263.453 155.895L263.453 155.895ZM242.405 114.449L242.415 114.436L242.405 114.462V114.449ZM238.334 151.187L238.176 150.831C238.182 150.573 238.182 150.316 238.176 150.052C238.176 149.98 238.163 149.907 238.163 149.835C238.222 150.29 238.275 150.745 238.34 151.2L238.334 151.187Z" fill="#2F2E41"/>
<path d="M99.7835 112.864V88.1369C99.7835 84.3413 98.2772 80.7011 95.596 78.0172C92.9147 75.3332 89.2782 73.8254 85.4864 73.8254H33.1507C29.3588 73.8254 25.7223 75.3332 23.041 78.0172C20.3598 80.7011 18.8535 84.3413 18.8535 88.1369V223.793C18.8535 227.588 20.3598 231.228 23.041 233.912C25.7223 236.596 29.3588 238.104 33.1506 238.104H85.4864C87.3639 238.104 89.2231 237.734 90.9577 237.015C92.6923 236.295 94.2684 235.241 95.596 233.912C96.9236 232.583 97.9767 231.006 98.6952 229.269C99.4137 227.533 99.7835 225.672 99.7835 223.793V130.465C100.023 130.465 100.252 130.37 100.421 130.201C100.59 130.032 100.685 129.802 100.685 129.563V113.767C100.685 113.527 100.59 113.298 100.421 113.129C100.252 112.959 100.023 112.864 99.7835 112.864Z" fill="#E6E6E6"/>
<path d="M96.7413 88.2353V223.695C96.7416 226.509 95.6328 229.209 93.6557 231.209C91.6787 233.209 88.993 234.347 86.1823 234.377C86.1435 234.381 86.1045 234.382 86.0654 234.382H33.475C30.6437 234.381 27.9284 233.255 25.9264 231.251C23.9243 229.247 22.7995 226.529 22.7992 223.695V88.2353C22.7995 85.4012 23.9243 82.6832 25.9264 80.6791C27.9284 78.6751 30.6437 77.5491 33.475 77.5488H39.8571C39.5434 78.3201 39.4238 79.1567 39.5089 79.9851C39.5941 80.8134 39.8813 81.6082 40.3453 82.2993C40.8093 82.9905 41.4359 83.5569 42.1699 83.9488C42.904 84.3406 43.723 84.5459 44.5549 84.5465H74.5377C75.3689 84.5442 76.1868 84.3378 76.9197 83.9453C77.6526 83.5529 78.2781 82.9865 78.7414 82.2957C79.2047 81.6049 79.4915 80.8109 79.5768 79.9833C79.6621 79.1557 79.5432 78.3197 79.2306 77.5488H86.0654C88.8968 77.5491 91.6121 78.6751 93.6141 80.6791C95.6162 82.6832 96.741 85.4012 96.7413 88.2353Z" fill="white"/>
<path d="M86.3137 230.201C86.3137 231.604 86.2699 232.996 86.1823 234.377C86.1435 234.381 86.1045 234.383 86.0655 234.382H33.475C30.6437 234.382 27.9284 233.256 25.9264 231.252C23.9243 229.248 22.7995 226.53 22.7992 223.695V163.329C39.934 164.193 56.0817 171.616 67.9031 184.063C79.7245 196.509 86.3157 213.027 86.3137 230.201Z" fill="#F2F2F2"/>
<path d="M19.1429 126.698C18.8203 126.697 18.5109 126.569 18.2828 126.34C18.0546 126.112 17.9263 125.802 17.9259 125.479V117.195C17.9259 116.872 18.0541 116.562 18.2824 116.334C18.5106 116.105 18.8202 115.977 19.1429 115.977C19.4657 115.977 19.7753 116.105 20.0035 116.334C20.2317 116.562 20.36 116.872 20.36 117.195V125.479C20.3596 125.802 20.2312 126.112 20.0031 126.34C19.7749 126.569 19.4656 126.697 19.1429 126.698Z" fill="#E6E6E6"/>
<path d="M66.2278 120.083H53.3132C52.1466 120.083 51.2009 121.03 51.2009 122.198V125.493C51.2009 126.661 52.1466 127.607 53.3132 127.607H66.2278C67.3944 127.607 68.3401 126.661 68.3401 125.493V122.198C68.3401 121.03 67.3944 120.083 66.2278 120.083Z" fill="#3563DC"/>
<path d="M84.0797 135.132H35.4609C34.2943 135.132 33.3486 136.078 33.3486 137.246V140.541C33.3486 141.709 34.2943 142.656 35.4609 142.656H84.0797C85.2463 142.656 86.192 141.709 86.192 140.541V137.246C86.192 136.078 85.2463 135.132 84.0797 135.132Z" fill="#E6E6E6"/>
<path d="M84.0797 150.18H35.4609C34.2943 150.18 33.3486 151.127 33.3486 152.294V155.59C33.3486 156.757 34.2943 157.704 35.4609 157.704H84.0797C85.2463 157.704 86.192 156.757 86.192 155.59V152.294C86.192 151.127 85.2463 150.18 84.0797 150.18Z" fill="#E6E6E6"/>
<path d="M72.3816 226.673C72.1591 226.683 71.9389 226.625 71.7507 226.506C71.5625 226.386 71.4155 226.212 71.3296 226.006C71.2437 225.801 71.223 225.574 71.2704 225.356C71.3178 225.138 71.4309 224.94 71.5944 224.789L71.6688 224.492C71.659 224.469 71.6492 224.445 71.6393 224.421C71.4151 223.891 71.0396 223.44 70.5597 223.123C70.0799 222.806 69.5172 222.638 68.9423 222.64C68.3674 222.642 67.806 222.814 67.3285 223.135C66.8511 223.455 66.4789 223.91 66.2587 224.441C65.3787 226.563 64.2582 228.688 63.9824 230.931C63.8609 231.923 63.9121 232.928 64.1338 233.902C62.0669 229.389 60.9936 224.483 60.9867 219.519C60.9863 218.273 61.0554 217.028 61.1938 215.79C61.3082 214.775 61.4669 213.767 61.6699 212.766C62.7778 207.337 65.1563 202.249 68.6103 197.919C70.282 197.005 71.6339 195.601 72.4839 193.896C72.7918 193.282 73.0095 192.628 73.13 191.952C72.9415 191.977 72.7498 191.992 72.5612 192.005C72.5025 192.008 72.4406 192.011 72.3819 192.014L72.3597 192.015C72.1525 192.024 71.947 191.974 71.7679 191.869C71.5889 191.764 71.4439 191.609 71.3505 191.424C71.2571 191.238 71.2193 191.03 71.2415 190.823C71.2638 190.617 71.3452 190.421 71.4759 190.26C71.5573 190.16 71.6388 190.059 71.7203 189.959C71.844 189.805 71.9707 189.653 72.0944 189.498C72.1087 189.484 72.1221 189.468 72.1346 189.452C72.2768 189.275 72.419 189.102 72.5612 188.926C72.3016 188.522 71.9525 188.185 71.541 187.939C70.1159 187.103 68.1497 187.682 67.1202 188.972C66.0877 190.263 65.8929 192.073 66.2515 193.685C66.6041 195.057 67.1875 196.359 67.9765 197.535C67.8992 197.634 67.8189 197.73 67.7416 197.829C66.3288 199.647 65.0974 201.6 64.0651 203.659C64.3162 201.352 64.0165 199.019 63.1909 196.851C62.3542 194.83 60.7858 193.129 59.4047 191.382C59.0394 190.912 58.5433 190.562 57.9792 190.375C57.415 190.188 56.8081 190.173 56.2352 190.331C55.6623 190.489 55.149 190.813 54.7604 191.263C54.3717 191.713 54.125 192.269 54.0515 192.859C54.0487 192.885 54.046 192.911 54.0433 192.936C54.2484 193.052 54.4492 193.175 54.6457 193.305C54.8925 193.47 55.0838 193.706 55.1944 193.982C55.305 194.258 55.3299 194.56 55.2657 194.85C55.2015 195.141 55.0512 195.404 54.8346 195.608C54.618 195.811 54.3451 195.944 54.0517 195.989L54.0216 195.994C54.0947 196.734 54.2239 197.467 54.4081 198.188C54.9417 200.199 55.8847 202.078 57.1779 203.708C58.4712 205.337 60.0868 206.682 61.9234 207.657C62.044 207.719 62.1615 207.781 62.2821 207.84C61.2449 210.782 60.5944 213.846 60.3468 216.956C60.2066 218.791 60.2149 220.634 60.3715 222.468L60.3622 222.403C59.9665 220.364 58.88 218.524 57.2862 217.195C54.9191 215.248 51.5747 214.531 49.0209 212.967C48.7495 212.792 48.4339 212.699 48.1114 212.698C47.7889 212.698 47.4729 212.789 47.2006 212.962C46.9284 213.135 46.7113 213.383 46.5749 213.675C46.4385 213.968 46.3885 214.293 46.4309 214.613L46.4414 214.682C46.822 214.837 47.1927 215.016 47.5512 215.217C47.7563 215.333 47.9571 215.456 48.1536 215.586C48.4004 215.751 48.5917 215.987 48.7023 216.263C48.813 216.538 48.8378 216.841 48.7736 217.131C48.7094 217.421 48.5591 217.685 48.3425 217.889C48.1259 218.092 47.853 218.225 47.5596 218.27L47.5295 218.275C47.5079 218.278 47.4893 218.281 47.4677 218.284C48.1182 219.839 49.0311 221.27 50.1665 222.514C51.5692 224.021 53.2645 225.225 55.1485 226.052C57.0324 226.88 59.0654 227.313 61.1227 227.326H61.1258C61.6843 229.755 62.4935 232.12 63.5403 234.382H72.1655C72.1964 234.286 72.2242 234.187 72.252 234.091C71.4537 234.141 70.6522 234.093 69.8654 233.949C70.5053 233.163 71.1453 232.37 71.7852 231.584C71.7995 231.57 71.8129 231.554 71.8254 231.538C72.15 231.136 72.4777 230.736 72.8023 230.334L72.8025 230.334C72.8198 229.1 72.6782 227.87 72.3816 226.673ZM62.5046 207.224L62.5092 207.218L62.5046 207.23V207.224ZM60.5941 224.464L60.5199 224.297C60.523 224.176 60.523 224.055 60.5199 223.931C60.5199 223.897 60.5137 223.863 60.5137 223.829C60.5415 224.043 60.5663 224.256 60.5972 224.47L60.5941 224.464Z" fill="#CCCCCC"/>
<path d="M18.8999 110.617C18.5772 110.617 18.2679 110.488 18.0397 110.26C17.8116 110.031 17.6832 109.722 17.6829 109.399V101.115C17.6829 100.792 17.8111 100.482 18.0393 100.253C18.2676 100.025 18.5771 99.8965 18.8999 99.8965C19.2227 99.8965 19.5322 100.025 19.7605 100.253C19.9887 100.482 20.1169 100.792 20.1169 101.115V109.399C20.1165 109.722 19.9882 110.031 19.76 110.26C19.5319 110.488 19.2226 110.617 18.8999 110.617Z" fill="#E6E6E6"/>
<path d="M51.2733 78.9424C51.2737 78.6194 51.402 78.3097 51.6302 78.0814C51.8584 77.853 52.1677 77.7245 52.4903 77.7241H60.7662C61.089 77.7241 61.3985 77.8525 61.6267 78.0809C61.855 78.3094 61.9832 78.6193 61.9832 78.9424C61.9832 79.2655 61.855 79.5753 61.6267 79.8038C61.3985 80.0323 61.089 80.1606 60.7662 80.1606H52.4903C52.1677 80.1602 51.8584 80.0318 51.6302 79.8034C51.402 79.575 51.2737 79.2654 51.2733 78.9424Z" fill="white"/>
<path d="M19.1429 140.83C18.8203 140.829 18.5109 140.701 18.2828 140.473C18.0546 140.244 17.9263 139.934 17.9259 139.611V131.327C17.9259 131.004 18.0541 130.694 18.2824 130.466C18.5106 130.237 18.8202 130.109 19.1429 130.109C19.4657 130.109 19.7753 130.237 20.0035 130.466C20.2317 130.694 20.36 131.004 20.36 131.327V139.611C20.3596 139.934 20.2312 140.244 20.0031 140.473C19.7749 140.701 19.4656 140.829 19.1429 140.83Z" fill="#E6E6E6"/>
<path d="M65.3909 80.1606C66.063 80.1606 66.6079 79.6152 66.6079 78.9424C66.6079 78.2696 66.063 77.7241 65.3909 77.7241C64.7187 77.7241 64.1738 78.2696 64.1738 78.9424C64.1738 79.6152 64.7187 80.1606 65.3909 80.1606Z" fill="white"/>
<path d="M389.46 238.063L0.53832 238.209C0.395405 238.209 0.258489 238.149 0.157579 238.043C0.0566696 237.937 0 237.793 0 237.644C0 237.494 0.0566696 237.35 0.157579 237.244C0.258489 237.138 0.395405 237.079 0.53832 237.078L389.46 236.932C389.603 236.932 389.741 236.992 389.842 237.098C389.943 237.204 390 237.348 390 237.498C390 237.648 389.943 237.792 389.842 237.898C389.741 238.004 389.603 238.063 389.46 238.063Z" fill="#CACACA"/>
<path d="M149.827 110.182L147.63 110.653C147.616 109.733 147.502 108.818 147.289 107.923C147.089 109.019 146.668 110.063 146.052 110.99L133.455 113.683L121.361 100.907C121.343 94.5192 124.887 89.6648 131.241 89.6648C131.624 89.6648 132.02 89.6833 132.422 89.7202C135.855 89.1451 139.377 89.9257 142.246 91.8977C145.115 93.8698 147.109 96.8794 147.806 100.293C152.309 104.732 150.676 107.341 149.827 110.182Z" fill="#2F2E41"/>
<path d="M156.02 259.59H160.589L162.763 241.948L156.019 241.948L156.02 259.59Z" fill="#FFB6B6"/>
<path d="M154.888 257.334L162.111 256.902V260L168.978 264.748C169.317 264.982 169.573 265.319 169.707 265.709C169.842 266.099 169.848 266.522 169.725 266.916C169.603 267.31 169.357 267.654 169.025 267.899C168.693 268.143 168.292 268.275 167.88 268.275H159.28L157.798 265.211L157.219 268.275H153.977L154.888 257.334Z" fill="#2F2E41"/>
<path d="M102.488 254.612L106.462 256.869L117.05 242.598L111.185 239.267L102.488 254.612Z" fill="#FFB6B6"/>
<path d="M102.615 252.09L109.11 255.282L107.583 257.977L111.215 265.498C111.395 265.87 111.451 266.289 111.376 266.695C111.3 267.1 111.097 267.471 110.796 267.753C110.495 268.035 110.112 268.213 109.703 268.262C109.294 268.311 108.88 268.227 108.521 268.024L101.042 263.775L101.263 260.378L99.2491 262.757L96.4291 261.156L102.615 252.09Z" fill="#2F2E41"/>
<path d="M172.91 113.272C172.325 113.357 171.765 113.569 171.27 113.894C170.775 114.219 170.358 114.648 170.047 115.152C169.736 115.656 169.539 116.222 169.47 116.81C169.401 117.398 169.462 117.994 169.648 118.556L162.656 124.614L165.298 129.766L175.052 121.072C175.975 120.696 176.727 119.995 177.168 119.1C177.608 118.206 177.706 117.181 177.442 116.22C177.178 115.258 176.571 114.427 175.735 113.884C174.9 113.341 173.895 113.123 172.91 113.272Z" fill="#FFB6B6"/>
<path d="M165.869 134.105C163.536 137.641 158.309 141.056 150.551 144.083C150.123 144.255 149.664 144.336 149.203 144.32C148.743 144.305 148.29 144.195 147.874 143.995C144.947 142.662 143.07 137.703 142.894 137.223L137.224 129.566C137.123 129.454 134.471 126.442 134.775 123.48C134.843 122.86 135.045 122.261 135.366 121.726C135.687 121.191 136.12 120.732 136.636 120.38C140.928 117.195 150.548 128.257 151.796 129.728L158.075 125.899L162.65 123.856L166.343 119.358L171.542 124.679L166.866 132.127C166.616 132.825 166.281 133.489 165.869 134.105Z" fill="#2F2E41"/>
<path d="M149.561 147.671C149.561 147.671 162.997 169.093 160.563 171.529C158.129 173.966 154.341 174.606 154.341 174.606L145.958 163.733L149.561 147.671Z" fill="#2F2E41"/>
<path d="M137.682 118.414L144.014 122.701C146.957 124.694 149.171 127.594 150.319 130.96C151.467 134.326 151.488 137.975 150.377 141.353L148.595 146.777L137.682 118.414Z" fill="#2F2E41"/>
<path d="M126.485 176.89L125.638 179.842L122.749 215.435L108.317 242.358L115.205 247.283L134.886 221.673L142.67 196.244L154.894 252.536L164.078 251.879L157.7 173.831L145.596 151.862L126.485 176.89Z" fill="#2F2E41"/>
<path d="M136.605 119.492L145.418 126.702C147.353 128.284 148.745 130.431 149.403 132.843C149.701 133.939 149.843 135.071 149.824 136.206L149.561 151.862L157.642 173.479C157.642 173.479 135.735 181.763 132.814 174.453C129.893 167.144 136.605 119.492 136.605 119.492Z" fill="#3563DC"/>
<path d="M139.241 178.248C128.298 178.248 125.631 178.33 125.458 178.295L125.285 178.26V171.672L127.946 159.835C127.635 156.16 126.906 151.314 126.972 147.165C127.211 132.168 126.474 117.519 126.474 117.519L132.267 112.167L134.898 113.881L139.779 118.767C145.452 132.743 149.954 145.901 149.983 146.747L150.339 161.297L148.879 167.144C142.272 171.813 148.309 178.248 139.241 178.248Z" fill="#2F2E41"/>
<path opacity="0.2" d="M128.929 130.583L127.599 138.896L136.605 142.614L128.929 130.583Z" fill="black"/>
<path d="M138.002 110.607C142.872 110.607 146.82 106.656 146.82 101.781C146.82 96.9057 142.872 92.9539 138.002 92.9539C133.132 92.9539 129.184 96.9057 129.184 101.781C129.184 106.656 133.132 110.607 138.002 110.607Z" fill="#FFB6B6"/>
<path opacity="0.2" d="M123.226 146.567C125.573 149.287 128.757 151.15 132.276 151.862C135.795 152.574 139.451 152.095 142.67 150.501L144.589 149.55L123.226 146.567Z" fill="black"/>
<path d="M153.912 144.535C153.518 144.093 153.033 143.742 152.489 143.508C151.946 143.274 151.358 143.162 150.767 143.179C150.175 143.197 149.595 143.345 149.067 143.611C148.539 143.878 148.075 144.257 147.709 144.723L138.806 142.221L135.967 147.266L148.59 150.622C149.412 151.186 150.411 151.428 151.4 151.303C152.388 151.178 153.296 150.695 153.952 149.945C154.608 149.194 154.966 148.229 154.959 147.232C154.951 146.235 154.579 145.276 153.912 144.535Z" fill="#FFB6B6"/>
<path d="M132.665 150.134C128.432 150.134 122.704 147.65 115.905 142.838C115.526 142.575 115.206 142.236 114.965 141.843C114.723 141.45 114.566 141.011 114.503 140.554C114.002 137.373 117.101 133.074 117.405 132.661L120.663 123.706C120.7 123.56 121.75 119.685 124.386 118.307C124.941 118.022 125.551 117.86 126.174 117.834C126.797 117.807 127.419 117.916 127.996 118.153C133.017 119.983 129.096 134.114 128.558 135.968L135.21 139.102L139.434 141.797L145.219 142.403L143.648 149.679L134.863 149.877C134.144 150.053 133.405 150.139 132.665 150.134Z" fill="#2F2E41"/>
<path d="M148.576 95.9741C147.87 96.8932 145.439 97.7061 142.55 98.362C142.555 98.302 142.555 98.242 142.555 98.1819C142.54 97.2623 142.426 96.3469 142.213 95.4521C142.013 96.5479 141.593 97.5915 140.977 98.5191C140.93 98.5884 140.884 98.6576 140.833 98.7269C138.356 99.2165 135.735 99.5953 133.681 99.8493C135.093 104.939 140.506 109.115 139.92 112.209L124.061 115.452C124.158 114.166 124.055 112.873 123.756 111.618C123.453 113.274 122.651 114.797 121.458 115.983L120.111 116.26L119.709 114.279C116.23 105.914 121.08 97.3505 129.026 92.921C130.442 90.7951 132.642 89.3172 135.144 88.8102L137.124 88.4037C138.372 88.148 139.659 88.141 140.91 88.383C142.161 88.6251 143.353 89.1115 144.416 89.8145C145.48 90.5174 146.395 91.4232 147.108 92.4801C147.822 93.537 148.321 94.7242 148.576 95.9741Z" fill="#2F2E41"/>
<path d="M186.462 255.997L186.697 250.718C189.141 249.41 191.868 248.719 194.64 248.706C190.825 251.828 191.302 257.847 188.715 262.045C187.898 263.349 186.799 264.451 185.499 265.272C184.198 266.092 182.73 266.609 181.203 266.784L178.011 268.741C177.573 266.296 177.669 263.785 178.294 261.381C178.918 258.978 180.056 256.738 181.629 254.817C182.522 253.748 183.545 252.796 184.676 251.983C185.441 254.001 186.462 255.997 186.462 255.997Z" fill="#F2F2F2"/>
<path d="M194.201 268.864H83.0218C82.8684 268.863 82.7214 268.802 82.613 268.693C82.5047 268.584 82.4438 268.437 82.4438 268.283C82.4438 268.13 82.5047 267.982 82.613 267.874C82.7214 267.765 82.8684 267.704 83.0218 267.703H194.201C194.277 267.703 194.353 267.718 194.424 267.747C194.494 267.776 194.558 267.819 194.612 267.872C194.666 267.926 194.709 267.99 194.738 268.061C194.767 268.131 194.783 268.207 194.783 268.283C194.783 268.36 194.767 268.435 194.738 268.506C194.709 268.576 194.666 268.64 194.612 268.694C194.558 268.748 194.494 268.791 194.424 268.82C194.353 268.849 194.277 268.864 194.201 268.864Z" fill="#CACACA"/>
</g>
<defs>
<clipPath id="clip0_666_1643">
<rect width="390" height="268.864" fill="white"/>
</clipPath>
</defs>
</svg>
