<svg width="38" height="31" viewBox="0 0 38 31" fill="none" xmlns="http://www.w3.org/2000/svg">
<path d="M23.0156 0.864988C22.0195 0.577878 20.9824 1.15796 20.6953 2.15405L13.1953 28.4041C12.9082 29.4001 13.4883 30.4373 14.4844 30.7244C15.4805 31.0115 16.5176 30.4314 16.8047 29.4353L24.3047 3.1853C24.5918 2.18921 24.0117 1.1521 23.0156 0.864988ZM27.7383 7.9021C27.0059 8.63452 27.0059 9.82397 27.7383 10.5564L32.9707 15.7947L27.7324 21.033C27 21.7654 27 22.9548 27.7324 23.6873C28.4648 24.4197 29.6543 24.4197 30.3867 23.6873L36.9492 17.1248C37.6816 16.3923 37.6816 15.2029 36.9492 14.4705L30.3867 7.90796C29.6543 7.17553 28.4648 7.17553 27.7324 7.90796L27.7383 7.9021ZM9.76758 7.9021C9.03516 7.16968 7.8457 7.16968 7.11328 7.9021L0.550781 14.4646C-0.181641 15.197 -0.181641 16.3865 0.550781 17.1189L7.11328 23.6814C7.8457 24.4138 9.03516 24.4138 9.76758 23.6814C10.5 22.949 10.5 21.7595 9.76758 21.0271L4.5293 15.7947L9.76758 10.5564C10.5 9.82397 10.5 8.63452 9.76758 7.9021Z" fill="#003DD9"/>
</svg>
