<svg width="19" height="20" viewBox="0 0 19 20" fill="none" xmlns="http://www.w3.org/2000/svg">
<path d="M17.2188 10.1074C17.2188 12.1546 16.4055 14.1179 14.958 15.5654C13.5104 17.0129 11.5471 17.8262 9.5 17.8262C7.45286 17.8262 5.48957 17.0129 4.04202 15.5654C2.59447 14.1179 1.78125 12.1546 1.78125 10.1074C1.78125 8.06028 2.59447 6.09699 4.04202 4.64944C5.48957 3.20189 7.45286 2.38867 9.5 2.38867C11.5471 2.38867 13.5104 3.20189 14.958 4.64944C16.4055 6.09699 17.2188 8.06028 17.2188 10.1074ZM0 10.1074C0 12.627 1.00089 15.0433 2.78249 16.8249C4.56408 18.6065 6.98044 19.6074 9.5 19.6074C12.0196 19.6074 14.4359 18.6065 16.2175 16.8249C17.9991 15.0433 19 12.627 19 10.1074C19 7.58787 17.9991 5.1715 16.2175 3.38991C14.4359 1.60831 12.0196 0.607422 9.5 0.607422C6.98044 0.607422 4.56408 1.60831 2.78249 3.38991C1.00089 5.1715 0 7.58787 0 10.1074ZM8.60938 5.06055V10.1074C8.60938 10.4043 8.75781 10.6826 9.00644 10.8496L12.5689 13.2246C12.9771 13.4992 13.5301 13.3879 13.8047 12.976C14.0793 12.5641 13.968 12.0148 13.5561 11.7402L10.3906 9.63242V5.06055C10.3906 4.56699 9.99356 4.16992 9.5 4.16992C9.00644 4.16992 8.60938 4.56699 8.60938 5.06055Z" fill="#003DD9"/>
</svg>
