<svg width="19" height="20" viewBox="0 0 19 20" fill="none" xmlns="http://www.w3.org/2000/svg">
<path d="M9.5 19.5244C12.0196 19.5244 14.4359 18.5235 16.2175 16.7419C17.9991 14.9603 19 12.544 19 10.0244C19 7.50486 17.9991 5.0885 16.2175 3.3069C14.4359 1.5253 12.0196 0.524414 9.5 0.524414C6.98044 0.524414 4.56408 1.5253 2.78249 3.3069C1.00089 5.0885 0 7.50486 0 10.0244C0 12.544 1.00089 14.9603 2.78249 16.7419C4.56408 18.5235 6.98044 19.5244 9.5 19.5244ZM8.01562 12.9932H8.90625V10.6182H8.01562C7.52207 10.6182 7.125 10.2211 7.125 9.72754C7.125 9.23398 7.52207 8.83691 8.01562 8.83691H9.79688C10.2904 8.83691 10.6875 9.23398 10.6875 9.72754V12.9932H10.9844C11.4779 12.9932 11.875 13.3902 11.875 13.8838C11.875 14.3773 11.4779 14.7744 10.9844 14.7744H8.01562C7.52207 14.7744 7.125 14.3773 7.125 13.8838C7.125 13.3902 7.52207 12.9932 8.01562 12.9932ZM9.5 5.27441C9.81494 5.27441 10.117 5.39953 10.3397 5.62222C10.5624 5.84492 10.6875 6.14697 10.6875 6.46191C10.6875 6.77686 10.5624 7.0789 10.3397 7.3016C10.117 7.5243 9.81494 7.64941 9.5 7.64941C9.18506 7.64941 8.88301 7.5243 8.66031 7.3016C8.43761 7.0789 8.3125 6.77686 8.3125 6.46191C8.3125 6.14697 8.43761 5.84492 8.66031 5.62222C8.88301 5.39953 9.18506 5.27441 9.5 5.27441Z" fill="white"/>
</svg>
