<svg width="19" height="20" viewBox="0 0 19 20" fill="none" xmlns="http://www.w3.org/2000/svg">
<path d="M13.0625 9.52441C13.0625 10.3482 13.018 11.1424 12.94 11.8994H6.05996C5.97832 11.1424 5.9375 10.3482 5.9375 9.52441C5.9375 8.70059 5.98203 7.90645 6.05996 7.14941H12.94C13.0217 7.90645 13.0625 8.70059 13.0625 9.52441ZM14.1312 7.14941H18.6994C18.8961 7.91016 19 8.7043 19 9.52441C19 10.3445 18.8961 11.1387 18.6994 11.8994H14.1312C14.2092 11.135 14.25 10.3408 14.25 9.52441C14.25 8.70801 14.2092 7.91387 14.1312 7.14941ZM18.3098 5.96191H13.9791C13.608 3.59063 12.8732 1.60527 11.927 0.336133C14.8326 1.1043 17.1965 3.21211 18.3061 5.96191H18.3098ZM12.7768 5.96191H6.22324C6.44961 4.61113 6.79844 3.41621 7.2252 2.44766C7.61484 1.57188 8.04902 0.937305 8.46836 0.536523C8.88398 0.143164 9.2291 0.0244141 9.5 0.0244141C9.7709 0.0244141 10.116 0.143164 10.5316 0.536523C10.951 0.937305 11.3852 1.57188 11.7748 2.44766C12.2053 3.4125 12.5504 4.60742 12.7768 5.96191ZM5.0209 5.96191H0.690234C1.80352 3.21211 4.16367 1.1043 7.07305 0.336133C6.12676 1.60527 5.39199 3.59063 5.0209 5.96191ZM0.300586 7.14941H4.86875C4.79082 7.91387 4.75 8.70801 4.75 9.52441C4.75 10.3408 4.79082 11.135 4.86875 11.8994H0.300586C0.103906 11.1387 0 10.3445 0 9.52441C0 8.7043 0.103906 7.91016 0.300586 7.14941ZM7.2252 16.5975C6.79473 15.6326 6.44961 14.4377 6.22324 13.0869H12.7768C12.5504 14.4377 12.2016 15.6326 11.7748 16.5975C11.3852 17.4732 10.951 18.1078 10.5316 18.5086C10.116 18.9057 9.7709 19.0244 9.5 19.0244C9.2291 19.0244 8.88398 18.9057 8.46836 18.5123C8.04902 18.1115 7.61484 17.477 7.2252 16.6012V16.5975ZM5.0209 13.0869C5.39199 15.4582 6.12676 17.4436 7.07305 18.7127C4.16367 17.9445 1.80352 15.8367 0.690234 13.0869H5.0209ZM18.3098 13.0869C17.1965 15.8367 14.8363 17.9445 11.9307 18.7127C12.877 17.4436 13.608 15.4582 13.9828 13.0869H18.3098Z" fill="#013EDA"/>
</svg>
