<svg width="38" height="27" viewBox="0 0 38 27" fill="none" xmlns="http://www.w3.org/2000/svg">
<path d="M8.4375 26.7822C3.7793 26.7822 0 23.0029 0 18.3447C0 14.665 2.35547 11.5361 5.63672 10.3818C5.63086 10.2236 5.625 10.0654 5.625 9.90723C5.625 4.72754 9.82031 0.532227 15 0.532227C18.4746 0.532227 21.5039 2.41895 23.127 5.23145C24.0176 4.63379 25.0957 4.28223 26.25 4.28223C29.3555 4.28223 31.875 6.80176 31.875 9.90723C31.875 10.6221 31.7402 11.3018 31.5 11.9346C34.9219 12.626 37.5 15.6553 37.5 19.2822C37.5 23.4248 34.1426 26.7822 30 26.7822H8.4375ZM13.0664 14.0674C12.5156 14.6182 12.5156 15.5088 13.0664 16.0537C13.6172 16.5986 14.5078 16.6045 15.0527 16.0537L17.3379 13.7686V21.626C17.3379 22.4053 17.9648 23.0322 18.7441 23.0322C19.5234 23.0322 20.1504 22.4053 20.1504 21.626V13.7686L22.4355 16.0537C22.9863 16.6045 23.877 16.6045 24.4219 16.0537C24.9668 15.5029 24.9727 14.6123 24.4219 14.0674L19.7344 9.37988C19.1836 8.8291 18.293 8.8291 17.748 9.37988L13.0605 14.0674H13.0664Z" fill="#003DD9"/>
</svg>
