<svg width="30" height="31" viewBox="0 0 30 31" fill="none" xmlns="http://www.w3.org/2000/svg">
<path d="M24.375 13.1191C24.375 15.8086 23.502 18.293 22.0312 20.3086L29.4492 27.7324C30.1816 28.4648 30.1816 29.6543 29.4492 30.3867C28.7168 31.1191 27.5273 31.1191 26.7949 30.3867L19.377 22.9629C17.3613 24.4395 14.877 25.3066 12.1875 25.3066C5.45508 25.3066 0 19.8516 0 13.1191C0 6.38672 5.45508 0.931641 12.1875 0.931641C18.9199 0.931641 24.375 6.38672 24.375 13.1191ZM12.1875 21.5566C13.2955 21.5566 14.3927 21.3384 15.4164 20.9144C16.4401 20.4904 17.3702 19.8688 18.1537 19.0854C18.9372 18.3019 19.5587 17.3717 19.9827 16.348C20.4068 15.3243 20.625 14.2272 20.625 13.1191C20.625 12.0111 20.4068 10.9139 19.9827 9.89025C19.5587 8.86656 18.9372 7.93642 18.1537 7.15293C17.3702 6.36943 16.4401 5.74793 15.4164 5.32391C14.3927 4.89988 13.2955 4.68164 12.1875 4.68164C11.0795 4.68164 9.98229 4.89988 8.95861 5.32391C7.93492 5.74793 7.00478 6.36943 6.22129 7.15293C5.43779 7.93642 4.81629 8.86656 4.39227 9.89025C3.96824 10.9139 3.75 12.0111 3.75 13.1191C3.75 14.2272 3.96824 15.3243 4.39227 16.348C4.81629 17.3717 5.43779 18.3019 6.22129 19.0854C7.00478 19.8688 7.93492 20.4904 8.95861 20.9144C9.98229 21.3384 11.0795 21.5566 12.1875 21.5566Z" fill="#003DD9"/>
</svg>
