<svg width="17" height="20" viewBox="0 0 17 20" fill="none" xmlns="http://www.w3.org/2000/svg">
<path d="M5.53125 5.36816V7.14941H11.4688V5.36816C11.4688 3.72793 10.1402 2.39941 8.5 2.39941C6.85977 2.39941 5.53125 3.72793 5.53125 5.36816ZM3.15625 7.14941V5.36816C3.15625 2.41797 5.5498 0.0244141 8.5 0.0244141C11.4502 0.0244141 13.8438 2.41797 13.8438 5.36816V7.14941H14.4375C15.7475 7.14941 16.8125 8.21445 16.8125 9.52441V16.6494C16.8125 17.9594 15.7475 19.0244 14.4375 19.0244H2.5625C1.25254 19.0244 0.1875 17.9594 0.1875 16.6494V9.52441C0.1875 8.21445 1.25254 7.14941 2.5625 7.14941H3.15625Z" fill="#013EDA"/>
</svg>
