<svg width="20" height="21" viewBox="0 0 20 21" fill="none" xmlns="http://www.w3.org/2000/svg">
<path d="M10 2.73828C12.1549 2.73828 14.2215 3.59431 15.7452 5.11804C17.269 6.64177 18.125 8.7084 18.125 10.8633C18.125 13.0182 17.269 15.0848 15.7452 16.6085C14.2215 18.1323 12.1549 18.9883 10 18.9883C7.84512 18.9883 5.77849 18.1323 4.25476 16.6085C2.73102 15.0848 1.875 13.0182 1.875 10.8633C1.875 8.7084 2.73102 6.64177 4.25476 5.11804C5.77849 3.59431 7.84512 2.73828 10 2.73828ZM10 20.8633C12.6522 20.8633 15.1957 19.8097 17.0711 17.9343C18.9464 16.059 20 13.5154 20 10.8633C20 8.21112 18.9464 5.66758 17.0711 3.79221C15.1957 1.91685 12.6522 0.863281 10 0.863281C7.34784 0.863281 4.8043 1.91685 2.92893 3.79221C1.05357 5.66758 0 8.21112 0 10.8633C0 13.5154 1.05357 16.059 2.92893 17.9343C4.8043 19.8097 7.34784 20.8633 10 20.8633ZM14.4141 9.02734C14.7812 8.66016 14.7812 8.06641 14.4141 7.70312C14.0469 7.33984 13.4531 7.33594 13.0898 7.70312L8.75391 12.0391L6.91797 10.2031C6.55078 9.83594 5.95703 9.83594 5.59375 10.2031C5.23047 10.5703 5.22656 11.1641 5.59375 11.5273L8.09375 14.0273C8.46094 14.3945 9.05469 14.3945 9.41797 14.0273L14.4141 9.02734Z" fill="#3563DC"/>
</svg>
