<svg width="30" height="30" viewBox="0 0 30 30" fill="none" xmlns="http://www.w3.org/2000/svg">
<path d="M25.8398 3.31397L26.5488 4.02295C27.0996 4.57373 27.0996 5.46436 26.5488 6.00928L24.8438 7.72021L22.1426 5.01904L23.8477 3.31397C24.3984 2.76318 25.2891 2.76318 25.834 3.31397H25.8398ZM12.293 14.8745L20.1562 7.00537L22.8574 9.70654L14.9883 17.5698C14.8184 17.7397 14.6074 17.8628 14.3789 17.9272L10.9512 18.9058L11.9297 15.478C11.9941 15.2495 12.1172 15.0386 12.2871 14.8687L12.293 14.8745ZM21.8613 1.32764L10.3008 12.8823C9.79102 13.3921 9.42188 14.019 9.22852 14.7046L7.55273 20.564C7.41211 21.0562 7.54688 21.5835 7.91016 21.9468C8.27344 22.3101 8.80078 22.4448 9.29297 22.3042L15.1523 20.6284C15.8438 20.4292 16.4707 20.0601 16.9746 19.5562L28.5352 8.00146C30.1816 6.35498 30.1816 3.68311 28.5352 2.03662L27.8262 1.32764C26.1797 -0.318848 23.5078 -0.318848 21.8613 1.32764ZM5.15625 3.61279C2.30859 3.61279 0 5.92139 0 8.76904V24.7065C0 27.5542 2.30859 29.8628 5.15625 29.8628H21.0938C23.9414 29.8628 26.25 27.5542 26.25 24.7065V18.144C26.25 17.3647 25.623 16.7378 24.8438 16.7378C24.0645 16.7378 23.4375 17.3647 23.4375 18.144V24.7065C23.4375 26.0015 22.3887 27.0503 21.0938 27.0503H5.15625C3.86133 27.0503 2.8125 26.0015 2.8125 24.7065V8.76904C2.8125 7.47412 3.86133 6.42529 5.15625 6.42529H11.7188C12.498 6.42529 13.125 5.79834 13.125 5.01904C13.125 4.23975 12.498 3.61279 11.7188 3.61279H5.15625Z" fill="#003DD9"/>
</svg>