<svg width="20" height="20" viewBox="0 0 20 20" fill="none" xmlns="http://www.w3.org/2000/svg">
<path d="M1.09184 9.68034C0.253176 10.159 0.331105 11.4356 1.22543 11.8067L6.43184 13.9776V17.8109C6.43184 18.4826 6.97363 19.0244 7.64531 19.0244C8.00527 19.0244 8.34667 18.8648 8.57675 18.5865L10.8775 15.8293L15.4753 17.7441C16.1767 18.0373 16.9894 17.5772 17.1044 16.8276L19.4794 1.39017C19.5499 0.941151 19.3532 0.48842 18.9784 0.232367C18.6036 -0.0236859 18.1138 -0.0459513 17.7167 0.180414L1.09184 9.68034ZM3.02523 10.6266L15.698 3.38664L7.54883 12.4932L7.59336 12.5303L3.02523 10.6266ZM15.4605 15.8108L9.27811 13.2317L17.2232 4.35148L15.4605 15.8108Z" fill="white"/>
</svg>
