<svg width="15" height="20" viewBox="0 0 15 20" fill="none" xmlns="http://www.w3.org/2000/svg">
<path d="M8.00449 19.1324C9.9082 16.75 14.25 10.9758 14.25 7.73242C14.25 3.79883 11.0586 0.607422 7.125 0.607422C3.19141 0.607422 0 3.79883 0 7.73242C0 10.9758 4.3418 16.75 6.24551 19.1324C6.70195 19.7002 7.54805 19.7002 8.00449 19.1324ZM7.125 5.35742C7.75489 5.35742 8.35898 5.60764 8.80438 6.05304C9.24978 6.49844 9.5 7.10253 9.5 7.73242C9.5 8.36231 9.24978 8.9664 8.80438 9.4118C8.35898 9.8572 7.75489 10.1074 7.125 10.1074C6.49511 10.1074 5.89102 9.8572 5.44562 9.4118C5.00022 8.9664 4.75 8.36231 4.75 7.73242C4.75 7.10253 5.00022 6.49844 5.44562 6.05304C5.89102 5.60764 6.49511 5.35742 7.125 5.35742Z" fill="#003DD9"/>
</svg>
