<svg width="19" height="16" viewBox="0 0 19 16" fill="none" xmlns="http://www.w3.org/2000/svg">
<path d="M2.375 2.76367C2.04844 2.76367 1.78125 3.03086 1.78125 3.35742V4.17754L8.18262 9.43223C8.95078 10.0631 10.0529 10.0631 10.8211 9.43223L17.2188 4.17754V3.35742C17.2188 3.03086 16.9516 2.76367 16.625 2.76367H2.375ZM1.78125 6.48203V12.8574C1.78125 13.184 2.04844 13.4512 2.375 13.4512H16.625C16.9516 13.4512 17.2188 13.184 17.2188 12.8574V6.48203L11.9492 10.809C10.5242 11.9779 8.47207 11.9779 7.05078 10.809L1.78125 6.48203ZM0 3.35742C0 2.04746 1.06504 0.982422 2.375 0.982422H16.625C17.935 0.982422 19 2.04746 19 3.35742V12.8574C19 14.1674 17.935 15.2324 16.625 15.2324H2.375C1.06504 15.2324 0 14.1674 0 12.8574V3.35742Z" fill="#003DD9"/>
</svg>
