<svg width="19" height="20" viewBox="0 0 19 20" fill="none" xmlns="http://www.w3.org/2000/svg">
<path d="M6.11934 1.52017C5.83359 0.829938 5.08027 0.462555 4.36035 0.659235L1.09473 1.54986C0.449023 1.72799 0 2.31431 0 2.98228C0 12.1631 7.44414 19.6073 16.625 19.6073C17.293 19.6073 17.8793 19.1583 18.0574 18.5126L18.948 15.2469C19.1447 14.527 18.7773 13.7737 18.0871 13.4879L14.5246 12.0036C13.9197 11.7512 13.2184 11.9256 12.8064 12.434L11.3072 14.2635C8.69473 13.0278 6.57949 10.9126 5.34375 8.30006L7.17324 6.80455C7.68164 6.38892 7.85605 5.69127 7.60371 5.08638L6.11934 1.52388V1.52017Z" fill="#003DD9"/>
</svg>
