<svg width="17" height="20" viewBox="0 0 17 20" fill="none" xmlns="http://www.w3.org/2000/svg">
<path d="M11.4688 4.77441C11.4688 3.98705 11.156 3.23194 10.5992 2.67519C10.0425 2.11844 9.28736 1.80566 8.5 1.80566C7.71264 1.80566 6.95753 2.11844 6.40078 2.67519C5.84403 3.23194 5.53125 3.98705 5.53125 4.77441C5.53125 5.56178 5.84403 6.31689 6.40078 6.87364C6.95753 7.43039 7.71264 7.74316 8.5 7.74316C9.28736 7.74316 10.0425 7.43039 10.5992 6.87364C11.156 6.31689 11.4688 5.56178 11.4688 4.77441ZM3.75 4.77441C3.75 3.51464 4.25044 2.30645 5.14124 1.41566C6.03204 0.524859 7.24022 0.0244141 8.5 0.0244141C9.75978 0.0244141 10.968 0.524859 11.8588 1.41566C12.7496 2.30645 13.25 3.51464 13.25 4.77441C13.25 6.03419 12.7496 7.24237 11.8588 8.13317C10.968 9.02397 9.75978 9.52441 8.5 9.52441C7.24022 9.52441 6.03204 9.02397 5.14124 8.13317C4.25044 7.24237 3.75 6.03419 3.75 4.77441ZM2.01699 17.2432H14.983C14.6527 14.8941 12.634 13.0869 10.1959 13.0869H6.8041C4.36602 13.0869 2.34727 14.8941 2.01699 17.2432ZM0.1875 17.9223C0.1875 14.267 3.14883 11.3057 6.8041 11.3057H10.1959C13.8512 11.3057 16.8125 14.267 16.8125 17.9223C16.8125 18.5309 16.3189 19.0244 15.7104 19.0244H1.28965C0.681055 19.0244 0.1875 18.5309 0.1875 17.9223Z" fill="#013EDA"/>
</svg>
