<svg width="350" height="271" viewBox="0 0 350 271" fill="none" xmlns="http://www.w3.org/2000/svg">
<g clip-path="url(#clip0_666_1731)">
<path opacity="0.1" d="M160.38 239.353C240.709 239.353 305.828 234.275 305.828 228.011C305.828 221.747 240.709 216.668 160.38 216.668C80.0509 216.668 14.9315 221.747 14.9315 228.011C14.9315 234.275 80.0509 239.353 160.38 239.353Z" fill="#3563DC"/>
<g opacity="0.1">
<path d="M289.203 163.381C288.333 160.731 284.808 159.511 281.331 160.659C280.83 160.823 280.346 161.033 279.884 161.288C279.661 161.226 279.432 161.171 279.199 161.13C279.389 160.367 279.462 159.58 279.415 158.796C280.614 157.99 281.587 156.888 282.24 155.596C282.894 154.304 283.205 152.865 283.145 151.417C284.341 150.608 285.311 149.506 285.962 148.214C286.612 146.922 286.922 145.484 286.862 144.037C288.067 143.239 289.039 142.134 289.678 140.834C291.355 137.5 290.66 133.754 288.125 132.465C285.589 131.176 282.17 132.836 280.493 136.17C279.828 137.457 279.517 138.898 279.593 140.346C278.397 141.154 277.427 142.257 276.776 143.549C276.125 144.841 275.816 146.279 275.876 147.725C274.68 148.533 273.71 149.636 273.06 150.928C272.409 152.22 272.099 153.658 272.159 155.105C270.961 155.912 269.988 157.014 269.335 158.307C268.682 159.6 268.37 161.039 268.429 162.487C267.224 163.285 266.252 164.391 265.613 165.691C265.297 166.317 265.058 166.98 264.901 167.663C264.48 167.046 263.968 166.498 263.381 166.038C263.314 165.513 263.2 164.995 263.039 164.491C261.896 160.996 258.83 158.865 256.194 159.738C253.559 160.611 252.341 164.147 253.484 167.643C253.952 169.142 254.852 170.467 256.071 171.451C256.138 171.976 256.253 172.494 256.413 172.998C257.077 175.026 258.388 176.593 259.887 177.38C259.754 177.818 259.659 178.266 259.603 178.72C258.19 180.086 257.28 181.893 257.023 183.845C255.608 185.211 254.698 187.019 254.442 188.973C253.742 189.649 253.163 190.44 252.731 191.314C251.051 194.648 251.745 198.398 254.281 199.683C256.817 200.968 260.236 199.315 261.916 195.978C262.359 195.108 262.649 194.167 262.772 193.197C264.185 191.832 265.095 190.025 265.353 188.073C266.767 186.707 267.677 184.898 267.933 182.945C269.337 181.576 270.236 179.769 270.483 177.82C271.902 176.454 272.815 174.643 273.07 172.685C273.505 172.27 273.894 171.809 274.23 171.31C275.628 171.598 277.078 171.507 278.429 171.046C278.93 170.882 279.415 170.671 279.877 170.417C281.39 170.817 282.988 170.76 284.47 170.252C287.936 169.114 290.068 166.034 289.203 163.381Z" fill="#3F3D56"/>
<g opacity="0.1">
<path d="M283.066 152.932C282.707 153.287 282.313 153.604 281.889 153.877C281.943 154.858 281.814 155.841 281.509 156.775C281.779 156.401 282.019 156.007 282.228 155.596C282.652 154.761 282.936 153.861 283.066 152.932Z" fill="black"/>
<path d="M286.783 145.553C286.424 145.907 286.029 146.224 285.606 146.498C285.66 147.479 285.531 148.462 285.226 149.395C285.496 149.021 285.736 148.625 285.945 148.213C286.367 147.378 286.651 146.48 286.783 145.553Z" fill="black"/>
<path d="M278.354 142.807C278.322 142.301 278.342 141.793 278.412 141.291C277.747 141.949 277.195 142.712 276.776 143.549C276.57 143.962 276.396 144.391 276.256 144.831C276.822 144.03 277.534 143.343 278.354 142.807Z" fill="black"/>
<path d="M254.764 187.464C255.063 187.046 255.401 186.657 255.774 186.303C255.832 185.836 255.931 185.376 256.071 184.928C255.774 185.329 255.511 185.756 255.288 186.203C255.081 186.609 254.906 187.031 254.764 187.464Z" fill="black"/>
<path d="M257.344 182.343C257.643 181.924 257.981 181.535 258.354 181.181C258.41 180.727 258.505 180.279 258.638 179.841C258.354 180.231 258.102 180.643 257.885 181.075C257.673 181.483 257.493 181.907 257.344 182.343Z" fill="black"/>
<path d="M279.346 160.312C278.989 160.666 278.596 160.982 278.172 161.253C278.219 162.038 278.147 162.825 277.957 163.587C278.188 163.627 278.416 163.68 278.641 163.745C279.103 163.491 279.588 163.28 280.089 163.116C283.573 161.968 287.094 163.188 287.96 165.838C288.175 166.505 288.213 167.215 288.07 167.901C289.216 166.546 289.692 164.897 289.199 163.384C288.33 160.734 284.805 159.514 281.328 160.662C280.827 160.826 280.342 161.037 279.88 161.291C279.658 161.229 279.429 161.174 279.196 161.133C279.261 160.858 279.309 160.587 279.346 160.312Z" fill="black"/>
<path d="M253.491 190.039C253.193 190.44 252.931 190.867 252.707 191.314C252.499 191.728 252.323 192.158 252.18 192.599C252.486 192.179 252.829 191.787 253.207 191.431C253.259 190.959 253.355 190.493 253.491 190.039Z" fill="black"/>
<path d="M274.62 150.186C274.589 149.68 274.608 149.172 274.678 148.67C274.014 149.328 273.461 150.091 273.043 150.929C272.836 151.342 272.662 151.77 272.522 152.211C273.089 151.409 273.8 150.723 274.62 150.186Z" fill="black"/>
<path d="M269.251 180.281C269.183 180.792 269.068 181.296 268.908 181.786C269.176 181.411 269.415 181.015 269.624 180.604C269.848 180.162 270.035 179.702 270.181 179.229C269.901 179.605 269.59 179.957 269.251 180.281Z" fill="black"/>
<path d="M264.09 190.53C264.022 191.042 263.908 191.546 263.747 192.036C264.018 191.661 264.258 191.266 264.466 190.853C264.689 190.411 264.876 189.951 265.024 189.479C264.744 189.856 264.431 190.208 264.09 190.53Z" fill="black"/>
<path d="M266.67 185.402C266.603 185.914 266.488 186.418 266.328 186.908C266.601 186.539 266.845 186.151 267.06 185.746C267.285 185.304 267.471 184.844 267.618 184.371C267.332 184.741 267.014 185.086 266.67 185.402Z" fill="black"/>
<path d="M271.831 175.156C271.764 175.667 271.649 176.17 271.489 176.658C271.757 176.285 271.996 175.89 272.204 175.479C272.431 175.03 272.619 174.562 272.765 174.081C272.486 174.466 272.174 174.827 271.831 175.156Z" fill="black"/>
<path d="M254.935 162.195C257.577 161.326 260.643 163.453 261.78 166.949C261.94 167.454 262.054 167.973 262.122 168.499C262.709 168.959 263.221 169.507 263.641 170.124C263.799 169.439 264.038 168.776 264.353 168.148C264.473 167.914 264.603 167.691 264.737 167.461C264.348 166.921 263.888 166.437 263.368 166.024C263.3 165.499 263.186 164.981 263.025 164.477C261.882 160.982 258.816 158.851 256.181 159.724C254.675 160.219 253.635 161.583 253.231 163.309C253.694 162.796 254.281 162.413 254.935 162.195Z" fill="black"/>
<path d="M267.187 164.945C267.157 164.44 267.177 163.933 267.248 163.433C266.582 164.089 266.028 164.852 265.609 165.691C265.402 166.102 265.228 166.53 265.089 166.969C265.657 166.169 266.368 165.483 267.187 164.945Z" fill="black"/>
<path d="M270.904 157.562C270.873 157.057 270.894 156.551 270.965 156.05C270.298 156.705 269.744 157.467 269.326 158.304C269.119 158.717 268.945 159.146 268.806 159.587C269.372 158.785 270.084 158.099 270.904 157.562Z" fill="black"/>
<path d="M261.509 195.655C261.442 196.167 261.327 196.672 261.167 197.164C261.73 196.381 262.161 195.512 262.444 194.589C262.164 194.971 261.851 195.328 261.509 195.655Z" fill="black"/>
</g>
<path d="M294.275 129.278C295.481 128.482 296.453 127.376 297.091 126.075C298.771 122.741 298.077 118.991 295.541 117.702C293.005 116.414 289.586 118.074 287.906 121.411C287.24 122.701 286.93 124.147 287.009 125.597C285.813 126.405 284.843 127.508 284.192 128.8C283.542 130.092 283.232 131.53 283.292 132.977C282.085 133.773 281.113 134.879 280.476 136.18C280.27 136.588 280.097 137.012 279.959 137.448C280.852 136.149 282.148 135.182 283.645 134.699C283.815 135.228 284.088 135.718 284.449 136.141C284.809 136.564 285.249 136.91 285.744 137.161C286.239 137.411 286.778 137.561 287.33 137.601C287.883 137.641 288.438 137.57 288.963 137.393C289.468 138.888 289.468 140.508 288.963 142.002C289.23 141.632 289.468 141.241 289.675 140.834C290.339 139.547 290.648 138.105 290.572 136.658C291.769 135.851 292.74 134.749 293.391 133.456C294.042 132.164 294.351 130.725 294.288 129.278H294.275Z" fill="#3F3D56"/>
<path d="M335.123 81.9711C336.155 81.4877 337.152 80.933 338.108 80.311L327.043 72.1927L340.048 78.919C342.679 76.8201 344.855 74.2038 346.444 71.2305C348.033 68.2572 349.001 64.9894 349.288 61.6273L327.187 61.8541L349.336 58.1352C349.107 54.7698 348.195 51.4869 346.657 48.4883C345.119 45.4896 342.986 42.8384 340.39 40.6977C337.795 38.5569 334.791 36.9717 331.563 36.0395C328.335 35.1072 324.951 34.8476 321.619 35.2766C318.288 35.7056 315.079 36.8141 312.189 38.534C309.3 40.2539 306.791 42.549 304.817 45.2781C302.843 48.0073 301.445 51.113 300.71 54.4044C299.975 57.6959 299.917 61.1035 300.541 64.4181C298.934 65.1684 297.413 66.0902 296.003 67.1678L307.553 83.2978L293.686 69.1785C290.759 72.0646 288.595 75.6381 287.39 79.5755C286.185 83.513 285.976 87.6901 286.783 91.7289C282.594 93.6926 279.039 96.8003 276.526 100.697C274.012 104.593 272.64 109.121 272.567 113.764C272.495 118.406 273.724 122.975 276.114 126.949C278.505 130.923 281.96 134.142 286.085 136.237C290.211 138.332 294.84 139.219 299.444 138.798C304.048 138.376 308.441 136.662 312.12 133.851C315.8 131.041 318.619 127.248 320.253 122.905C321.888 118.562 322.274 113.845 321.366 109.292C326.379 106.949 330.461 102.98 332.956 98.0249C335.452 93.0694 336.215 87.415 335.123 81.9711Z" fill="#3563DC"/>
<path opacity="0.1" d="M288.963 75.6741C286.46 80.6272 285.694 86.284 286.79 91.7285C282.601 93.6923 279.046 96.7999 276.532 100.696C274.019 104.593 272.647 109.121 272.574 113.763C272.501 118.406 273.73 122.975 276.121 126.949C278.511 130.923 281.967 134.141 286.092 136.237C290.218 138.332 294.847 139.219 299.451 138.797C304.055 138.375 308.447 136.661 312.127 133.851C315.807 131.041 318.625 127.247 320.26 122.904C321.895 118.561 322.28 113.844 321.372 109.292C326.208 107.037 290.202 73.196 288.963 75.6741Z" fill="black"/>
<path d="M316.732 39.843C318.752 39.843 320.39 38.198 320.39 36.1688C320.39 34.1396 318.752 32.4946 316.732 32.4946C314.711 32.4946 313.073 34.1396 313.073 36.1688C313.073 38.198 314.711 39.843 316.732 39.843Z" fill="#3563DC"/>
<path d="M338.101 42.2009C340.121 42.2009 341.759 40.556 341.759 38.5267C341.759 36.4975 340.121 34.8525 338.101 34.8525C336.08 34.8525 334.442 36.4975 334.442 38.5267C334.442 40.556 336.08 42.2009 338.101 42.2009Z" fill="#3563DC"/>
<path d="M346.342 75.2171C348.362 75.2171 350 73.5721 350 71.5429C350 69.5137 348.362 67.8687 346.342 67.8687C344.321 67.8687 342.683 69.5137 342.683 71.5429C342.683 73.5721 344.321 75.2171 346.342 75.2171Z" fill="#3563DC"/>
<path d="M335.219 91.7049C337.24 91.7049 338.877 90.0599 338.877 88.0307C338.877 86.0014 337.24 84.3564 335.219 84.3564C333.198 84.3564 331.561 86.0014 331.561 88.0307C331.561 90.0599 333.198 91.7049 335.219 91.7049Z" fill="#3563DC"/>
<path d="M320.024 125.948C322.045 125.948 323.683 124.303 323.683 122.274C323.683 120.245 322.045 118.6 320.024 118.6C318.004 118.6 316.366 120.245 316.366 122.274C316.366 124.303 318.004 125.948 320.024 125.948Z" fill="#3563DC"/>
<path opacity="0.1" d="M320.024 125.948C322.045 125.948 323.683 124.303 323.683 122.274C323.683 120.245 322.045 118.6 320.024 118.6C318.004 118.6 316.366 120.245 316.366 122.274C316.366 124.303 318.004 125.948 320.024 125.948Z" fill="black"/>
<path d="M286.239 87.1643C288.259 87.1643 289.897 85.5193 289.897 83.4901C289.897 81.4609 288.259 79.8159 286.239 79.8159C284.218 79.8159 282.58 81.4609 282.58 83.4901C282.58 85.5193 284.218 87.1643 286.239 87.1643Z" fill="#3563DC"/>
<path opacity="0.1" d="M286.239 87.1643C288.259 87.1643 289.897 85.5193 289.897 83.4901C289.897 81.4609 288.259 79.8159 286.239 79.8159C284.218 79.8159 282.58 81.4609 282.58 83.4901C282.58 85.5193 284.218 87.1643 286.239 87.1643Z" fill="black"/>
<path opacity="0.1" d="M282.338 143.924C279.904 142.69 279.168 139.194 280.589 135.97C280.513 136.101 280.442 136.235 280.373 136.376C278.693 139.71 279.387 143.456 281.923 144.745C284.459 146.034 287.878 144.374 289.555 141.04C289.627 140.902 289.689 140.761 289.75 140.624C288.008 143.686 284.767 145.161 282.338 143.924Z" fill="black"/>
<path opacity="0.1" d="M278.723 151.1C276.294 149.866 275.554 146.371 276.978 143.144C276.903 143.278 276.828 143.412 276.759 143.549C275.079 146.883 275.773 150.633 278.309 151.918C280.845 153.204 284.264 151.551 285.945 148.213C286.013 148.076 286.078 147.938 286.14 147.797C284.394 150.86 281.157 152.334 278.723 151.1Z" fill="black"/>
<path opacity="0.1" d="M275.11 158.274C272.68 157.04 271.94 153.544 273.364 150.32C273.289 150.451 273.214 150.585 273.145 150.726C271.465 154.06 272.163 157.806 274.699 159.095C277.235 160.384 280.65 158.724 282.331 155.39C282.399 155.252 282.464 155.112 282.526 154.974C280.784 158.036 277.543 159.511 275.11 158.274Z" fill="black"/>
<path opacity="0.1" d="M271.509 165.467C269.076 164.233 268.34 160.738 269.76 157.514C269.685 157.644 269.613 157.778 269.541 157.916C267.864 161.25 268.559 165 271.095 166.288C273.631 167.577 277.05 165.917 278.727 162.58C278.799 162.442 278.86 162.305 278.922 162.164C277.17 165.209 273.929 166.684 271.509 165.467Z" fill="black"/>
<path opacity="0.1" d="M267.885 172.623C265.452 171.389 264.716 167.894 266.136 164.67C266.061 164.801 265.989 164.935 265.921 165.075C264.24 168.409 264.935 172.156 267.471 173.445C270.007 174.734 273.426 173.074 275.106 169.74C275.175 169.602 275.24 169.461 275.301 169.324C273.563 172.386 270.315 173.861 267.885 172.623Z" fill="black"/>
<path opacity="0.1" d="M264.271 179.8C261.841 178.566 261.102 175.07 262.526 171.846C262.45 171.977 262.375 172.111 262.307 172.248C260.626 175.582 261.321 179.332 263.86 180.621C266.4 181.91 269.798 180.246 271.509 176.912C271.578 176.775 271.643 176.637 271.704 176.497C269.942 179.559 266.718 181.033 264.271 179.8Z" fill="black"/>
<path opacity="0.1" d="M260.657 186.973C258.227 185.739 257.488 182.243 258.912 179.02C258.836 179.154 258.765 179.284 258.693 179.425C257.016 182.759 257.71 186.505 260.246 187.794C262.782 189.083 266.201 187.423 267.878 184.089C267.95 183.952 268.012 183.811 268.073 183.673C266.331 186.736 263.09 188.21 260.657 186.973Z" fill="black"/>
<path opacity="0.1" d="M257.047 194.149C254.613 192.915 253.878 189.42 255.298 186.196C255.223 186.326 255.151 186.46 255.082 186.598C253.402 189.932 254.097 193.682 256.633 194.971C259.168 196.259 262.587 194.599 264.268 191.262C264.336 191.125 264.398 190.987 264.459 190.846C262.717 193.909 259.476 195.369 257.047 194.149Z" fill="black"/>
<path opacity="0.1" d="M254.671 198.865C252.242 197.628 251.502 194.136 252.926 190.908C252.851 191.042 252.776 191.176 252.707 191.314C251.027 194.648 251.721 198.398 254.257 199.683C256.793 200.968 260.212 199.315 261.893 195.978C261.961 195.84 262.026 195.703 262.088 195.562C260.342 198.624 257.101 200.099 254.671 198.865Z" fill="black"/>
<path d="M319.966 166.931C320.343 165.845 320.573 164.714 320.65 163.566C320.902 163.566 321.15 163.513 321.38 163.412C321.611 163.31 321.817 163.162 321.988 162.977C322.159 162.792 322.289 162.573 322.372 162.334C322.455 162.096 322.488 161.843 322.468 161.591C322.449 161.34 322.379 161.095 322.261 160.871C322.143 160.648 321.981 160.452 321.784 160.295C321.588 160.138 321.361 160.023 321.118 159.958C320.875 159.893 320.622 159.878 320.373 159.916C319.966 158.056 319.152 156.31 317.989 154.805C316.827 153.3 315.345 152.075 313.652 151.217C313.87 150.782 313.908 150.278 313.757 149.815C313.605 149.352 313.277 148.969 312.844 148.749C312.411 148.529 311.909 148.491 311.448 148.644C310.987 148.796 310.606 149.125 310.387 149.56C310.308 149.715 310.252 149.881 310.223 150.052C308.215 149.676 306.146 149.787 304.19 150.376C302.233 150.965 300.445 152.014 298.973 153.437C297.862 153.257 296.732 153.223 295.613 153.338L294.131 160.112L294.042 153.582C292.341 153.956 290.734 154.675 289.319 155.694C287.904 156.713 286.711 158.012 285.813 159.51C284.915 161.008 284.33 162.674 284.095 164.407C283.86 166.14 283.979 167.902 284.445 169.587C284.911 171.272 285.714 172.844 286.805 174.206C287.897 175.569 289.253 176.694 290.792 177.512C292.331 178.33 294.02 178.824 295.756 178.965C297.491 179.105 299.237 178.889 300.886 178.328C301.063 178.648 301.331 178.907 301.656 179.071C301.992 179.242 302.371 179.305 302.743 179.251C303.115 179.198 303.462 179.03 303.736 178.772C304.01 178.513 304.197 178.176 304.274 177.807C304.35 177.437 304.311 177.053 304.162 176.706C304.745 176.303 305.295 175.853 305.804 175.359C308.476 175.795 311.217 175.371 313.633 174.146C316.05 172.922 318.019 170.96 319.257 168.543L312.361 167.378L319.966 166.931Z" fill="#3563DC"/>
<g opacity="0.1">
<path d="M309.312 170.22C306.766 166.845 305.205 162.848 303.409 159.012C302.687 157.438 301.88 155.905 300.989 154.42L299.641 152.843C299.415 153.035 299.189 153.235 298.956 153.444C297.845 153.264 296.715 153.23 295.596 153.345L294.114 160.119L294.025 153.589C292.324 153.963 290.717 154.682 289.302 155.701C287.887 156.72 286.694 158.019 285.796 159.517C284.898 161.015 284.313 162.681 284.078 164.414C283.843 166.146 283.962 167.909 284.428 169.594C284.894 171.279 285.697 172.851 286.788 174.213C287.88 175.576 289.236 176.701 290.775 177.519C292.314 178.337 294.003 178.831 295.738 178.972C297.474 179.112 299.22 178.896 300.869 178.335C301.046 178.655 301.314 178.914 301.639 179.078C301.974 179.249 302.354 179.312 302.726 179.258C303.098 179.205 303.445 179.037 303.719 178.779C303.993 178.52 304.18 178.183 304.257 177.814C304.333 177.444 304.294 177.06 304.145 176.713C304.728 176.31 305.278 175.86 305.787 175.366C308.403 175.791 311.086 175.392 313.467 174.225C311.877 173.122 310.475 171.77 309.312 170.22Z" fill="black"/>
</g>
<path d="M264.223 155.716C264.364 155.436 264.431 155.124 264.418 154.811C264.405 154.497 264.312 154.192 264.148 153.925C263.984 153.657 263.754 153.437 263.481 153.284C263.208 153.132 262.9 153.052 262.587 153.053C262.069 150.291 260.662 147.775 258.583 145.893C258.918 144.581 259.045 143.224 258.96 141.872L252.235 140.721L258.765 140.308C258.647 139.692 258.486 139.086 258.282 138.493C258.536 138.318 258.743 138.082 258.884 137.806C259.049 137.477 259.112 137.107 259.065 136.742C259.017 136.377 258.862 136.035 258.62 135.76C258.377 135.484 258.057 135.289 257.702 135.197C257.348 135.106 256.974 135.124 256.629 135.249C254.9 132.795 252.369 131.026 249.476 130.251C246.584 129.477 243.512 129.744 240.796 131.007C238.079 132.27 235.889 134.449 234.605 137.165C233.322 139.882 233.027 142.964 233.771 145.876C233.375 146.044 233.052 146.349 232.861 146.735C232.693 147.068 232.63 147.445 232.681 147.814C232.731 148.184 232.893 148.529 233.144 148.804C233.395 149.08 233.723 149.271 234.085 149.354C234.447 149.437 234.826 149.407 235.171 149.269C235.828 150.376 236.645 151.378 237.598 152.242C236.904 154.956 237.114 157.824 238.193 160.408L247.211 158.057L239.168 162.305C240.59 164.575 242.683 166.341 245.154 167.357C247.624 168.373 250.35 168.588 252.948 167.973C255.547 167.357 257.888 165.941 259.646 163.923C261.404 161.904 262.49 159.385 262.752 156.717C263.061 156.69 263.359 156.584 263.617 156.409C263.874 156.234 264.083 155.995 264.223 155.716Z" fill="#3563DC"/>
<path opacity="0.1" d="M264.223 155.716C264.364 155.436 264.431 155.124 264.418 154.811C264.405 154.497 264.312 154.192 264.148 153.924C263.984 153.657 263.754 153.437 263.481 153.284C263.208 153.131 262.9 153.052 262.587 153.053C262.069 150.29 260.662 147.775 258.583 145.893C258.638 145.677 258.686 145.464 258.727 145.247C258.488 145.421 258.267 145.618 258.066 145.835C256.851 147.172 256.229 148.969 255.027 150.32C253.611 151.915 251.489 152.747 249.37 152.97C247.252 153.194 245.12 152.867 243.029 152.458C241.297 152.114 239.541 151.716 237.786 151.884C237.615 151.884 237.444 151.922 237.286 151.949C237.389 152.049 237.491 152.149 237.598 152.245C236.904 154.959 237.113 157.827 238.193 160.411L247.211 158.057L239.168 162.305C240.59 164.574 242.683 166.341 245.154 167.357C247.624 168.373 250.35 168.588 252.948 167.973C255.546 167.357 257.888 165.941 259.646 163.923C261.404 161.904 262.49 159.385 262.752 156.716C263.061 156.69 263.359 156.584 263.617 156.409C263.874 156.233 264.083 155.995 264.223 155.716Z" fill="black"/>
</g>
<g opacity="0.1">
<path d="M30.6263 176.579C31.0644 175.242 32.8405 174.627 34.5928 175.204C34.8448 175.287 35.0888 175.393 35.3217 175.52C35.4347 175.489 35.551 175.462 35.664 175.441C35.5678 175.057 35.5309 174.661 35.5544 174.266C34.9529 173.857 34.4653 173.301 34.1377 172.65C33.8101 172 33.6534 171.275 33.6824 170.547C33.0757 170.146 32.5866 169.589 32.2656 168.935C31.9312 168.287 31.7741 167.561 31.8104 166.831C31.2041 166.428 30.7152 165.871 30.3936 165.216C29.5517 163.539 29.8939 161.652 31.1773 160.999C32.4607 160.346 34.1787 161.188 35.024 162.865C35.3578 163.515 35.5137 164.242 35.4757 164.972C36.0788 165.378 36.5678 165.933 36.8956 166.584C37.2235 167.234 37.3792 167.959 37.3477 168.687C37.9506 169.094 38.4394 169.65 38.7672 170.301C39.0949 170.953 39.2508 171.677 39.2197 172.406C39.8228 172.812 40.3118 173.367 40.6397 174.018C40.9675 174.669 41.1232 175.393 41.0917 176.122C41.6993 176.524 42.1895 177.082 42.512 177.737C42.6659 178.054 42.7808 178.389 42.8542 178.734C43.0651 178.422 43.3225 178.145 43.6174 177.912C43.6526 177.647 43.7122 177.386 43.7954 177.132C44.3737 175.372 45.9172 174.3 47.2485 174.726C48.5798 175.152 49.1889 176.95 48.6174 178.71C48.3812 179.465 47.9275 180.134 47.3135 180.631C47.278 180.895 47.2184 181.155 47.1356 181.408C46.8546 182.341 46.2289 183.13 45.3867 183.614C45.4528 183.839 45.5008 184.069 45.5305 184.302C45.8838 184.642 46.1766 185.041 46.3963 185.481C46.6202 185.919 46.7662 186.394 46.8275 186.883C47.1822 187.223 47.4762 187.622 47.6968 188.062C47.9203 188.501 48.0662 188.975 48.128 189.464C48.4835 189.805 48.7776 190.205 48.9973 190.647C49.8426 192.324 49.4935 194.214 48.217 194.861C46.9405 195.507 45.2156 194.675 44.3703 192.994C44.1474 192.555 44.0016 192.081 43.9391 191.592C43.2261 190.905 42.7674 189.994 42.6386 189.011C41.9256 188.324 41.4669 187.413 41.3382 186.429C40.9838 186.089 40.6898 185.69 40.4689 185.251C40.2476 184.811 40.1018 184.337 40.0377 183.848C39.6843 183.508 39.3915 183.109 39.1718 182.669C38.9479 182.231 38.802 181.756 38.7406 181.267C38.5203 181.061 38.3239 180.83 38.1554 180.58C37.4513 180.724 36.7216 180.679 36.0404 180.449C35.7874 180.364 35.5424 180.257 35.308 180.129C34.5469 180.332 33.7428 180.304 32.998 180.047C31.2629 179.466 30.1917 177.916 30.6263 176.579Z" fill="#3F3D56"/>
<g opacity="0.1">
<path d="M33.7167 171.31C33.8981 171.49 34.0977 171.65 34.3122 171.788C34.2832 172.281 34.3482 172.776 34.5038 173.245C34.3663 173.058 34.2449 172.859 34.141 172.651C33.927 172.23 33.7836 171.777 33.7167 171.31Z" fill="black"/>
<path d="M31.8446 167.598C32.027 167.775 32.2265 167.934 32.4401 168.072C32.4113 168.567 32.4764 169.062 32.6317 169.533C32.2172 168.961 31.9471 168.297 31.8446 167.598Z" fill="black"/>
<path d="M36.0985 166.213C36.1148 165.958 36.1057 165.702 36.0712 165.45C36.4057 165.781 36.6843 166.166 36.8959 166.587C36.9993 166.796 37.0862 167.012 37.156 167.234C36.8708 166.829 36.512 166.483 36.0985 166.213Z" fill="black"/>
<path d="M47.974 188.712C47.8243 188.501 47.6547 188.305 47.4675 188.127C47.4362 187.894 47.3859 187.665 47.3169 187.44C47.4654 187.642 47.5971 187.856 47.7105 188.079C47.8143 188.283 47.9024 188.494 47.974 188.712Z" fill="black"/>
<path d="M46.6633 186.131C46.5137 185.92 46.344 185.724 46.1568 185.546C46.1289 185.313 46.0808 185.083 46.0131 184.859C46.295 185.242 46.5124 185.67 46.6565 186.124L46.6633 186.131Z" fill="black"/>
<path d="M35.5921 175.036C35.7717 175.214 35.9703 175.372 36.1841 175.507C36.1586 175.902 36.1955 176.299 36.2936 176.682C36.1783 176.703 36.0641 176.729 35.9514 176.761C35.717 176.634 35.4719 176.529 35.219 176.445C33.4668 175.868 31.6906 176.483 31.256 177.82C31.1471 178.152 31.127 178.508 31.1978 178.851C30.9163 178.553 30.716 178.188 30.6165 177.79C30.5169 177.392 30.5215 176.975 30.6297 176.579C31.0678 175.242 32.844 174.627 34.5962 175.204C34.8482 175.287 35.0922 175.393 35.3251 175.52C35.4381 175.489 35.5544 175.462 35.6674 175.441C35.6345 175.308 35.6093 175.172 35.5921 175.036Z" fill="black"/>
<path d="M48.6174 190.007C48.7667 190.21 48.8984 190.425 49.011 190.65C49.1155 190.858 49.2036 191.074 49.2745 191.296C49.1249 191.084 48.9553 190.888 48.768 190.708C48.7375 190.471 48.6872 190.236 48.6174 190.007Z" fill="black"/>
<path d="M37.9706 169.935C37.987 169.68 37.9778 169.425 37.9432 169.172C38.2786 169.503 38.5573 169.887 38.768 170.31C38.8713 170.517 38.9583 170.732 39.0281 170.952C38.7428 170.549 38.384 170.204 37.9706 169.935Z" fill="black"/>
<path d="M40.6776 185.092C40.7096 185.349 40.7658 185.602 40.8453 185.848C40.5601 185.456 40.3426 185.018 40.2019 184.553C40.3441 184.747 40.5033 184.927 40.6776 185.092Z" fill="black"/>
<path d="M43.2751 190.255C43.3097 190.512 43.3669 190.765 43.4463 191.011C43.3087 190.824 43.1874 190.625 43.0835 190.416C42.9709 190.196 42.8771 189.966 42.8029 189.729C42.9462 189.917 43.1041 190.092 43.2751 190.255Z" fill="black"/>
<path d="M41.9781 187.674C42.0102 187.931 42.0663 188.184 42.1458 188.43C42.0095 188.242 41.8882 188.043 41.7831 187.835C41.6701 187.615 41.5762 187.385 41.5024 187.148C41.6453 187.337 41.8045 187.513 41.9781 187.674Z" fill="black"/>
<path d="M39.3772 182.508C39.4088 182.766 39.465 183.02 39.5449 183.267C39.4151 183.079 39.3006 182.88 39.2026 182.673C39.0879 182.453 38.9928 182.222 38.9186 181.985C39.0553 182.173 39.2088 182.348 39.3772 182.508Z" fill="black"/>
<path d="M47.8885 175.981C46.5572 175.541 45.0137 176.613 44.4388 178.387C44.3556 178.641 44.296 178.902 44.2608 179.167C43.9648 179.398 43.7062 179.674 43.4942 179.985C43.4148 179.639 43.2941 179.305 43.1349 178.988C43.0767 178.871 43.0117 178.758 42.9432 178.644C43.1375 178.374 43.3678 178.131 43.6277 177.923C43.6629 177.658 43.7224 177.396 43.8057 177.142C44.384 175.383 45.9275 174.31 47.2588 174.736C47.6405 174.884 47.9779 175.127 48.2382 175.444C48.4984 175.761 48.6727 176.14 48.7441 176.544C48.5115 176.286 48.2169 176.092 47.8885 175.981Z" fill="black"/>
<path d="M41.7146 177.366C41.7309 177.111 41.7217 176.856 41.6873 176.603C42.0226 176.934 42.3013 177.318 42.512 177.741C42.6153 177.949 42.7023 178.165 42.7721 178.387C42.4878 177.982 42.1288 177.635 41.7146 177.366Z" fill="black"/>
<path d="M39.8426 173.647C39.8588 173.393 39.8496 173.137 39.8152 172.884C40.149 173.217 40.4274 173.601 40.64 174.022C40.7433 174.23 40.8302 174.446 40.9001 174.668C40.6149 174.264 40.2561 173.917 39.8426 173.647Z" fill="black"/>
<path d="M44.5757 192.836C44.6085 193.094 44.6658 193.348 44.7468 193.596C44.61 193.406 44.4887 193.206 44.384 192.997C44.2715 192.777 44.1776 192.547 44.1034 192.31C44.2467 192.498 44.4046 192.673 44.5757 192.836Z" fill="black"/>
</g>
<path d="M28.0698 159.397C27.463 158.996 26.9739 158.44 26.6529 157.785C25.8076 156.105 26.1567 154.218 27.4332 153.568C28.7097 152.918 30.4346 153.754 31.2799 155.434C31.6143 156.083 31.7702 156.809 31.7316 157.538C32.3346 157.945 32.8233 158.501 33.1511 159.152C33.4789 159.803 33.6347 160.528 33.6037 161.257C34.2108 161.658 34.7009 162.215 35.0239 162.869C35.1266 163.075 35.2136 163.289 35.284 163.508C34.8307 162.858 34.178 162.375 33.4257 162.133C33.3419 162.402 33.2057 162.651 33.0249 162.866C32.8442 163.081 32.6226 163.257 32.3731 163.385C32.1236 163.513 31.8512 163.59 31.5719 163.611C31.2925 163.632 31.0117 163.597 30.746 163.508C30.4923 164.26 30.4923 165.076 30.746 165.828C30.6174 165.641 30.503 165.444 30.4038 165.24C30.0693 164.592 29.9123 163.866 29.9486 163.137C29.3464 162.729 28.8582 162.173 28.5305 161.522C28.2028 160.871 28.0466 160.147 28.0766 159.418L28.0698 159.397Z" fill="#3F3D56"/>
<path d="M7.49493 135.565C6.9758 135.321 6.47383 135.042 5.99253 134.73L11.5641 130.64L5.01375 134.025C3.68935 132.967 2.59378 131.65 1.79407 130.152C0.994367 128.654 0.507348 127.009 0.362823 125.316L11.499 125.432L0.338867 123.556C0.434961 121.846 0.880625 120.174 1.64809 118.645C2.41556 117.116 3.48839 115.761 4.79974 114.667C6.11109 113.572 7.63287 112.76 9.27025 112.282C10.9076 111.804 12.6255 111.669 14.317 111.887C16.0084 112.104 17.637 112.67 19.1015 113.547C20.5659 114.424 21.8348 115.595 22.829 116.986C23.8232 118.378 24.5214 119.96 24.8802 121.634C25.239 123.308 25.2507 125.039 24.9145 126.718C25.7229 127.094 26.4892 127.554 27.2006 128.093L21.3827 136.218L28.3676 129.11C29.8416 130.564 30.9314 132.364 31.5385 134.348C32.1456 136.331 32.2508 138.435 31.8447 140.47C33.9577 141.458 35.751 143.024 37.0197 144.987C38.2884 146.951 38.9811 149.234 39.0188 151.575C39.0564 153.916 38.4374 156.22 37.2325 158.224C36.0276 160.228 34.2856 161.851 32.2055 162.907C30.1254 163.963 27.7912 164.411 25.47 164.197C23.1487 163.984 20.934 163.119 19.0792 161.702C17.2243 160.284 15.8042 158.37 14.9812 156.18C14.1581 153.99 13.9654 151.611 14.4251 149.316C11.9032 148.136 9.84911 146.139 8.59241 143.646C7.3357 141.153 6.94921 138.308 7.49493 135.568V135.565Z" fill="#3563DC"/>
<path opacity="0.1" d="M30.7495 132.396C32.0117 134.891 32.3976 137.74 31.8446 140.483C33.9576 141.472 35.751 143.037 37.0196 145.001C38.2883 146.965 38.9811 149.248 39.0187 151.588C39.0563 153.929 38.4373 156.233 37.2325 158.237C36.0276 160.241 34.2855 161.864 32.2054 162.921C30.1253 163.977 27.7912 164.424 25.4699 164.211C23.1486 163.998 20.934 163.133 19.0791 161.715C17.2243 160.298 15.8041 158.384 14.9811 156.194C14.1581 154.004 13.9654 151.625 14.425 149.33C11.9849 148.192 30.1232 131.148 30.7495 132.396Z" fill="black"/>
<path d="M16.7591 114.344C17.7778 114.344 18.6037 113.515 18.6037 112.492C18.6037 111.469 17.7778 110.639 16.7591 110.639C15.7403 110.639 14.9144 111.469 14.9144 112.492C14.9144 113.515 15.7403 114.344 16.7591 114.344Z" fill="#3563DC"/>
<path d="M5.99245 115.534C7.01121 115.534 7.83708 114.704 7.83708 113.681C7.83708 112.658 7.01121 111.829 5.99245 111.829C4.97369 111.829 4.14783 112.658 4.14783 113.681C4.14783 114.704 4.97369 115.534 5.99245 115.534Z" fill="#3563DC"/>
<path d="M1.84463 132.166C2.86339 132.166 3.68925 131.336 3.68925 130.313C3.68925 129.29 2.86339 128.46 1.84463 128.46C0.825868 128.46 0 129.29 0 130.313C0 131.336 0.825868 132.166 1.84463 132.166Z" fill="#3563DC"/>
<path d="M7.44692 140.473C8.46568 140.473 9.29155 139.643 9.29155 138.62C9.29155 137.597 8.46568 136.768 7.44692 136.768C6.42816 136.768 5.60229 137.597 5.60229 138.62C5.60229 139.643 6.42816 140.473 7.44692 140.473Z" fill="#3563DC"/>
<path d="M15.0993 157.723C16.118 157.723 16.9439 156.894 16.9439 155.871C16.9439 154.847 16.118 154.018 15.0993 154.018C14.0805 154.018 13.2546 154.847 13.2546 155.871C13.2546 156.894 14.0805 157.723 15.0993 157.723Z" fill="#3563DC"/>
<path opacity="0.1" d="M15.0993 157.723C16.118 157.723 16.9439 156.894 16.9439 155.871C16.9439 154.847 16.118 154.018 15.0993 154.018C14.0805 154.018 13.2546 154.847 13.2546 155.871C13.2546 156.894 14.0805 157.723 15.0993 157.723Z" fill="black"/>
<path d="M32.1184 138.184C33.1372 138.184 33.9631 137.354 33.9631 136.331C33.9631 135.308 33.1372 134.479 32.1184 134.479C31.0997 134.479 30.2738 135.308 30.2738 136.331C30.2738 137.354 31.0997 138.184 32.1184 138.184Z" fill="#3563DC"/>
<path opacity="0.1" d="M32.1184 138.184C33.1372 138.184 33.9631 137.354 33.9631 136.331C33.9631 135.308 33.1372 134.479 32.1184 134.479C31.0997 134.479 30.2738 135.308 30.2738 136.331C30.2738 137.354 31.0997 138.184 32.1184 138.184Z" fill="black"/>
<path opacity="0.1" d="M34.0863 166.777C35.3115 166.155 35.6811 164.395 34.9658 162.769C35.0035 162.838 35.0411 162.903 35.0753 162.972C35.9206 164.653 35.5716 166.539 34.2916 167.189C33.0117 167.839 31.2937 167.003 30.4484 165.323C30.4141 165.254 30.3799 165.185 30.3491 165.113C31.2287 166.656 32.8611 167.399 34.0863 166.777Z" fill="black"/>
<path opacity="0.1" d="M35.9035 170.392C37.1287 169.77 37.5018 168.007 36.7865 166.385C36.8241 166.45 36.8618 166.519 36.896 166.588C37.7413 168.268 37.3923 170.155 36.1123 170.805C34.8324 171.454 33.1144 170.619 32.269 168.938C32.2314 168.87 32.2006 168.798 32.1698 168.729C33.0493 170.279 34.6852 171.014 35.9035 170.392Z" fill="black"/>
<path opacity="0.1" d="M37.7242 174.005C38.9494 173.383 39.3224 171.623 38.6038 169.997C38.6448 170.066 38.679 170.131 38.7167 170.203C39.562 171.881 39.2095 173.771 37.933 174.417C36.6565 175.063 34.935 174.232 34.0897 172.551C34.0521 172.482 34.0213 172.413 33.9905 172.341C34.8666 173.884 36.499 174.627 37.7242 174.005Z" fill="black"/>
<path opacity="0.1" d="M39.5448 177.62C40.77 176.998 41.143 175.239 40.4243 173.613C40.462 173.678 40.4996 173.747 40.5338 173.816C41.3826 175.496 41.0301 177.383 39.7535 178.033C38.477 178.682 36.7522 177.847 35.9069 176.167C35.8726 176.098 35.8418 176.026 35.811 175.957C36.6871 177.497 38.3196 178.242 39.5448 177.62Z" fill="black"/>
<path opacity="0.1" d="M41.3655 181.233C42.5907 180.611 42.9603 178.851 42.245 177.229C42.2826 177.294 42.3203 177.363 42.3545 177.431C43.1998 179.112 42.8507 180.999 41.5742 181.649C40.2977 182.298 38.5729 181.46 37.7275 179.782C37.6933 179.71 37.6625 179.641 37.6283 179.573C38.5078 181.112 40.1403 181.855 41.3655 181.233Z" fill="black"/>
<path opacity="0.1" d="M43.1861 184.848C44.4113 184.226 44.7809 182.467 44.0657 180.841C44.1033 180.91 44.141 180.975 44.1752 181.044C45.0205 182.724 44.6714 184.611 43.3949 185.261C42.1184 185.91 40.3935 185.075 39.5482 183.395C39.514 183.326 39.4798 183.257 39.449 183.185C40.3285 184.714 41.961 185.471 43.1861 184.848Z" fill="black"/>
<path opacity="0.1" d="M45.0068 188.464C46.2286 187.842 46.6016 186.079 45.8864 184.457C45.924 184.522 45.9616 184.591 45.9959 184.659C46.8412 186.34 46.4921 188.227 45.2122 188.877C43.9322 189.526 42.2142 188.688 41.3689 187.01C41.3347 186.938 41.3005 186.869 41.2697 186.801C42.1492 188.34 43.7816 189.086 45.0068 188.464Z" fill="black"/>
<path opacity="0.1" d="M46.8241 192.076C48.0493 191.454 48.4223 189.695 47.7036 188.069C47.7447 188.138 47.7789 188.203 47.8165 188.275C48.6619 189.952 48.3094 191.843 47.0328 192.489C45.7563 193.135 44.0349 192.303 43.1896 190.623C43.1519 190.554 43.1211 190.485 43.0903 190.413C43.9699 191.956 45.5989 192.699 46.8241 192.076Z" fill="black"/>
<path opacity="0.1" d="M48.0322 194.451C49.2574 193.829 49.627 192.07 48.9117 190.444C48.9494 190.513 48.987 190.578 49.0213 190.65C49.8666 192.327 49.5175 194.218 48.241 194.864C46.9644 195.51 45.2396 194.678 44.3943 192.998C44.3601 192.929 44.3258 192.86 44.295 192.788C45.1643 194.338 46.7968 195.074 48.0322 194.451Z" fill="black"/>
<path d="M15.1301 178.366C14.94 177.82 14.8249 177.249 14.7878 176.672C14.6613 176.671 14.5362 176.645 14.4204 176.593C14.3045 176.542 14.2004 176.468 14.1146 176.374C14.0288 176.281 13.963 176.171 13.9215 176.051C13.88 175.931 13.8635 175.803 13.8732 175.676C13.8828 175.55 13.9184 175.426 13.9777 175.314C14.037 175.202 14.1187 175.103 14.2177 175.024C14.3167 174.945 14.4308 174.887 14.5531 174.854C14.6753 174.821 14.803 174.814 14.9282 174.833C15.1335 173.896 15.5437 173.017 16.1291 172.259C16.7145 171.501 17.4604 170.883 18.3128 170.451C18.2025 170.231 18.1835 169.977 18.2599 169.744C18.3362 169.51 18.5018 169.317 18.7201 169.206C18.9384 169.096 19.1915 169.077 19.4239 169.153C19.6562 169.23 19.8487 169.396 19.959 169.615C19.999 169.693 20.0267 169.777 20.0411 169.863C21.0538 169.676 22.0961 169.735 23.0818 170.034C24.0674 170.332 24.9679 170.863 25.7084 171.581C26.2741 171.488 26.8496 171.472 27.4196 171.533L28.1657 174.943L28.1828 171.654C29.0313 171.851 29.8314 172.218 30.5347 172.734C31.238 173.25 31.83 173.903 32.275 174.655C32.7201 175.407 33.0089 176.242 33.1242 177.109C33.2394 177.976 33.1786 178.857 32.9456 179.7C32.7125 180.543 32.3119 181.329 31.7679 182.012C31.224 182.696 30.548 183.261 29.7806 183.675C29.0132 184.088 28.1704 184.342 27.3029 184.419C26.4354 184.497 25.5612 184.397 24.7331 184.127C24.643 184.286 24.5087 184.417 24.3464 184.501C24.1772 184.587 23.9859 184.618 23.7984 184.591C23.6108 184.564 23.4361 184.48 23.2979 184.35C23.1597 184.22 23.0647 184.05 23.0257 183.864C22.9868 183.677 23.0057 183.484 23.0801 183.309C22.7867 183.103 22.5108 182.873 22.2553 182.621C20.9092 182.84 19.5285 182.626 18.3113 182.008C17.094 181.391 16.1026 180.402 15.4791 179.184L18.9528 178.596L15.1301 178.366Z" fill="#3563DC"/>
<g opacity="0.1">
<path d="M20.4962 180.023C21.7796 178.304 22.5667 176.311 23.4702 174.379C23.832 173.584 24.2388 172.811 24.6885 172.063L25.373 171.269C25.4894 171.368 25.6023 171.468 25.7152 171.571C26.2809 171.478 26.8564 171.462 27.4264 171.523L28.1725 174.932L28.1827 171.654C29.0313 171.851 29.8313 172.218 30.5346 172.734C31.2379 173.25 31.83 173.903 32.275 174.655C32.72 175.407 33.0089 176.242 33.1241 177.109C33.2394 177.976 33.1786 178.857 32.9455 179.7C32.7124 180.543 32.3118 181.329 31.7679 182.012C31.2239 182.695 30.5479 183.261 29.7805 183.674C29.0131 184.088 28.1703 184.341 27.3028 184.419C26.4354 184.497 25.5612 184.397 24.733 184.127C24.643 184.286 24.5086 184.417 24.3463 184.501C24.1772 184.587 23.9859 184.618 23.7983 184.591C23.6108 184.564 23.4361 184.48 23.2978 184.35C23.1596 184.219 23.0646 184.05 23.0257 183.864C22.9867 183.677 23.0057 183.484 23.0801 183.309C22.7866 183.103 22.5107 182.873 22.2553 182.621C20.937 182.833 19.5856 182.633 18.3846 182.047C19.1924 181.491 19.9054 180.807 20.4962 180.023Z" fill="black"/>
</g>
<path d="M43.2101 172.716C43.1554 172.607 43.1225 172.489 43.1133 172.368C43.1042 172.247 43.119 172.126 43.1568 172.01C43.1947 171.895 43.2548 171.788 43.3339 171.696C43.4129 171.605 43.5093 171.529 43.6174 171.475C43.7466 171.409 43.8898 171.374 44.0349 171.375C44.296 169.983 45.004 168.716 46.0506 167.766C45.8814 167.106 45.8179 166.423 45.8624 165.742L49.2471 165.171L45.9582 164.962C46.0178 164.651 46.1002 164.346 46.2046 164.047C46.0754 163.961 45.9705 163.843 45.9001 163.704C45.8178 163.538 45.7866 163.352 45.8107 163.168C45.8347 162.985 45.9128 162.813 46.035 162.674C46.1571 162.536 46.3177 162.437 46.4961 162.391C46.6745 162.344 46.8626 162.353 47.0363 162.415C47.6407 161.551 48.4484 160.851 49.3874 160.377C50.4934 159.813 51.7378 159.582 52.9714 159.71C54.205 159.839 55.3755 160.323 56.3425 161.102C57.3095 161.882 58.032 162.926 58.4233 164.108C58.8147 165.29 58.8583 166.56 58.5489 167.766C58.7098 167.836 58.8477 167.949 58.9464 168.095C59.0451 168.24 59.1006 168.41 59.1064 168.586C59.1121 168.761 59.0679 168.935 58.9788 169.086C58.8898 169.238 58.7597 169.361 58.6037 169.44C58.4867 169.5 58.3585 169.534 58.2275 169.54C58.0965 169.545 57.9658 169.523 57.8439 169.475C57.5137 170.031 57.1018 170.534 56.6222 170.966C56.9729 172.337 56.8684 173.785 56.3244 175.091L51.7967 173.895L55.8453 176.036C55.2375 177.01 54.3826 177.804 53.3684 178.337C52.3541 178.87 51.217 179.123 50.0735 179.069C48.9301 179.015 47.8215 178.657 46.8614 178.031C45.9013 177.405 45.1242 176.534 44.6098 175.507C44.2517 174.792 44.0267 174.017 43.9459 173.221C43.7905 173.207 43.6413 173.153 43.5125 173.065C43.3837 172.976 43.2796 172.856 43.2101 172.716Z" fill="#3563DC"/>
<path opacity="0.1" d="M43.2101 172.716C43.1554 172.608 43.1225 172.489 43.1133 172.368C43.1042 172.247 43.119 172.126 43.1568 172.01C43.1947 171.895 43.2548 171.788 43.3339 171.696C43.4129 171.605 43.5093 171.529 43.6174 171.475C43.7466 171.409 43.8898 171.374 44.0349 171.375C44.296 169.983 45.004 168.716 46.0506 167.766C46.0233 167.66 45.9993 167.55 45.9788 167.443C46.1015 167.531 46.2161 167.63 46.321 167.739C46.9336 168.426 47.2485 169.317 47.8508 169.997C48.6055 170.779 49.6201 171.255 50.7016 171.334C51.7727 171.408 52.8489 171.321 53.8946 171.076C54.7569 170.853 55.6466 170.755 56.5366 170.784L56.7899 170.819L56.6324 170.966C56.9832 172.337 56.8786 173.785 56.3347 175.091L51.7967 173.895L55.8453 176.036C55.2375 177.01 54.3826 177.804 53.3684 178.337C52.3541 178.87 51.217 179.123 50.0735 179.069C48.9301 179.015 47.8215 178.657 46.8614 178.031C45.9013 177.405 45.1242 176.534 44.6098 175.507C44.2517 174.792 44.0267 174.017 43.9459 173.221C43.7905 173.207 43.6413 173.153 43.5125 173.065C43.3837 172.976 43.2796 172.856 43.2101 172.716Z" fill="black"/>
</g>
<path opacity="0.1" d="M118.532 18.7052C117.179 18.4473 115.78 18.6005 114.514 19.1452C113.755 19.485 112.933 19.6606 112.101 19.6606C111.27 19.6606 110.448 19.485 109.689 19.1452C108.791 18.7501 107.819 18.5556 106.839 18.5751C105.859 18.5947 104.896 18.8279 104.014 19.2586C103.511 19.5255 102.951 19.6659 102.382 19.6676C100.082 19.6676 98.1691 17.3407 97.7721 14.2714C98.2306 13.9339 98.6209 13.5116 98.922 13.0272C100.27 10.8447 102.344 9.44238 104.702 9.44238C107.06 9.44238 109.114 10.8172 110.462 12.986C110.865 13.6373 111.428 14.1735 112.097 14.5431C112.766 14.9127 113.518 15.1032 114.281 15.0963H114.343C116.157 15.086 117.741 16.5605 118.532 18.7052Z" fill="#3563DC"/>
<path opacity="0.1" d="M125.52 9.08126L121.804 11.4494L124.059 7.32493C123.419 6.81311 122.628 6.53009 121.81 6.52066H121.752C121.494 6.52383 121.237 6.50428 120.982 6.46223L119.719 7.2665L120.26 6.28007C119.37 5.96904 118.6 5.38615 118.056 4.6131L115.794 6.0326L117.218 3.43076C115.9 1.8394 114.121 0.863281 112.166 0.863281C109.822 0.863281 107.717 2.2656 106.383 4.44812C105.983 5.10003 105.419 5.6342 104.748 5.99639C104.077 6.35859 103.322 6.53591 102.56 6.51035H102.447C99.8597 6.51035 97.7584 9.4559 97.7584 13.0957C97.7584 16.7356 99.8597 19.6777 102.447 19.6777C103.016 19.676 103.576 19.5356 104.079 19.2687C104.961 18.8377 105.925 18.6045 106.904 18.5856C107.884 18.5666 108.857 18.7621 109.754 19.1587C110.513 19.4975 111.335 19.6725 112.166 19.6725C112.998 19.6725 113.819 19.4975 114.579 19.1587C115.469 18.7706 116.432 18.5795 117.402 18.5985C118.373 18.6174 119.328 18.846 120.202 19.2687C120.701 19.5285 121.255 19.6651 121.817 19.6674C124.408 19.6674 126.506 16.7218 126.506 13.0854C126.515 11.689 126.176 10.3126 125.52 9.08126Z" fill="#3563DC"/>
<path opacity="0.1" d="M41.1876 66.3221C39.255 65.9549 37.2574 66.1726 35.4483 66.9476C34.3627 67.431 33.1878 67.6793 32.0002 67.6763C30.8127 67.6733 29.6391 67.4192 28.5558 66.9305C27.274 66.366 25.8854 66.0882 24.4861 66.1161C23.0868 66.144 21.7102 66.477 20.4518 67.092C19.732 67.4728 18.9313 67.6733 18.1177 67.6763C14.8323 67.6763 12.0979 64.3527 11.5298 59.967C12.1863 59.4866 12.7441 58.8832 13.1725 58.1901C15.0993 55.0726 18.0835 53.0688 21.434 53.0688C24.7844 53.0688 27.731 55.0486 29.6475 58.1316C30.2235 59.066 31.0305 59.8348 31.9901 60.363C32.9497 60.8912 34.0291 61.1609 35.1232 61.1459H35.2088C37.8029 61.1425 40.0685 63.2494 41.1876 66.3221Z" fill="#3563DC"/>
<path opacity="0.1" d="M51.1808 52.5564L45.8693 55.9384L49.0931 50.0508C48.1795 49.3183 47.0485 48.9131 45.8796 48.8994H45.794C45.425 48.9048 45.0562 48.8772 44.6921 48.8169L42.8988 49.982L43.6722 48.5728C42.396 48.125 41.2938 47.2827 40.5237 46.1669L37.2999 48.2291L39.3293 44.4827C37.4436 42.2109 34.9042 40.8188 32.1116 40.8188C28.7612 40.8188 25.7769 42.8192 23.8502 45.9366C23.2795 46.8721 22.472 47.6388 21.5101 48.1587C20.5482 48.6785 19.4662 48.9329 18.3745 48.8959H18.1931C14.4936 48.8959 11.4956 53.1063 11.4956 58.3031C11.4956 63.4999 14.4936 67.7103 18.1931 67.7103C19.0071 67.7081 19.8083 67.5064 20.5271 67.1226C21.7858 66.5081 23.1625 66.1757 24.5618 66.1484C25.9611 66.1211 27.3496 66.3995 28.6311 66.9645C29.7144 67.4532 30.888 67.7074 32.0756 67.7103C33.2631 67.7133 34.438 67.465 35.5237 66.9817C36.7958 66.4272 38.1717 66.154 39.5582 66.1807C40.9447 66.2073 42.3093 66.5333 43.5593 67.1363C44.2712 67.5105 45.0623 67.7074 45.8659 67.7103C49.5654 67.7103 52.5634 63.4965 52.5634 58.3031C52.5892 56.3015 52.1137 54.3254 51.1808 52.5564Z" fill="#3563DC"/>
<path opacity="0.1" d="M255.979 32.1096C257.332 31.8519 258.731 32.0051 259.997 32.5496C260.755 32.8895 261.577 33.0653 262.408 33.0653C263.238 33.0653 264.06 32.8895 264.819 32.5496C265.716 32.1545 266.688 31.96 267.668 31.9795C268.648 31.9991 269.612 32.2323 270.493 32.663C270.996 32.9295 271.556 33.0699 272.125 33.072C274.425 33.072 276.342 30.7451 276.739 27.6758C276.279 27.3392 275.889 26.9167 275.589 26.4316C274.247 24.2422 272.149 22.8296 269.798 22.8296C267.447 22.8296 265.39 24.2044 264.042 26.3732C263.64 27.0274 263.076 27.5663 262.406 27.9378C261.736 28.3093 260.981 28.5008 260.216 28.4938H260.157C258.337 28.4904 256.749 29.9649 255.979 32.1096Z" fill="#3563DC"/>
<path opacity="0.1" d="M248.97 22.486L252.686 24.8472L250.428 20.7227C251.068 20.2114 251.859 19.9284 252.676 19.9185H252.738C252.996 19.9215 253.253 19.9019 253.508 19.86L254.767 20.6643L254.227 19.6779C255.123 19.3721 255.901 18.7914 256.451 18.0178L258.706 19.4545L257.279 16.8526C258.6 15.2613 260.359 14.2852 262.334 14.2852C264.678 14.2852 266.783 15.6875 268.118 17.87C268.517 18.5221 269.081 19.0565 269.752 19.4187C270.424 19.781 271.179 19.9581 271.94 19.9322H272.064C274.654 19.9322 276.752 22.8778 276.752 26.5176C276.752 30.1574 274.654 33.0996 272.064 33.0996C271.495 33.097 270.935 32.9567 270.431 32.6906C269.55 32.2595 268.586 32.0264 267.606 32.0074C266.626 31.9884 265.654 32.184 264.757 32.5806C263.998 32.9193 263.177 33.0943 262.346 33.0943C261.515 33.0943 260.694 32.9193 259.935 32.5806C259.044 32.1924 258.081 32.0013 257.11 32.0202C256.139 32.0392 255.184 32.2678 254.309 32.6906C253.809 32.9507 253.256 33.0874 252.693 33.0893C250.106 33.0893 248.005 30.1437 248.005 26.5073C247.986 25.1069 248.318 23.7242 248.97 22.486Z" fill="#3563DC"/>
<path opacity="0.1" d="M210.688 267.881C232.424 267.881 250.045 264.803 250.045 261.006C250.045 257.21 232.424 254.132 210.688 254.132C188.952 254.132 171.331 257.21 171.331 261.006C171.331 264.803 188.952 267.881 210.688 267.881Z" fill="#3563DC"/>
<path d="M190.089 228.355L129.107 227.568L129.288 225.997L132.235 200.085H185.791L189.73 225.997L190.031 227.963L190.089 228.355Z" fill="#D0D2D5"/>
<path opacity="0.1" d="M190.031 227.963H159.6L129.107 227.567L129.288 225.997H189.73L190.031 227.963Z" fill="black"/>
<path d="M199.863 226.392H118.943V228.355H199.863V226.392Z" fill="#D0D2D5"/>
<path d="M277.067 44.4552C277.072 43.1009 276.541 41.8002 275.591 40.8387C274.641 39.8772 273.35 39.3335 272.002 39.3271H46.0198C45.3515 39.3303 44.6904 39.4656 44.0741 39.7254C43.4579 39.9851 42.8987 40.3643 42.4283 40.8411C41.958 41.3179 41.5858 41.8831 41.333 42.5044C41.0801 43.1257 40.9516 43.7909 40.9548 44.4621V182.03H277.067V44.4552Z" fill="#3F3D56"/>
<path d="M40.9548 180.655V196.768C40.9548 198.117 41.4885 199.411 42.4383 200.365C43.3882 201.319 44.6765 201.855 46.0199 201.855H272.002C273.345 201.855 274.634 201.319 275.584 200.365C276.533 199.411 277.067 198.117 277.067 196.768V180.655H40.9548Z" fill="#D0D2D5"/>
<path d="M268.467 47.9541H50.729V171.623H268.467V47.9541Z" fill="white"/>
<path d="M160.185 195.741C160.984 195.741 161.774 195.56 162.493 195.209C163.212 194.858 163.842 194.348 164.336 193.716C164.486 193.524 164.623 193.322 164.747 193.111L161.848 192.62L164.979 192.64C165.28 191.984 165.443 191.274 165.46 190.552C165.477 189.831 165.348 189.113 165.079 188.444L160.879 190.63L164.754 187.77C164.39 187.142 163.901 186.596 163.318 186.165C162.735 185.735 162.071 185.429 161.365 185.268C160.66 185.106 159.929 185.092 159.218 185.226C158.507 185.361 157.831 185.64 157.232 186.048C156.633 186.455 156.124 186.982 155.736 187.596C155.348 188.209 155.091 188.897 154.979 189.614C154.867 190.332 154.903 191.066 155.085 191.769C155.267 192.472 155.591 193.13 156.037 193.702C156.529 194.336 157.158 194.849 157.877 195.202C158.595 195.555 159.385 195.739 160.185 195.741Z" fill="#3563DC"/>
<path opacity="0.1" d="M165.462 201.852L189.791 226.392L186.058 201.852H165.462Z" fill="black"/>
<path opacity="0.1" d="M268.532 47.9683H50.5579V55.1929H268.532V47.9683Z" fill="#444053"/>
<path opacity="0.3" d="M191.715 49.2261H126.437C126.328 49.2261 126.239 49.3153 126.239 49.4254V53.4227C126.239 53.5328 126.328 53.6221 126.437 53.6221H191.715C191.824 53.6221 191.913 53.5328 191.913 53.4227V49.4254C191.913 49.3153 191.824 49.2261 191.715 49.2261Z" fill="#3563DC"/>
<path d="M189.962 51.8794H189.802L189.743 51.8278C189.942 51.5875 190.051 51.2847 190.051 50.972C190.049 50.7153 189.972 50.465 189.828 50.2527C189.685 50.0403 189.482 49.8754 189.245 49.7787C189.008 49.6821 188.748 49.658 188.498 49.7096C188.247 49.7612 188.018 49.8861 187.838 50.0685C187.658 50.2509 187.537 50.4828 187.488 50.7347C187.439 50.9867 187.466 51.2475 187.565 51.4842C187.663 51.721 187.83 51.923 188.043 52.0649C188.256 52.2068 188.506 52.2822 188.761 52.2815C189.073 52.2804 189.374 52.1697 189.613 51.9687L189.671 52.0203V52.1818L190.674 53.1889L190.972 52.8864L189.962 51.8794ZM188.761 51.8794C188.582 51.8801 188.407 51.8274 188.258 51.7281C188.109 51.6288 187.993 51.4874 187.924 51.3216C187.855 51.1559 187.837 50.9733 187.871 50.7971C187.906 50.6209 187.991 50.4588 188.118 50.3316C188.244 50.2044 188.405 50.1176 188.58 50.0823C188.756 50.047 188.937 50.0648 189.103 50.1334C189.268 50.2019 189.409 50.3182 189.509 50.4675C189.608 50.6168 189.661 50.7924 189.661 50.972C189.662 51.0911 189.639 51.2092 189.595 51.3195C189.55 51.4298 189.484 51.53 189.4 51.6144C189.316 51.6988 189.217 51.7657 189.107 51.8112C188.997 51.8567 188.88 51.8798 188.761 51.8794Z" fill="#3F3D56"/>
<path opacity="0.8" d="M54.4764 52.9039C55.2041 52.9039 55.794 52.3114 55.794 51.5806C55.794 50.8498 55.2041 50.2573 54.4764 50.2573C53.7487 50.2573 53.1588 50.8498 53.1588 51.5806C53.1588 52.3114 53.7487 52.9039 54.4764 52.9039Z" fill="#FA5959"/>
<path opacity="0.8" d="M58.1007 52.9039C58.8284 52.9039 59.4183 52.3114 59.4183 51.5806C59.4183 50.8498 58.8284 50.2573 58.1007 50.2573C57.373 50.2573 56.7831 50.8498 56.7831 51.5806C56.7831 52.3114 57.373 52.9039 58.1007 52.9039Z" fill="#FED253"/>
<path opacity="0.8" d="M61.7282 52.9039C62.4559 52.9039 63.0458 52.3114 63.0458 51.5806C63.0458 50.8498 62.4559 50.2573 61.7282 50.2573C61.0005 50.2573 60.4106 50.8498 60.4106 51.5806C60.4106 52.3114 61.0005 52.9039 61.7282 52.9039Z" fill="#8CCF4D"/>
<path d="M171.133 101.019C168.145 97.032 163.816 94.5161 158.997 94.5161C154.179 94.5161 149.849 97.032 146.862 101.019C147.522 102.646 148.5 104.124 149.737 105.367C151.265 106.901 153.148 108.032 155.217 108.658C157.286 109.285 159.478 109.387 161.596 108.957C163.714 108.527 165.694 107.576 167.358 106.191C169.022 104.806 170.318 103.029 171.133 101.019Z" fill="#3563DC"/>
<path d="M145.284 103.352C145.071 103.261 144.869 103.145 144.682 103.009C144.398 102.776 144.171 102.48 144.018 102.146C144.214 101.742 144.296 101.292 144.256 100.845C144.216 100.397 144.055 99.9693 143.79 99.6069C143.526 99.2446 143.168 98.9616 142.755 98.7886C142.342 98.6155 141.89 98.5589 141.448 98.6249C141.005 98.6909 140.589 98.8769 140.244 99.163C139.899 99.449 139.638 99.8242 139.49 100.248C139.342 100.672 139.312 101.128 139.403 101.568C139.494 102.008 139.703 102.415 140.007 102.744C140.178 102.927 140.374 103.085 140.589 103.215C140.867 103.377 141.094 103.615 141.242 103.902C141.522 104.47 141.908 104.979 142.379 105.401C142.861 105.817 143.383 106.185 143.936 106.501C143.175 108.664 142.743 110.931 142.656 113.224C141.771 113.239 140.893 113.381 140.048 113.646C139.615 113.781 139.207 113.986 138.84 114.251C138.741 114.239 138.642 114.232 138.542 114.231C138.093 114.231 137.653 114.354 137.268 114.588C136.884 114.821 136.571 115.156 136.362 115.555C136.154 115.955 136.058 116.404 136.086 116.854C136.114 117.304 136.263 117.738 136.519 118.109C136.775 118.48 137.126 118.773 137.536 118.957C137.946 119.142 138.398 119.21 138.844 119.155C139.29 119.099 139.712 118.922 140.065 118.643C140.417 118.364 140.687 117.994 140.845 117.572C140.943 117.299 141.112 117.059 141.336 116.877C141.56 116.695 141.83 116.579 142.115 116.54C142.325 116.515 142.537 116.501 142.748 116.499C143.042 119.733 144.041 122.863 145.674 125.666C144.223 126.797 143.33 128.03 142.953 129.398C142.883 129.438 142.818 129.485 142.758 129.539C142.655 129.62 142.559 129.71 142.471 129.807C142.178 130.131 141.976 130.528 141.885 130.956C141.795 131.384 141.819 131.829 141.957 132.244C142.094 132.66 142.338 133.031 142.666 133.32C142.993 133.61 143.391 133.806 143.819 133.89C144.246 133.974 144.689 133.942 145.1 133.797C145.512 133.653 145.877 133.401 146.16 133.068C146.442 132.734 146.632 132.331 146.708 131.901C146.784 131.47 146.745 131.026 146.595 130.615C146.483 130.317 146.461 129.992 146.533 129.681C146.604 129.371 146.765 129.088 146.995 128.869C147.16 128.714 147.337 128.549 147.577 128.367C150.353 131.622 153.655 133.708 157.779 133.956V111.873C152.327 111.574 147.577 108.01 145.284 103.352ZM179.449 114.255C179.349 114.256 179.25 114.263 179.151 114.275C178.78 114.016 178.373 113.812 177.943 113.67C177.099 113.404 176.22 113.262 175.335 113.248C175.24 110.957 174.809 108.693 174.055 106.528C174.608 106.213 175.13 105.844 175.613 105.428C176.098 104.982 176.497 104.45 176.79 103.858C176.927 103.601 177.138 103.391 177.396 103.256C177.813 103.021 178.153 102.667 178.373 102.24C178.594 101.813 178.685 101.331 178.636 100.852C178.587 100.374 178.4 99.9202 178.097 99.5472C177.795 99.1741 177.391 98.898 176.934 98.7526C176.478 98.6073 175.989 98.5991 175.527 98.7291C175.066 98.859 174.653 99.1215 174.339 99.4843C174.024 99.847 173.822 100.294 173.757 100.771C173.692 101.247 173.767 101.732 173.973 102.167C173.823 102.503 173.595 102.798 173.309 103.029C173.117 103.189 172.916 103.337 172.707 103.473C170.414 108.127 165.667 111.591 160.222 111.89V133.994C164.329 133.746 167.652 131.65 170.424 128.405C170.64 128.577 170.821 128.732 170.975 128.876C171.216 129.1 171.385 129.39 171.461 129.709C171.538 130.029 171.519 130.365 171.407 130.674C171.257 131.084 171.218 131.527 171.295 131.957C171.371 132.387 171.56 132.789 171.842 133.122C172.124 133.455 172.489 133.707 172.9 133.851C173.31 133.996 173.752 134.029 174.179 133.946C174.606 133.863 175.004 133.668 175.332 133.38C175.659 133.093 175.905 132.723 176.043 132.308C176.182 131.894 176.208 131.45 176.12 131.022C176.032 130.594 175.832 130.198 175.541 129.873C175.453 129.775 175.356 129.686 175.253 129.605C175.14 129.515 175.058 129.464 175.058 129.464C174.682 128.089 173.792 126.862 172.32 125.731C173.953 122.928 174.952 119.799 175.246 116.564C175.449 116.567 175.651 116.581 175.852 116.606C176.144 116.644 176.419 116.759 176.651 116.941C176.883 117.122 177.062 117.362 177.17 117.637C177.374 118.16 177.75 118.597 178.235 118.876C178.721 119.156 179.287 119.26 179.839 119.173C180.392 119.086 180.898 118.812 181.275 118.396C181.651 117.98 181.875 117.448 181.91 116.888C181.927 116.551 181.876 116.214 181.76 115.898C181.645 115.581 181.467 115.291 181.237 115.045C181.007 114.8 180.731 114.603 180.423 114.467C180.116 114.331 179.785 114.259 179.449 114.255Z" fill="#3563DC"/>
<path d="M233.06 256.999C232.861 256.682 232.61 256.402 232.317 256.171C230.821 254.751 230.127 252.668 229.757 250.627C229.387 248.585 229.281 246.502 228.689 244.505C228.367 243.481 227.964 242.485 227.485 241.525C227.142 240.79 226.711 239.35 226.085 238.834C225.962 238.727 225.813 238.655 225.654 238.625C225.358 237.993 224.936 237.429 224.415 236.968C223.436 236.078 222.242 235.37 221.588 234.218C221.408 233.819 221.187 233.44 220.927 233.087C220.486 232.599 219.788 232.4 219.381 231.884C218.85 231.218 218.97 230.262 219.038 229.413C219.107 228.564 219.038 227.547 218.306 227.1C217.868 226.829 217.303 226.856 216.848 226.615C216.164 226.272 215.893 225.406 215.907 224.632C215.921 223.859 216.16 223.106 216.222 222.333C216.413 219.872 214.798 217.425 215.421 215.039C215.657 214.136 216.198 213.352 216.598 212.51C216.738 212.23 216.852 211.937 216.94 211.637C218.008 212.062 219.13 212.334 220.274 212.445C218.388 208.196 218.867 203.261 217.988 198.696L218.101 198.542C218.989 197.365 219.493 195.941 219.545 194.465C219.545 192.767 218.754 191.179 218.398 189.516C218.094 188.103 218.107 186.625 217.714 185.237C217.441 184.374 217.078 183.542 216.632 182.755C216.206 181.96 215.758 181.178 215.288 180.408C214.849 178.95 214.41 177.493 213.97 176.036C213.354 173.991 212.721 171.911 211.523 170.145C211.085 169.499 210.951 168.186 210.277 167.794C209.73 167.509 209.109 167.4 208.498 167.481C207.546 166.945 206.711 166.172 206.591 165.113C206.58 164.882 206.603 164.65 206.66 164.425H206.776C208.282 164.288 209.045 162.954 209.829 161.786C211.095 159.895 210.613 157.338 209.829 155.187C209.635 154.508 209.283 153.885 208.802 153.369C207.704 152.337 205.965 152.564 204.548 152.066C204.073 151.901 203.628 151.65 203.142 151.533C202.201 151.313 201.215 151.622 200.353 152.059C199.49 152.496 198.686 153.059 197.782 153.403C196.879 153.747 195.763 154.018 195.541 154.95C195.478 155.263 195.504 155.588 195.616 155.888C195.824 156.486 196.189 157.015 196.674 157.421C196.289 158.217 196.081 159.088 196.064 159.973C196.047 160.859 196.221 161.737 196.575 162.548C196.928 163.359 197.453 164.083 198.112 164.671C198.771 165.258 199.55 165.695 200.394 165.952C200.654 166.371 200.897 166.797 201.119 167.234C201.516 168.003 201.852 168.911 201.715 169.736C201.467 170 201.238 170.281 201.03 170.578C200.048 171.953 199.49 173.565 198.977 175.173C198.287 177.227 197.735 179.325 197.324 181.453C196.489 183.236 195.469 184.941 194.863 186.814C193.779 186.816 192.699 186.67 191.653 186.381L188.765 185.725C187.758 185.495 186.711 185.247 185.924 184.58C185.507 184.237 185.181 183.78 184.757 183.439C184.333 183.099 183.481 182.7 183.015 182.982C182.93 183.034 182.851 183.095 182.779 183.164C182.355 182.302 181.951 181.446 181.458 180.611C180.75 179.442 179.695 178.373 178.361 178.15C177.545 178.018 176.711 178.213 176.037 178.693C175.257 179.249 174.767 180.411 175.353 181.195C175.499 181.369 175.658 181.532 175.828 181.683C176.224 182.141 176.578 182.635 176.886 183.157C177.989 184.713 179.639 185.789 181.502 186.168L181.383 186.512C181.14 187.227 180.623 188.09 180.753 188.832L193.6 193.249C194.424 193.585 195.299 193.779 196.188 193.823C196.534 193.82 196.879 193.774 197.214 193.685V194.345V194.373C197.248 198.906 196.53 203.409 196.396 207.939C196.372 208.767 196.396 209.657 196.917 210.303C197.498 211.011 198.532 211.152 199.432 210.991C199.649 210.954 199.861 210.906 200.068 210.846C200.373 211.987 200.593 213.148 200.726 214.321L201.574 220.46C201.684 221.088 201.728 221.726 201.708 222.364C201.609 223.804 200.852 225.093 200.305 226.423C199.757 227.753 199.432 229.344 200.151 230.589C200.376 230.974 200.688 231.3 200.89 231.699C201.146 232.316 201.263 232.983 201.232 233.651C201.285 235.503 201.335 237.356 201.383 239.212C201.233 239.188 201.08 239.218 200.951 239.298C200.24 239.855 200.318 242.505 200.267 243.326C200.212 244.701 200.267 246.104 200.192 247.492C200.103 249.363 199.803 251.219 199.298 253.022C199.175 253.609 198.905 254.154 198.515 254.607C198.115 254.956 197.637 255.205 197.122 255.332C195.417 255.868 193.634 256.112 191.848 256.054C191.126 256.03 190.373 255.961 189.702 256.236C189.032 256.511 188.491 257.267 188.734 257.954C188.943 258.532 189.576 258.807 190.147 259.023C191.453 259.485 192.713 260.067 193.912 260.763C194.373 261.078 194.86 261.355 195.366 261.591C195.852 261.766 196.354 261.89 196.865 261.962L202.933 263.014C204.175 263.227 205.671 263.358 206.461 262.326C206.889 261.77 206.951 261.013 206.93 260.305C206.896 258.931 206.622 257.532 206.8 256.157C206.935 255.344 207.149 254.546 207.437 253.775C208.041 251.972 208.648 250.17 209.257 248.369C209.867 246.561 210.483 244.736 210.719 242.838C210.804 242.151 210.797 241.367 210.274 240.938C210.141 240.829 209.987 240.749 209.822 240.704C209.802 239.047 209.586 237.387 209.678 235.731C209.702 235.318 209.743 234.906 209.778 234.49C210.095 234.792 210.378 235.129 210.623 235.493C211.208 236.414 211.424 237.631 212.317 238.243C213.077 238.765 214.203 238.738 214.737 239.494C214.908 239.785 215.037 240.098 215.12 240.426C215.43 241.236 215.895 241.977 216.489 242.608C216.693 243.363 216.976 244.093 217.334 244.787C217.838 245.857 218.34 246.924 218.84 247.987C219.354 249.135 219.925 250.255 220.551 251.345C221.029 252.031 221.415 252.778 221.698 253.565C222.18 255.263 221.393 257.126 220.147 258.377C218.901 259.628 217.259 260.347 215.64 261.017C215.469 261.075 215.313 261.169 215.181 261.292C215.041 261.459 214.967 261.672 214.973 261.89C214.973 262.684 215.623 263.364 216.369 263.608C217.132 263.814 217.931 263.844 218.706 263.694C223.08 263.162 227.44 262.089 231.307 259.955C231.886 259.68 232.398 259.282 232.81 258.79C233.008 258.542 233.137 258.244 233.181 257.929C233.225 257.614 233.183 257.292 233.06 256.999Z" fill="url(#paint0_linear_666_1731)"/>
<path d="M214.576 179.923C215.306 181.048 215.99 182.201 216.629 183.381C217.077 184.161 217.44 184.987 217.714 185.845C218.111 187.22 218.101 188.687 218.398 190.09C218.741 191.74 219.541 193.314 219.541 195.005C219.489 196.47 218.984 197.882 218.097 199.047C217.213 200.201 216.2 201.25 215.079 202.174C212.494 195.451 211.051 188.339 210.808 181.136C210.773 180.139 210.767 179.112 211.129 178.18C211.352 177.596 212.42 175.994 213.107 176.623C213.357 176.854 213.422 177.892 213.576 178.239C213.865 178.826 214.199 179.389 214.576 179.923Z" fill="#2F2E41"/>
<path opacity="0.1" d="M214.576 179.923C215.306 181.048 215.99 182.201 216.629 183.381C217.077 184.161 217.44 184.987 217.714 185.845C218.111 187.22 218.101 188.687 218.398 190.09C218.741 191.74 219.541 193.314 219.541 195.005C219.489 196.47 218.984 197.882 218.097 199.047C217.213 200.201 216.2 201.25 215.079 202.174C212.494 195.451 211.051 188.339 210.808 181.136C210.773 180.139 210.767 179.112 211.129 178.18C211.352 177.596 212.42 175.994 213.107 176.623C213.357 176.854 213.422 177.892 213.576 178.239C213.865 178.826 214.199 179.389 214.576 179.923Z" fill="black"/>
<path d="M124.35 133.032C121.643 135.747 121.318 136.943 119.692 137.483C118.066 138.022 112.218 141.064 114.055 144.436L118.997 147.715L119.141 147.811L119.897 150.093L112.423 163.456C112.423 163.456 100.103 157.799 98.8946 166.168C97.6865 174.537 98.4531 176.823 98.128 181.291C97.8029 185.759 98.2341 187.052 97.1492 187.052C96.0644 187.052 95.6366 184.117 95.6366 184.117C95.6366 184.117 95.5681 183.983 95.4483 183.732C93.8364 180.367 82.8953 155.665 100.421 138.686C100.421 138.686 108.539 138.149 110.493 128.801C111.841 122.339 116.557 122.896 119.692 124.212C120.711 124.613 121.66 125.174 122.505 125.872C123.265 126.595 123.942 127.402 124.521 128.278C125.414 129.694 125.9 131.471 124.35 133.032Z" fill="#D0D2D5"/>
<path opacity="0.1" d="M119.141 147.811L119.897 150.093L112.423 163.456C112.423 163.456 100.103 157.799 98.8946 166.168C97.6865 174.537 98.4531 176.823 98.128 181.291C97.8029 185.759 98.2341 187.052 97.1492 187.052C96.0643 187.052 95.6365 184.117 95.6365 184.117C95.6365 184.117 95.5681 183.982 95.4483 183.732C94.9042 179.552 92.1458 155.104 102.146 156.404C102.146 156.404 110.26 160.212 111.557 158.693C112.584 157.49 117.142 150.571 118.997 147.732L119.141 147.811Z" fill="black"/>
<path opacity="0.1" d="M124.521 128.257L119.579 133.898C119.579 133.898 113.84 141.61 112.649 141.284C112.292 141.206 111.929 141.163 111.564 141.157C111.167 141.126 110.786 140.983 110.466 140.744C110.147 140.505 109.901 140.18 109.758 139.807C109.615 139.434 109.58 139.027 109.657 138.634C109.734 138.242 109.921 137.879 110.195 137.589C112.153 135.527 115.76 131.612 115.996 130.742C116.232 129.873 118.528 126.061 119.678 124.195C120.697 124.596 121.647 125.156 122.491 125.855C123.256 126.576 123.937 127.382 124.521 128.257Z" fill="black"/>
<path d="M264.343 209.403C263.504 211.087 259.209 217.404 257.331 220.164L256.451 221.463C256.451 221.463 256.109 223.746 250.5 220.917C244.89 218.088 113.101 162.24 113.101 162.24L112.207 159.545L118.71 149.767L263.155 205.815C263.155 205.815 265.428 207.227 264.343 209.403Z" fill="#454B69"/>
<path opacity="0.1" d="M257.331 220.164L256.451 221.463C256.451 221.463 256.109 223.746 250.5 220.917C244.891 218.088 113.101 162.24 113.101 162.24L112.207 159.545L257.331 220.164Z" fill="black"/>
<path d="M177.837 183.683C176.499 183.463 175.014 183.57 173.973 184.443C173.344 184.978 172.947 185.737 172.864 186.56C172.775 187.512 173.326 188.643 174.278 188.715C174.507 188.718 174.736 188.703 174.962 188.67C175.563 188.668 176.163 188.718 176.756 188.822C177.921 188.932 179.096 188.76 180.182 188.319C181.267 187.879 182.232 187.184 182.995 186.292C183.812 185.261 182.734 184.814 181.769 184.608C180.448 184.326 179.158 183.896 177.837 183.683Z" fill="#FBBEBE"/>
<path d="M200.726 214.723L201.574 220.779C201.682 221.404 201.726 222.039 201.704 222.673C201.605 224.099 200.849 225.378 200.305 226.698C199.76 228.018 199.428 229.599 200.151 230.822C200.373 231.204 200.684 231.53 200.886 231.926C201.143 232.537 201.26 233.198 201.229 233.861L201.461 242.453C204.103 242.634 206.755 242.619 209.394 242.409C209.498 242.414 209.599 242.382 209.682 242.319C209.751 242.23 209.787 242.119 209.781 242.006C209.897 239.996 209.548 237.982 209.661 235.971C209.702 235.235 209.805 234.503 209.819 233.764C209.86 230.771 208.388 227.839 208.833 224.88C208.973 224.133 209.156 223.395 209.381 222.67C210.787 217.514 210.489 212.097 210.178 206.773C210.183 206.688 210.159 206.603 210.11 206.533C210.059 206.482 209.995 206.447 209.925 206.433C208.427 205.982 206.844 205.899 205.308 206.192C203.773 206.486 202.33 207.146 201.102 208.117C200.729 208.42 199.788 208.712 199.541 209.073C199.199 209.574 199.647 210.076 199.846 210.609C200.286 211.945 200.581 213.324 200.726 214.723Z" fill="#3F3D56"/>
<path opacity="0.1" d="M200.726 214.723L201.574 220.779C201.682 221.404 201.726 222.039 201.704 222.673C201.605 224.099 200.849 225.378 200.305 226.698C199.76 228.018 199.428 229.599 200.151 230.822C200.373 231.204 200.684 231.53 200.886 231.926C201.143 232.537 201.26 233.198 201.229 233.861L201.461 242.453C204.103 242.634 206.755 242.619 209.394 242.409C209.498 242.414 209.599 242.382 209.682 242.319C209.751 242.23 209.787 242.119 209.781 242.006C209.897 239.996 209.548 237.982 209.661 235.971C209.702 235.235 209.805 234.503 209.819 233.764C209.86 230.771 208.388 227.839 208.833 224.88C208.973 224.133 209.156 223.395 209.381 222.67C210.787 217.514 210.489 212.097 210.178 206.773C210.183 206.688 210.159 206.603 210.11 206.533C210.059 206.482 209.995 206.447 209.925 206.433C208.427 205.982 206.844 205.899 205.308 206.192C203.773 206.486 202.33 207.146 201.102 208.117C200.729 208.42 199.788 208.712 199.541 209.073C199.199 209.574 199.647 210.076 199.846 210.609C200.286 211.945 200.581 213.324 200.726 214.723Z" fill="black"/>
<path d="M216.595 212.898C216.194 213.734 215.657 214.51 215.418 215.408C214.795 217.776 216.407 220.219 216.215 222.646C216.153 223.412 215.917 224.158 215.9 224.925C215.883 225.691 216.164 226.544 216.841 226.898C217.296 227.131 217.868 227.107 218.296 227.375C219.018 227.819 219.1 228.826 219.028 229.671C218.956 230.517 218.836 231.462 219.37 232.122C219.778 232.634 220.476 232.833 220.914 233.318C221.174 233.666 221.396 234.042 221.574 234.438C222.228 235.586 223.422 236.288 224.401 237.188C225.38 238.089 226.208 239.408 225.77 240.656C225.448 241.57 224.545 242.134 223.676 242.564C222.09 243.351 220.416 243.945 218.689 244.334C218.504 244.39 218.308 244.401 218.118 244.365C217.925 244.294 217.753 244.176 217.618 244.021C216.609 243.028 215.565 241.986 215.099 240.649C215.016 240.325 214.887 240.015 214.716 239.728C214.182 238.975 213.056 239.003 212.296 238.484C211.407 237.876 211.191 236.669 210.609 235.758C210.027 234.847 209.175 234.304 208.556 233.504C207.509 232.17 207.252 230.39 206.502 228.867C206.184 228.221 205.777 227.616 205.524 226.942C205.268 226.135 205.111 225.299 205.055 224.454C204.572 220.439 203.344 216.397 204.117 212.424C204.288 211.551 204.552 210.706 204.661 209.805C204.849 208.248 204.552 206.653 204.781 205.1C204.787 204.905 204.836 204.714 204.925 204.54C205.015 204.367 205.142 204.217 205.298 204.1C205.483 204.016 205.684 203.975 205.886 203.979C207.915 203.87 209.949 203.916 211.971 204.117C212.998 204.216 214.148 204.426 214.764 205.268C215.287 205.99 215.26 206.956 215.428 207.832C215.637 208.912 216.181 209.499 216.752 210.345C217.324 211.19 217.016 212.025 216.595 212.898Z" fill="#3F3D56"/>
<path d="M208.699 240.828C209.24 240.828 209.839 240.793 210.257 241.137C210.777 241.567 210.784 242.354 210.702 243.024C210.462 244.908 209.849 246.719 209.237 248.523L207.416 253.889C207.128 254.654 206.915 255.446 206.78 256.253C206.602 257.628 206.875 259.003 206.91 260.378C206.91 261.065 206.865 261.828 206.437 262.382C205.664 263.382 204.155 263.265 202.912 263.069L196.851 262.038C196.34 261.969 195.838 261.846 195.352 261.67C194.847 261.436 194.36 261.161 193.898 260.849C192.699 260.16 191.438 259.585 190.133 259.13C189.565 258.917 188.929 258.645 188.723 258.071C188.48 257.384 189.021 256.628 189.692 256.353C190.363 256.078 191.112 256.147 191.838 256.167C193.622 256.224 195.403 255.983 197.108 255.452C197.622 255.326 198.098 255.079 198.498 254.731C198.903 254.272 199.18 253.714 199.298 253.112C199.815 251.32 200.123 249.475 200.216 247.613C200.287 246.238 200.239 244.863 200.294 243.488C200.328 242.673 200.25 240.051 200.962 239.491C201.506 239.071 203.744 240.23 204.48 240.398C205.863 240.717 207.281 240.861 208.699 240.828Z" fill="#2F2E41"/>
<path d="M228.665 244.649C229.257 246.619 229.35 248.702 229.733 250.726C230.116 252.751 230.794 254.816 232.289 256.225C232.581 256.457 232.831 256.736 233.032 257.05C233.158 257.345 233.201 257.668 233.156 257.985C233.111 258.303 232.979 258.601 232.775 258.848C232.362 259.337 231.85 259.732 231.273 260.006C227.409 262.123 223.059 263.192 218.676 263.722C217.901 263.867 217.103 263.838 216.341 263.636C215.595 263.381 214.935 262.708 214.949 261.917C214.941 261.7 215.015 261.488 215.154 261.323C215.287 261.2 215.445 261.108 215.616 261.051C217.231 260.384 218.871 259.659 220.12 258.429C221.369 257.198 222.153 255.335 221.67 253.665C221.384 252.882 220.996 252.142 220.517 251.462C219.891 250.381 219.32 249.269 218.806 248.131L217.3 244.959C216.858 244.031 216.413 243.075 216.338 242.051C218.23 242.136 220.119 241.832 221.889 241.157C222.715 240.819 223.485 240.355 224.172 239.783C224.754 239.295 225.284 238.384 226.068 239.02C226.697 239.528 227.094 240.962 227.464 241.687C227.944 242.64 228.346 243.631 228.665 244.649Z" fill="#2F2E41"/>
<path d="M206.598 165.876C206.749 167.196 208.022 168.066 209.237 168.588L201.547 171.052C202.043 170.097 201.643 168.928 201.15 167.959C200.748 167.192 200.291 166.455 199.781 165.756C199.706 165.649 199.62 165.515 199.675 165.392C199.724 165.311 199.8 165.251 199.89 165.223C201.472 164.515 203.101 163.783 204.829 163.525C205.329 163.453 206.273 163.254 206.646 163.762C207.019 164.271 206.526 165.268 206.598 165.876Z" fill="#FBBEBE"/>
<path opacity="0.1" d="M206.598 165.876C206.749 167.196 208.022 168.066 209.237 168.588L201.547 171.052C202.043 170.097 201.643 168.928 201.15 167.959C200.748 167.192 200.291 166.455 199.781 165.756C199.706 165.649 199.62 165.515 199.675 165.392C199.724 165.311 199.8 165.251 199.89 165.223C201.472 164.515 203.101 163.783 204.829 163.525C205.329 163.453 206.273 163.254 206.646 163.762C207.019 164.271 206.526 165.268 206.598 165.876Z" fill="black"/>
<path d="M202.129 166.945C205.459 166.945 208.159 164.233 208.159 160.889C208.159 157.544 205.459 154.833 202.129 154.833C198.798 154.833 196.099 157.544 196.099 160.889C196.099 164.233 198.798 166.945 202.129 166.945Z" fill="#FBBEBE"/>
<path d="M196.903 210.726C197.488 211.431 198.518 211.568 199.418 211.413C201.523 211.07 203.244 209.513 205.305 208.953C207.83 208.265 210.503 209.148 212.888 210.231C215.274 211.314 217.645 212.637 220.253 212.823C217.895 207.543 219.244 201.192 216.988 195.868C216.437 194.565 215.667 193.311 215.544 191.901C215.39 190.152 216.259 188.464 216.393 186.725C216.516 185.175 216.051 183.632 215.606 182.154C215.056 180.339 214.506 178.524 213.956 176.71C213.34 174.678 212.707 172.613 211.513 170.867C211.071 170.224 210.938 168.921 210.267 168.533C208.802 167.684 206.581 168.753 204.993 168.811C203.405 168.87 201.958 170.004 201.03 171.286C200.048 172.64 199.49 174.252 198.977 175.847C198.159 178.222 197.549 180.663 197.153 183.144C197.101 183.515 197.057 183.886 197.023 184.261C196.68 187.791 197.18 191.341 197.207 194.888V194.912C197.242 199.411 196.523 203.883 196.389 208.379C196.376 209.2 196.396 210.097 196.903 210.726Z" fill="#2F2E41"/>
<path opacity="0.1" d="M197.218 194.892C198.398 194.593 199.466 193.826 200.383 192.988C201.178 192.274 201.883 191.466 202.485 190.582C203.242 189.393 203.85 188.115 204.295 186.777C205.562 183.198 206.367 179.47 206.691 175.685C206.78 174.654 206.807 173.548 206.194 172.73C205.85 172.286 205.367 171.973 204.824 171.841C204.28 171.709 203.708 171.765 203.2 172.001C202.392 172.396 201.869 173.197 201.383 173.963C200.421 175.483 199.452 177.022 198.833 178.713C198.559 179.463 198.357 180.233 198.09 180.985C197.819 181.728 197.506 182.454 197.153 183.161C197.101 183.532 197.057 183.903 197.023 184.278C196.704 187.808 197.19 191.345 197.218 194.892Z" fill="black"/>
<path d="M206.177 172.066C206.79 172.884 206.763 174.001 206.677 175.018C206.354 178.803 205.549 182.531 204.281 186.11C203.84 187.459 203.232 188.748 202.471 189.946C201.869 190.829 201.163 191.637 200.37 192.352C199.206 193.417 197.789 194.369 196.212 194.383C195.324 194.341 194.449 194.149 193.624 193.816L180.773 189.423C180.643 188.688 181.16 187.828 181.403 187.12L182.088 185.082C182.283 184.519 182.509 183.91 183.019 183.604C183.528 183.298 184.336 183.718 184.76 184.058C185.185 184.398 185.507 184.845 185.924 185.192C186.715 185.852 187.758 186.1 188.765 186.326L191.65 186.976C192.696 187.264 193.775 187.408 194.86 187.406C195.664 184.938 197.194 182.766 198.06 180.318C198.327 179.569 198.528 178.796 198.806 178.047C199.422 176.356 200.394 174.819 201.355 173.297C201.838 172.534 202.361 171.733 203.173 171.334C203.682 171.095 204.257 171.038 204.803 171.171C205.349 171.304 205.834 171.62 206.177 172.066Z" fill="#2F2E41"/>
<path d="M204.052 162.257C204.006 161.858 203.883 161.473 203.689 161.123C203.588 160.947 203.435 160.808 203.25 160.727C203.065 160.645 202.859 160.625 202.663 160.669C202.06 160.858 201.858 161.793 201.229 161.824C200.804 161.844 200.5 161.411 200.366 161.006C200.233 160.6 200.161 160.136 199.843 159.851C199.621 159.684 199.367 159.567 199.096 159.507C197.635 159.043 196.126 158.187 195.64 156.727C195.526 156.43 195.498 156.107 195.561 155.795C195.784 154.871 196.93 154.592 197.803 154.259C198.676 153.925 199.514 153.355 200.37 152.922C201.225 152.489 202.218 152.183 203.159 152.403C203.636 152.554 204.106 152.729 204.565 152.929C205.982 153.424 207.717 153.193 208.816 154.221C209.296 154.731 209.648 155.348 209.843 156.022C210.609 158.16 211.095 160.696 209.825 162.573C209.042 163.731 208.282 165.055 206.776 165.195C205.024 165.343 204.329 163.748 204.052 162.257Z" fill="#2F2E41"/>
<g opacity="0.1">
<path d="M201.376 160.277C201.242 159.871 201.17 159.407 200.856 159.122C200.634 158.956 200.38 158.838 200.109 158.778C198.645 158.314 197.139 157.458 196.65 155.998C196.538 155.7 196.512 155.378 196.574 155.066C196.608 154.919 196.669 154.781 196.756 154.657C196.198 154.901 195.712 155.224 195.575 155.795C195.512 156.107 195.539 156.43 195.654 156.726C196.14 158.187 197.649 159.043 199.11 159.507C199.38 159.567 199.635 159.684 199.856 159.851C200.175 160.136 200.243 160.596 200.38 161.005C200.517 161.414 200.818 161.844 201.242 161.823C201.667 161.803 201.872 161.414 202.142 161.088C201.769 161.04 201.499 160.655 201.376 160.277Z" fill="black"/>
<path d="M207.782 164.456C206.023 164.618 205.328 163.009 205.044 161.528C205.007 161.131 204.89 160.745 204.702 160.394C204.601 160.219 204.447 160.08 204.263 159.999C204.078 159.917 203.872 159.897 203.676 159.94C203.363 160.092 203.101 160.331 202.919 160.628C203.076 160.643 203.228 160.694 203.362 160.777C203.496 160.861 203.609 160.974 203.693 161.109C203.886 161.459 204.01 161.845 204.055 162.243C204.333 163.724 205.027 165.336 206.793 165.171C207.491 165.094 208.135 164.758 208.6 164.23C208.342 164.351 208.066 164.427 207.782 164.456Z" fill="black"/>
</g>
<path d="M278.272 228.392C284.375 228.392 289.322 227.437 289.322 226.258C289.322 225.079 284.375 224.124 278.272 224.124C272.169 224.124 267.221 225.079 267.221 226.258C267.221 227.437 272.169 228.392 278.272 228.392Z" fill="#3563DC"/>
<path d="M278.087 227.042C278.798 227.042 279.374 226.285 279.374 225.351C279.374 224.417 278.798 223.66 278.087 223.66C277.376 223.66 276.8 224.417 276.8 225.351C276.8 226.285 277.376 227.042 278.087 227.042Z" fill="#3F3D56"/>
<path d="M278.087 224.972C278.798 224.972 279.374 224.215 279.374 223.281C279.374 222.347 278.798 221.59 278.087 221.59C277.376 221.59 276.8 222.347 276.8 223.281C276.8 224.215 277.376 224.972 278.087 224.972Z" fill="#3F3D56"/>
<path d="M278.087 222.907C278.798 222.907 279.374 222.15 279.374 221.216C279.374 220.282 278.798 219.525 278.087 219.525C277.376 219.525 276.8 220.282 276.8 221.216C276.8 222.15 277.376 222.907 278.087 222.907Z" fill="#3F3D56"/>
<path d="M278.087 220.838C278.798 220.838 279.374 220.081 279.374 219.147C279.374 218.213 278.798 217.456 278.087 217.456C277.376 217.456 276.8 218.213 276.8 219.147C276.8 220.081 277.376 220.838 278.087 220.838Z" fill="#3F3D56"/>
<path d="M278.087 218.769C278.798 218.769 279.374 218.012 279.374 217.078C279.374 216.144 278.798 215.387 278.087 215.387C277.376 215.387 276.8 216.144 276.8 217.078C276.8 218.012 277.376 218.769 278.087 218.769Z" fill="#3F3D56"/>
<path d="M278.087 216.703C278.798 216.703 279.374 215.946 279.374 215.012C279.374 214.078 278.798 213.321 278.087 213.321C277.376 213.321 276.8 214.078 276.8 215.012C276.8 215.946 277.376 216.703 278.087 216.703Z" fill="#3F3D56"/>
<path d="M278.087 214.634C278.798 214.634 279.374 213.877 279.374 212.943C279.374 212.009 278.798 211.252 278.087 211.252C277.376 211.252 276.8 212.009 276.8 212.943C276.8 213.877 277.376 214.634 278.087 214.634Z" fill="#3F3D56"/>
<path d="M282.902 198.806C283.078 198.582 283.238 198.345 283.381 198.098L280 197.542L283.658 197.566C284.008 196.799 284.198 195.968 284.218 195.125C284.238 194.282 284.087 193.444 283.775 192.661L278.867 195.218L283.392 191.877C282.967 191.143 282.397 190.505 281.716 190.002C281.035 189.499 280.259 189.142 279.435 188.953C278.611 188.765 277.757 188.748 276.926 188.905C276.096 189.062 275.306 189.389 274.607 189.865C273.907 190.342 273.313 190.958 272.861 191.675C272.409 192.392 272.108 193.194 271.978 194.033C271.848 194.872 271.891 195.728 272.105 196.55C272.319 197.371 272.698 198.139 273.22 198.806C272.946 199.156 272.709 199.534 272.515 199.934L276.906 202.226L272.225 200.649C271.898 201.623 271.817 202.663 271.991 203.676C272.165 204.689 272.588 205.643 273.22 206.45C272.507 207.363 272.063 208.459 271.94 209.613C271.816 210.767 272.019 211.933 272.524 212.977C273.03 214.021 273.817 214.901 274.797 215.517C275.777 216.132 276.909 216.459 278.065 216.459C279.22 216.459 280.353 216.132 281.333 215.517C282.312 214.901 283.1 214.021 283.605 212.977C284.11 211.933 284.313 210.767 284.19 209.613C284.067 208.459 283.623 207.363 282.909 206.45C283.764 205.36 284.229 204.012 284.229 202.623C284.229 201.235 283.764 199.887 282.909 198.796L282.902 198.806Z" fill="#3563DC"/>
<path opacity="0.1" d="M271.893 202.621C271.892 204.012 272.36 205.361 273.22 206.45C272.507 207.363 272.063 208.459 271.94 209.613C271.817 210.767 272.019 211.933 272.524 212.977C273.03 214.021 273.817 214.901 274.797 215.516C275.777 216.132 276.909 216.459 278.065 216.459C279.22 216.459 280.353 216.132 281.333 215.516C282.312 214.901 283.1 214.021 283.605 212.977C284.11 211.933 284.313 210.767 284.19 209.613C284.067 208.459 283.623 207.363 282.909 206.45C283.727 205.395 271.893 201.927 271.893 202.621Z" fill="black"/>
<path d="M50.794 270.95C59.581 270.95 66.7043 269.574 66.7043 267.877C66.7043 266.18 59.581 264.805 50.794 264.805C42.007 264.805 34.8837 266.18 34.8837 267.877C34.8837 269.574 42.007 270.95 50.794 270.95Z" fill="#3563DC"/>
<path d="M50.527 269.008C51.5495 269.008 52.3785 267.917 52.3785 266.571C52.3785 265.225 51.5495 264.134 50.527 264.134C49.5045 264.134 48.6755 265.225 48.6755 266.571C48.6755 267.917 49.5045 269.008 50.527 269.008Z" fill="#3F3D56"/>
<path d="M50.527 266.031C51.5495 266.031 52.3785 264.94 52.3785 263.595C52.3785 262.249 51.5495 261.158 50.527 261.158C49.5045 261.158 48.6755 262.249 48.6755 263.595C48.6755 264.94 49.5045 266.031 50.527 266.031Z" fill="#3F3D56"/>
<path d="M50.527 263.055C51.5495 263.055 52.3785 261.964 52.3785 260.618C52.3785 259.272 51.5495 258.181 50.527 258.181C49.5045 258.181 48.6755 259.272 48.6755 260.618C48.6755 261.964 49.5045 263.055 50.527 263.055Z" fill="#3F3D56"/>
<path d="M50.527 260.079C51.5495 260.079 52.3785 258.988 52.3785 257.642C52.3785 256.296 51.5495 255.205 50.527 255.205C49.5045 255.205 48.6755 256.296 48.6755 257.642C48.6755 258.988 49.5045 260.079 50.527 260.079Z" fill="#3F3D56"/>
<path d="M50.527 257.102C51.5495 257.102 52.3785 256.011 52.3785 254.665C52.3785 253.32 51.5495 252.229 50.527 252.229C49.5045 252.229 48.6755 253.32 48.6755 254.665C48.6755 256.011 49.5045 257.102 50.527 257.102Z" fill="#3F3D56"/>
<path d="M50.527 254.122C51.5495 254.122 52.3785 253.031 52.3785 251.685C52.3785 250.34 51.5495 249.249 50.527 249.249C49.5045 249.249 48.6755 250.34 48.6755 251.685C48.6755 253.031 49.5045 254.122 50.527 254.122Z" fill="#3F3D56"/>
<path d="M50.527 251.146C51.5495 251.146 52.3785 250.055 52.3785 248.709C52.3785 247.363 51.5495 246.272 50.527 246.272C49.5045 246.272 48.6755 247.363 48.6755 248.709C48.6755 250.055 49.5045 251.146 50.527 251.146Z" fill="#3F3D56"/>
<path d="M57.4606 228.341C57.7112 228.013 57.9398 227.668 58.1451 227.31L53.2785 226.506L58.5421 226.547C59.0465 225.443 59.3216 224.247 59.3504 223.033C59.3793 221.818 59.1613 220.611 58.7098 219.484L51.6529 223.175L58.1553 218.363C57.5464 217.302 56.7263 216.379 55.7462 215.65C54.7661 214.922 53.6469 214.404 52.4586 214.129C51.2704 213.854 50.0384 213.828 48.8397 214.052C47.641 214.277 46.5012 214.747 45.4915 215.434C44.4818 216.121 43.6238 217.009 42.9711 218.043C42.3184 219.078 41.8849 220.236 41.6979 221.446C41.5108 222.656 41.574 223.892 41.8837 225.077C42.1933 226.261 42.7427 227.369 43.4976 228.331C43.0979 228.833 42.7536 229.377 42.4709 229.953L48.7919 233.253L42.0534 230.981C41.5811 232.389 41.4671 233.894 41.7217 235.358C41.9763 236.822 42.5915 238.199 43.5113 239.364C42.4816 240.678 41.841 242.257 41.6628 243.92C41.4846 245.583 41.776 247.263 42.5035 248.767C43.2311 250.272 44.3656 251.541 45.7772 252.428C47.1888 253.316 48.8205 253.786 50.4859 253.786C52.1513 253.786 53.7831 253.316 55.1947 252.428C56.6063 251.541 57.7408 250.272 58.4683 248.767C59.1959 247.263 59.4872 245.583 59.309 243.92C59.1308 242.257 58.4903 240.678 57.4606 239.364C58.6913 237.793 59.3604 235.853 59.3604 233.854C59.3604 231.856 58.6913 229.915 57.4606 228.345V228.341Z" fill="#3563DC"/>
<path opacity="0.1" d="M41.6119 233.864C41.6123 235.859 42.2813 237.797 43.5113 239.363C42.4817 240.678 41.8411 242.257 41.6629 243.92C41.4847 245.583 41.776 247.263 42.5036 248.767C43.2312 250.272 44.3656 251.54 45.7772 252.428C47.1888 253.315 48.8206 253.786 50.486 253.786C52.1514 253.786 53.7832 253.315 55.1948 252.428C56.6064 251.54 57.7408 250.272 58.4684 248.767C59.196 247.263 59.4873 245.583 59.3091 243.92C59.1309 242.257 58.4903 240.678 57.4607 239.363C58.6414 237.844 41.6119 232.85 41.6119 233.864Z" fill="black"/>
</g>
<defs>
<linearGradient id="paint0_linear_666_1731" x1="205.983" y1="264.26" x2="201.414" y2="151.484" gradientUnits="userSpaceOnUse">
<stop stop-color="#808080" stop-opacity="0.25"/>
<stop offset="0.54" stop-color="#808080" stop-opacity="0.12"/>
<stop offset="1" stop-color="#808080" stop-opacity="0.1"/>
</linearGradient>
<clipPath id="clip0_666_1731">
<rect width="350" height="270.087" fill="white" transform="translate(0 0.863281)"/>
</clipPath>
</defs>
</svg>
