<svg width="350" height="259" viewBox="0 0 350 259" fill="none" xmlns="http://www.w3.org/2000/svg">
<g clip-path="url(#clip0_666_1566)">
<path d="M163.725 204.641L169.255 202.165L162.33 179.129L154.169 182.782L163.725 204.641Z" fill="#FFB6B6"/>
<path d="M159.765 198.387L168.036 192.543L170.319 196.225L181.984 196.799C182.56 196.827 183.112 197.039 183.559 197.404C184.007 197.768 184.326 198.266 184.47 198.825C184.615 199.383 184.577 199.974 184.362 200.509C184.147 201.045 183.767 201.498 183.277 201.802L173.051 208.149L169.03 205.601L170.6 209.67L166.745 212.063L159.765 198.387Z" fill="#2F2E41"/>
<path d="M305.757 161.038C305.757 158.721 304.979 156.841 304.025 156.837H43.7315C42.7724 156.841 41.9991 158.721 41.9947 161.038V256.41C41.9948 256.625 41.9148 256.832 41.7703 256.992C41.6259 257.151 41.4273 257.251 41.2133 257.272C40.5147 257.339 39.8161 257.401 39.1174 257.459C39.1002 257.459 39.0829 257.463 39.0656 257.463C38.6854 257.498 38.3052 257.524 37.925 257.554H37.9207C37.7252 257.192 37.5319 256.827 37.3408 256.459C37.2762 256.335 37.2425 256.198 37.2424 256.058V155.587C37.2424 154.948 37.2684 154.304 37.3116 153.668C37.3732 152.796 37.4814 151.927 37.6356 151.066C38.3657 147.05 40.0161 144.332 41.8911 144.323H305.861C306.134 144.325 306.405 144.382 306.656 144.492C307.024 144.655 307.357 144.888 307.636 145.179C308.015 145.573 308.339 146.016 308.6 146.497C309.524 148.127 310.185 150.556 310.419 153.383C310.419 153.409 310.423 153.435 310.423 153.461C310.483 154.161 310.514 154.874 310.509 155.587L310.57 164.85L310.609 170.374L310.725 187.707L310.768 193.863L310.959 257.057C310.959 257.286 310.868 257.506 310.706 257.668C310.543 257.83 310.324 257.921 310.095 257.921H306.621C306.392 257.921 306.172 257.83 306.01 257.668C305.848 257.506 305.757 257.286 305.757 257.057V161.038Z" fill="#E6E6E6"/>
<path d="M235.027 100.979H206.98C206.583 100.98 206.203 101.138 205.923 101.419C205.642 101.7 205.485 102.081 205.486 102.478V146.806H236.525V102.478C236.525 102.281 236.486 102.086 236.411 101.904C236.336 101.722 236.226 101.557 236.086 101.418C235.947 101.279 235.782 101.168 235.6 101.093C235.419 101.018 235.224 100.979 235.027 100.979ZM221.098 126.166C220.221 126.162 219.381 125.812 218.76 125.191C218.14 124.57 217.79 123.73 217.786 122.852V117.74C217.787 116.861 218.136 116.02 218.757 115.399C219.378 114.778 220.22 114.43 221.098 114.43C221.975 114.43 222.817 114.778 223.438 115.399C224.059 116.02 224.409 116.861 224.41 117.74V122.852C224.406 123.73 224.055 124.57 223.435 125.191C222.815 125.812 221.975 126.162 221.098 126.166Z" fill="#2F2E41"/>
<path d="M205.389 145.388V149.665C205.39 149.887 205.478 150.099 205.635 150.256C205.791 150.413 206.004 150.501 206.225 150.501H235.786C236.007 150.5 236.219 150.412 236.375 150.255C236.532 150.099 236.62 149.887 236.621 149.665V145.388H205.389Z" fill="#3F3D56"/>
<path d="M169.354 39.2477C169.031 40.0608 168.534 40.7931 167.898 41.3931C167.262 41.9932 166.502 42.4463 165.671 42.7207C164.841 42.995 163.961 43.0839 163.092 42.981C162.224 42.8782 161.389 42.5861 160.645 42.1253L121.055 69.7194L119.962 58.7229L158.889 33.4901C159.745 32.2921 161.011 31.45 162.447 31.1234C163.882 30.7968 165.388 31.0084 166.678 31.7181C167.968 32.4278 168.953 33.5863 169.446 34.9741C169.939 36.3618 169.907 37.8824 169.354 39.2477Z" fill="#FFB6B6"/>
<path d="M80.714 56.6463C80.714 56.6463 76.4273 62.9837 83.1542 68.592C89.8811 74.2002 117.147 73.0845 121.547 73.0363C125.947 72.9881 146.135 52.0938 146.135 52.0938L146.002 40.0266L121.628 54.4964L80.714 56.6463Z" fill="#3563DC"/>
<path d="M78.2869 98.7219L78.7189 106.935C78.7189 106.935 77.4437 114.209 78.4925 115.779C79.5333 117.341 108.116 119.665 108.116 119.665C108.116 119.665 107.22 107.417 108.836 98.5576L78.2869 98.7219Z" fill="#FFB6B6"/>
<path d="M166.008 182.341L155.005 191.977L133.442 147.853C112.058 151.532 91.8847 152.711 74.4356 148.26C68.5278 146.774 64.9165 140.67 66.3696 134.628C66.4375 134.345 66.5161 134.066 66.6052 133.789C68.6935 127.415 74.16 122.904 78.4669 115.893L109.926 116.371L106.412 128.501L136.972 124.544C143.118 123.748 148.731 128.199 149.509 134.485C149.55 134.817 149.577 135.15 149.589 135.485L166.008 182.341Z" fill="#2F2E41"/>
<path d="M90.5704 43.4539C97.6253 43.4539 103.345 37.7319 103.345 30.6734C103.345 23.6149 97.6253 17.8928 90.5704 17.8928C83.5154 17.8928 77.7963 23.6149 77.7963 30.6734C77.7963 37.7319 83.5154 43.4539 90.5704 43.4539Z" fill="#FFB6B6"/>
<path d="M83.0816 48.0676L94.7943 49.4463C95.2882 49.5044 95.7517 49.7153 96.1202 50.0495C96.4887 50.3836 96.7438 50.8245 96.85 51.3106L98.7127 59.8384L110.324 73.5192C110.324 73.5192 114.494 81.3411 112.93 90.2059C111.989 95.5441 110.361 100.738 108.087 105.658C108.087 105.658 79.5318 117.342 78.4895 115.778C77.4471 114.213 77.1088 107.108 77.1088 107.108L73.435 66.2162C73.2247 64.0616 73.4936 61.8873 74.2223 59.8489C74.951 57.8106 76.1214 55.9589 77.6498 54.4265C78.5767 53.5144 79.4914 52.8758 80.236 52.8758C81.9178 52.8191 81.7021 49.0319 83.0816 48.0676Z" fill="#3563DC"/>
<path d="M108.214 221.774L113.649 224.438L126.734 204.262L118.712 200.331L108.214 221.774Z" fill="#FFB6B6"/>
<path d="M121.234 217.214L110.068 212.973L125.394 166.919C104.573 160.811 88.8674 150.973 75.1547 139.296C70.5028 135.361 67.0141 130.308 70.976 125.521C71.1612 125.297 71.3546 125.081 71.5562 124.872C76.2346 120.066 88.1079 120.991 95.0585 116.59L110.604 133.195L109.63 137.643L138.813 147.541C144.682 149.531 147.766 155.999 145.7 161.986C145.591 162.302 145.469 162.613 145.333 162.919L121.234 217.214Z" fill="#2F2E41"/>
<path d="M108.029 218.56L117.371 222.466L115.466 226.357L121.176 236.55C121.458 237.054 121.572 237.634 121.501 238.207C121.43 238.779 121.178 239.314 120.782 239.734C120.385 240.153 119.865 240.434 119.298 240.537C118.73 240.64 118.145 240.558 117.627 240.304L106.82 235.008L106.842 230.246L104.23 233.738L100.155 231.741L108.029 218.56Z" fill="#2F2E41"/>
<path d="M89.7596 148.045C89.027 147.567 88.4079 146.935 87.9461 146.192C87.4842 145.449 87.1908 144.614 87.0864 143.745C86.982 142.877 87.0693 141.996 87.342 141.165C87.6147 140.333 88.0663 139.572 88.6649 138.934L69.4703 94.6445L80.4602 95.7501L97.4727 138.922C98.4769 139.999 99.0512 141.407 99.0869 142.879C99.1226 144.352 98.6172 145.786 97.6664 146.911C96.7157 148.035 95.3856 148.772 93.9284 148.981C92.4711 149.19 90.9878 148.857 89.7596 148.045Z" fill="#FFB6B6"/>
<path d="M90.2665 57.6712C90.2665 57.6712 84.9065 52.2123 78.08 57.6988C71.2536 63.1853 66.9476 90.1452 66.1235 94.4698C65.2995 98.7944 81.7722 122.73 81.7722 122.73L93.6206 124.99L84.271 98.2211L90.2665 57.6712Z" fill="#3563DC"/>
<path d="M281.47 31.8H161.58C160.55 31.8017 159.563 32.2118 158.835 32.9405C158.106 33.6692 157.696 34.6571 157.695 35.6877V116.631C157.696 117.661 158.105 118.65 158.834 119.378C159.562 120.107 160.55 120.517 161.58 120.518H281.47C282.501 120.517 283.488 120.107 284.217 119.378C284.945 118.65 285.355 117.661 285.356 116.631V35.6877C285.354 34.6571 284.944 33.6692 284.216 32.9405C283.488 32.2118 282.5 31.8017 281.47 31.8Z" fill="#3F3D56"/>
<path d="M280.47 34.6079H162.582C162.03 34.6091 161.502 34.8291 161.112 35.2197C160.723 35.6103 160.504 36.1395 160.504 36.6913V115.628C160.505 116.179 160.724 116.707 161.113 117.097C161.503 117.487 162.031 117.706 162.582 117.707H280.47C281.02 117.706 281.548 117.487 281.938 117.097C282.327 116.707 282.547 116.179 282.548 115.628V36.6913C282.548 36.1395 282.329 35.6103 281.939 35.2197C281.55 34.8291 281.021 34.6091 280.47 34.6079Z" fill="white"/>
<path d="M257.507 151.99H187.37C187.178 151.99 186.989 151.947 186.815 151.864C186.642 151.781 186.489 151.661 186.368 151.512C186.247 151.363 186.161 151.189 186.116 151.002C186.071 150.815 186.068 150.621 186.108 150.433L187.196 145.261C187.258 144.972 187.417 144.713 187.647 144.526C187.876 144.34 188.163 144.238 188.458 144.237H256.419C256.715 144.238 257.001 144.34 257.231 144.526C257.46 144.713 257.619 144.972 257.681 145.261L258.77 150.433C258.809 150.621 258.806 150.815 258.761 151.002C258.716 151.189 258.63 151.363 258.509 151.512C258.388 151.661 258.235 151.781 258.062 151.864C257.889 151.947 257.699 151.99 257.507 151.99Z" fill="#2F2E41"/>
<path d="M190.906 145.168H189.167C189.051 145.168 188.956 145.262 188.956 145.379V146.253C188.956 146.37 189.051 146.464 189.167 146.464H190.906C191.022 146.464 191.117 146.37 191.117 146.253V145.379C191.117 145.262 191.022 145.168 190.906 145.168Z" fill="#3F3D56"/>
<path d="M195.226 145.168H193.488C193.371 145.168 193.277 145.262 193.277 145.379V146.253C193.277 146.37 193.371 146.464 193.488 146.464H195.226C195.342 146.464 195.437 146.37 195.437 146.253V145.379C195.437 145.262 195.342 145.168 195.226 145.168Z" fill="#3F3D56"/>
<path d="M199.546 145.168H197.808C197.691 145.168 197.597 145.262 197.597 145.379V146.253C197.597 146.37 197.691 146.464 197.808 146.464H199.546C199.663 146.464 199.757 146.37 199.757 146.253V145.379C199.757 145.262 199.663 145.168 199.546 145.168Z" fill="#3F3D56"/>
<path d="M203.867 145.168H202.128C202.012 145.168 201.917 145.262 201.917 145.379V146.253C201.917 146.37 202.012 146.464 202.128 146.464H203.867C203.983 146.464 204.078 146.37 204.078 146.253V145.379C204.078 145.262 203.983 145.168 203.867 145.168Z" fill="#3F3D56"/>
<path d="M208.187 145.168H206.448C206.332 145.168 206.238 145.262 206.238 145.379V146.253C206.238 146.37 206.332 146.464 206.448 146.464H208.187C208.303 146.464 208.398 146.37 208.398 146.253V145.379C208.398 145.262 208.303 145.168 208.187 145.168Z" fill="#3F3D56"/>
<path d="M212.507 145.168H210.769C210.652 145.168 210.558 145.262 210.558 145.379V146.253C210.558 146.37 210.652 146.464 210.769 146.464H212.507C212.624 146.464 212.718 146.37 212.718 146.253V145.379C212.718 145.262 212.624 145.168 212.507 145.168Z" fill="#3F3D56"/>
<path d="M216.827 145.168H215.089C214.973 145.168 214.878 145.262 214.878 145.379V146.253C214.878 146.37 214.973 146.464 215.089 146.464H216.827C216.944 146.464 217.038 146.37 217.038 146.253V145.379C217.038 145.262 216.944 145.168 216.827 145.168Z" fill="#3F3D56"/>
<path d="M221.148 145.168H219.409C219.293 145.168 219.198 145.262 219.198 145.379V146.253C219.198 146.37 219.293 146.464 219.409 146.464H221.148C221.264 146.464 221.359 146.37 221.359 146.253V145.379C221.359 145.262 221.264 145.168 221.148 145.168Z" fill="#3F3D56"/>
<path d="M225.468 145.168H223.73C223.613 145.168 223.519 145.262 223.519 145.379V146.253C223.519 146.37 223.613 146.464 223.73 146.464H225.468C225.585 146.464 225.679 146.37 225.679 146.253V145.379C225.679 145.262 225.585 145.168 225.468 145.168Z" fill="#3F3D56"/>
<path d="M229.788 145.168H228.05C227.934 145.168 227.839 145.262 227.839 145.379V146.253C227.839 146.37 227.934 146.464 228.05 146.464H229.788C229.905 146.464 229.999 146.37 229.999 146.253V145.379C229.999 145.262 229.905 145.168 229.788 145.168Z" fill="#3F3D56"/>
<path d="M234.109 145.168H232.37C232.254 145.168 232.159 145.262 232.159 145.379V146.253C232.159 146.37 232.254 146.464 232.37 146.464H234.109C234.225 146.464 234.319 146.37 234.319 146.253V145.379C234.319 145.262 234.225 145.168 234.109 145.168Z" fill="#3F3D56"/>
<path d="M238.429 145.168H236.691C236.574 145.168 236.48 145.262 236.48 145.379V146.253C236.48 146.37 236.574 146.464 236.691 146.464H238.429C238.545 146.464 238.64 146.37 238.64 146.253V145.379C238.64 145.262 238.545 145.168 238.429 145.168Z" fill="#3F3D56"/>
<path d="M242.749 145.168H241.011C240.894 145.168 240.8 145.262 240.8 145.379V146.253C240.8 146.37 240.894 146.464 241.011 146.464H242.749C242.866 146.464 242.96 146.37 242.96 146.253V145.379C242.96 145.262 242.866 145.168 242.749 145.168Z" fill="#3F3D56"/>
<path d="M247.069 145.168H245.331C245.215 145.168 245.12 145.262 245.12 145.379V146.253C245.12 146.37 245.215 146.464 245.331 146.464H247.069C247.186 146.464 247.28 146.37 247.28 146.253V145.379C247.28 145.262 247.186 145.168 247.069 145.168Z" fill="#3F3D56"/>
<path d="M251.39 145.168H249.651C249.535 145.168 249.44 145.262 249.44 145.379V146.253C249.44 146.37 249.535 146.464 249.651 146.464H251.39C251.506 146.464 251.601 146.37 251.601 146.253V145.379C251.601 145.262 251.506 145.168 251.39 145.168Z" fill="#3F3D56"/>
<path d="M255.71 145.168H253.972C253.855 145.168 253.761 145.262 253.761 145.379V146.253C253.761 146.37 253.855 146.464 253.972 146.464H255.71C255.826 146.464 255.921 146.37 255.921 146.253V145.379C255.921 145.262 255.826 145.168 255.71 145.168Z" fill="#3F3D56"/>
<path d="M190.855 147.329H189.116C189 147.329 188.905 147.424 188.905 147.54V148.415C188.905 148.531 189 148.626 189.116 148.626H190.855C190.971 148.626 191.066 148.531 191.066 148.415V147.54C191.066 147.424 190.971 147.329 190.855 147.329Z" fill="#3F3D56"/>
<path d="M195.175 147.329H193.437C193.32 147.329 193.226 147.424 193.226 147.54V148.415C193.226 148.531 193.32 148.626 193.437 148.626H195.175C195.291 148.626 195.386 148.531 195.386 148.415V147.54C195.386 147.424 195.291 147.329 195.175 147.329Z" fill="#3F3D56"/>
<path d="M199.495 147.329H197.757C197.64 147.329 197.546 147.424 197.546 147.54V148.415C197.546 148.531 197.64 148.626 197.757 148.626H199.495C199.612 148.626 199.706 148.531 199.706 148.415V147.54C199.706 147.424 199.612 147.329 199.495 147.329Z" fill="#3F3D56"/>
<path d="M203.815 147.329H202.077C201.961 147.329 201.866 147.424 201.866 147.54V148.415C201.866 148.531 201.961 148.626 202.077 148.626H203.815C203.932 148.626 204.026 148.531 204.026 148.415V147.54C204.026 147.424 203.932 147.329 203.815 147.329Z" fill="#3F3D56"/>
<path d="M208.136 147.329H206.397C206.281 147.329 206.187 147.424 206.187 147.54V148.415C206.187 148.531 206.281 148.626 206.397 148.626H208.136C208.252 148.626 208.347 148.531 208.347 148.415V147.54C208.347 147.424 208.252 147.329 208.136 147.329Z" fill="#3F3D56"/>
<path d="M212.456 147.329H210.718C210.601 147.329 210.507 147.424 210.507 147.54V148.415C210.507 148.531 210.601 148.626 210.718 148.626H212.456C212.573 148.626 212.667 148.531 212.667 148.415V147.54C212.667 147.424 212.573 147.329 212.456 147.329Z" fill="#3F3D56"/>
<path d="M216.776 147.329H215.038C214.922 147.329 214.827 147.424 214.827 147.54V148.415C214.827 148.531 214.922 148.626 215.038 148.626H216.776C216.893 148.626 216.987 148.531 216.987 148.415V147.54C216.987 147.424 216.893 147.329 216.776 147.329Z" fill="#3F3D56"/>
<path d="M221.097 147.329H219.358C219.242 147.329 219.147 147.424 219.147 147.54V148.415C219.147 148.531 219.242 148.626 219.358 148.626H221.097C221.213 148.626 221.308 148.531 221.308 148.415V147.54C221.308 147.424 221.213 147.329 221.097 147.329Z" fill="#3F3D56"/>
<path d="M225.417 147.329H223.679C223.562 147.329 223.468 147.424 223.468 147.54V148.415C223.468 148.531 223.562 148.626 223.679 148.626H225.417C225.533 148.626 225.628 148.531 225.628 148.415V147.54C225.628 147.424 225.533 147.329 225.417 147.329Z" fill="#3F3D56"/>
<path d="M229.737 147.329H227.999C227.882 147.329 227.788 147.424 227.788 147.54V148.415C227.788 148.531 227.882 148.626 227.999 148.626H229.737C229.854 148.626 229.948 148.531 229.948 148.415V147.54C229.948 147.424 229.854 147.329 229.737 147.329Z" fill="#3F3D56"/>
<path d="M234.057 147.329H232.319C232.203 147.329 232.108 147.424 232.108 147.54V148.415C232.108 148.531 232.203 148.626 232.319 148.626H234.057C234.174 148.626 234.268 148.531 234.268 148.415V147.54C234.268 147.424 234.174 147.329 234.057 147.329Z" fill="#3F3D56"/>
<path d="M238.378 147.329H236.639C236.523 147.329 236.429 147.424 236.429 147.54V148.415C236.429 148.531 236.523 148.626 236.639 148.626H238.378C238.494 148.626 238.589 148.531 238.589 148.415V147.54C238.589 147.424 238.494 147.329 238.378 147.329Z" fill="#3F3D56"/>
<path d="M242.698 147.329H240.96C240.843 147.329 240.749 147.424 240.749 147.54V148.415C240.749 148.531 240.843 148.626 240.96 148.626H242.698C242.815 148.626 242.909 148.531 242.909 148.415V147.54C242.909 147.424 242.815 147.329 242.698 147.329Z" fill="#3F3D56"/>
<path d="M247.018 147.329H245.28C245.164 147.329 245.069 147.424 245.069 147.54V148.415C245.069 148.531 245.164 148.626 245.28 148.626H247.018C247.135 148.626 247.229 148.531 247.229 148.415V147.54C247.229 147.424 247.135 147.329 247.018 147.329Z" fill="#3F3D56"/>
<path d="M251.339 147.329H249.6C249.484 147.329 249.389 147.424 249.389 147.54V148.415C249.389 148.531 249.484 148.626 249.6 148.626H251.339C251.455 148.626 251.55 148.531 251.55 148.415V147.54C251.55 147.424 251.455 147.329 251.339 147.329Z" fill="#3F3D56"/>
<path d="M255.659 147.329H253.921C253.804 147.329 253.71 147.424 253.71 147.54V148.415C253.71 148.531 253.804 148.626 253.921 148.626H255.659C255.775 148.626 255.87 148.531 255.87 148.415V147.54C255.87 147.424 255.775 147.329 255.659 147.329Z" fill="#3F3D56"/>
<path d="M226.713 149.923H209.854C209.737 149.923 209.643 150.017 209.643 150.134V151.008C209.643 151.125 209.737 151.219 209.854 151.219H226.713C226.83 151.219 226.924 151.125 226.924 151.008V150.134C226.924 150.017 226.83 149.923 226.713 149.923Z" fill="#3F3D56"/>
<path d="M272.351 250.643L269.02 245.288L268.354 248.348C268.238 248.884 268.121 249.429 268.013 249.969C267.067 249.161 266.06 248.413 265.075 247.695C262.051 245.5 259.028 243.301 256.007 241.099L256.953 246.589C257.536 249.969 258.146 253.418 259.588 256.509C259.748 256.859 259.921 257.205 260.107 257.542H274.165C274.278 257.229 274.357 256.904 274.399 256.574C274.402 256.552 274.403 256.531 274.403 256.509C274.623 254.412 273.465 252.437 272.351 250.643Z" fill="#F0F0F0"/>
<path d="M82.258 250.643L78.927 245.288L78.2617 248.348C78.1451 248.884 78.0284 249.429 77.9204 249.969C76.9743 249.161 75.9676 248.413 74.9827 247.695C71.9585 245.5 68.9357 243.301 65.9143 241.099L66.8604 246.589C67.4437 249.969 68.0529 253.418 69.4958 256.509C69.6557 256.859 69.8285 257.205 70.0144 257.542H84.0726C84.1857 257.229 84.2639 256.904 84.3059 256.574C84.3094 256.552 84.3108 256.531 84.3101 256.509C84.5306 254.412 83.3726 252.437 82.258 250.643Z" fill="#F0F0F0"/>
<path d="M349.486 258.128L230.354 258.261C230.217 258.26 230.087 258.206 229.991 258.109C229.895 258.013 229.841 257.882 229.841 257.746C229.841 257.61 229.895 257.479 229.991 257.382C230.087 257.286 230.217 257.232 230.354 257.231L349.486 257.098C349.622 257.099 349.752 257.153 349.848 257.25C349.944 257.346 349.998 257.477 349.998 257.613C349.998 257.749 349.944 257.88 349.848 257.976C349.752 258.073 349.622 258.127 349.486 258.128Z" fill="#CACACA"/>
<path d="M119.646 258.128L0.514387 258.261C0.378215 258.26 0.247758 258.206 0.15161 258.109C0.0554608 258.013 0.00146484 257.882 0.00146484 257.746C0.00146484 257.61 0.0554608 257.479 0.15161 257.382C0.247758 257.286 0.378215 257.232 0.514387 257.231L119.646 257.098C119.782 257.099 119.913 257.153 120.009 257.25C120.105 257.346 120.159 257.477 120.159 257.613C120.159 257.749 120.105 257.88 120.009 257.976C119.913 258.073 119.782 258.127 119.646 258.128Z" fill="#CACACA"/>
<path d="M77.0618 19.2806C75.001 19.8944 73.0785 18.1697 71.6442 16.5358L72.154 17.141C68.7798 19.5183 66.7623 23.3912 65.4532 27.3117C64.1442 31.2278 63.414 35.3299 61.9365 39.1898C60.459 43.0454 58.0742 46.7757 54.4235 48.6992C49.5329 51.2754 43.5407 50.104 38.3391 48.2453C38.27 48.2194 38.2052 48.1978 38.136 48.1719C40.2428 44.2346 41.533 39.9122 41.9292 35.4638C39.7894 39.6436 36.7034 43.2655 32.9171 46.0409C29.5183 44.4951 26.2502 42.6766 23.1446 40.6032C21.1357 39.259 19.0188 37.5213 18.7855 35.1137C18.5478 32.7234 20.3321 30.5406 22.4361 29.3908C24.5401 28.241 26.9594 27.852 29.2578 27.1604C31.5519 26.4731 33.8935 25.345 35.0989 23.2702C37.8768 18.4982 33.2023 11.7681 36.1833 7.11718C37.6522 4.8306 40.5035 3.91424 43.1476 3.27884C47.1833 2.31305 51.2796 1.62132 55.4085 1.20838C59.0333 0.845298 62.779 0.711303 66.2265 1.87837C69.6741 3.04543 72.802 5.75561 73.5408 9.32596C75.554 10.385 77.6839 11.5563 78.764 13.5663C79.8441 15.5719 79.2436 18.6322 77.0618 19.2806Z" fill="#2F2E41"/>
<path d="M73.9856 18.4764C72.0122 20.9497 70.9381 23.6244 70.9381 25.2261C66.8387 32.7222 72.7009 39.161 80.1933 43.2623C83.1817 44.9068 86.6323 45.5086 90.0006 44.9729L90.314 43.6342L90.7387 44.8401C90.7387 44.8401 95.6168 60.9599 97.2259 61.9055C96.6153 59.0367 95.9159 45.7539 95.576 42.9542C95.1054 39.1436 96.7458 33.4706 97.9291 30.0207C98.6628 27.8945 99.0394 25.6613 99.0435 23.412V23.3136L100.196 27.0165L104.39 25.2261C103.61 20.7476 104.39 15.6635 95.0344 16.1045C89.9741 12.6226 85.518 12.0922 81.8576 13.0797C81.3852 12.349 78.6612 13.7176 77.8741 13.3328" fill="#2F2E41"/>
<path d="M282.548 36.6913V115.628C282.547 116.179 282.327 116.707 281.938 117.097C281.548 117.487 281.02 117.706 280.47 117.707H238.9C234.301 113.44 230.528 108.361 227.771 102.725C227.589 102.362 227.416 101.995 227.252 101.623C224.74 96.1683 223.218 90.3092 222.759 84.3205C222.729 83.9531 222.703 83.5857 222.686 83.2139C222.63 82.263 222.604 81.2991 222.604 80.3309C222.595 73.8914 223.811 67.5091 226.185 61.5238C226.328 61.1521 226.479 60.7847 226.634 60.4173C231.413 49.1845 240.047 40.0306 250.979 34.6079H280.47C281.021 34.6091 281.55 34.8291 281.939 35.2197C282.329 35.6103 282.548 36.1395 282.548 36.6913Z" fill="#3563DC"/>
<path d="M274.544 45.4837H164.237C164.122 45.4812 164.013 45.4338 163.932 45.3518C163.852 45.2698 163.807 45.1596 163.807 45.0448C163.807 44.9301 163.852 44.8199 163.932 44.7379C164.013 44.6558 164.122 44.6085 164.237 44.606H274.544C274.658 44.6085 274.767 44.6558 274.848 44.7379C274.928 44.8199 274.973 44.9301 274.973 45.0448C274.973 45.1596 274.928 45.2698 274.848 45.3518C274.767 45.4338 274.658 45.4812 274.544 45.4837Z" fill="#CACACA"/>
<path d="M171.745 42.3652C173.165 42.3652 174.316 41.188 174.316 39.7358C174.316 38.2837 173.165 37.1064 171.745 37.1064C170.326 37.1064 169.175 38.2837 169.175 39.7358C169.175 41.188 170.326 42.3652 171.745 42.3652Z" fill="#3F3D56"/>
<path d="M180.626 42.3652C182.046 42.3652 183.197 41.188 183.197 39.7358C183.197 38.2837 182.046 37.1064 180.626 37.1064C179.206 37.1064 178.055 38.2837 178.055 39.7358C178.055 41.188 179.206 42.3652 180.626 42.3652Z" fill="#3F3D56"/>
<path d="M189.507 42.3652C190.927 42.3652 192.078 41.188 192.078 39.7358C192.078 38.2837 190.927 37.1064 189.507 37.1064C188.087 37.1064 186.936 38.2837 186.936 39.7358C186.936 41.188 188.087 42.3652 189.507 42.3652Z" fill="#3F3D56"/>
<path d="M269.197 37.7581H262.888C262.763 37.7605 262.644 37.812 262.556 37.9013C262.469 37.9907 262.42 38.1108 262.42 38.236C262.42 38.3611 262.469 38.4813 262.556 38.5706C262.644 38.66 262.763 38.7114 262.888 38.7139H269.197C269.322 38.7114 269.441 38.66 269.528 38.5706C269.616 38.4813 269.665 38.3611 269.665 38.236C269.665 38.1108 269.616 37.9907 269.528 37.9013C269.441 37.812 269.322 37.7605 269.197 37.7581Z" fill="#3F3D56"/>
<path d="M269.197 39.552H262.888C262.763 39.5545 262.644 39.6059 262.556 39.6953C262.469 39.7846 262.42 39.9048 262.42 40.0299C262.42 40.155 262.469 40.2752 262.556 40.3645C262.644 40.4539 262.763 40.5053 262.888 40.5078H269.197C269.322 40.5053 269.441 40.4539 269.528 40.3645C269.616 40.2752 269.665 40.155 269.665 40.0299C269.665 39.9048 269.616 39.7846 269.528 39.6953C269.441 39.6059 269.322 39.5545 269.197 39.552Z" fill="#3F3D56"/>
<path d="M269.197 41.3435H262.888C262.763 41.346 262.644 41.3974 262.556 41.4868C262.469 41.5761 262.42 41.6963 262.42 41.8214C262.42 41.9465 262.469 42.0667 262.556 42.1561C262.644 42.2454 262.763 42.2968 262.888 42.2993H269.197C269.322 42.2968 269.441 42.2454 269.528 42.1561C269.616 42.0667 269.665 41.9465 269.665 41.8214C269.665 41.6963 269.616 41.5761 269.528 41.4868C269.441 41.3974 269.322 41.346 269.197 41.3435Z" fill="#3F3D56"/>
<path d="M197.19 71.1235H183.407C182.372 71.1235 181.532 71.9632 181.532 72.999V72.999C181.532 74.0349 182.372 74.8745 183.407 74.8745H197.19C198.226 74.8745 199.065 74.0349 199.065 72.999C199.065 71.9632 198.226 71.1235 197.19 71.1235Z" fill="#3563DC"/>
<path d="M206.094 78.6255H174.502C173.467 78.6255 172.628 79.4652 172.628 80.501C172.628 81.5368 173.467 82.3765 174.502 82.3765H206.094C207.13 82.3765 207.969 81.5368 207.969 80.501C207.969 79.4652 207.13 78.6255 206.094 78.6255Z" fill="#E6E6E6"/>
<path d="M206.094 86.1277H174.502C173.467 86.1277 172.628 86.9674 172.628 88.0032V88.0032C172.628 89.039 173.467 89.8787 174.502 89.8787H206.094C207.13 89.8787 207.969 89.039 207.969 88.0032C207.969 86.9674 207.13 86.1277 206.094 86.1277Z" fill="#E6E6E6"/>
<path d="M175.512 113.182C175.515 114.727 175.24 116.26 174.7 117.707H162.582C162.031 117.706 161.503 117.487 161.113 117.097C160.724 116.708 160.505 116.179 160.504 115.628V100.379C161.181 100.269 161.866 100.214 162.552 100.214C164.254 100.214 165.939 100.55 167.512 101.201C169.084 101.853 170.513 102.808 171.717 104.012C172.92 105.216 173.875 106.646 174.526 108.219C175.177 109.793 175.513 111.479 175.512 113.182Z" fill="#3563DC"/>
<path opacity="0.2" d="M282.656 61.5241V60.4175H264.117V47.5928H263.016V60.4175H241.768V47.5928H240.667V60.4175H226.634C226.479 60.7849 226.328 61.1523 226.185 61.5241H240.667V83.2141H222.686C222.703 83.5859 222.729 83.9533 222.759 84.3207H240.667V101.623H227.252C227.416 101.995 227.589 102.363 227.771 102.726H240.667V117.271H241.768V102.726H263.016V117.271H264.117V102.726H282.656V101.623H264.117V84.3207H282.656V83.2141H264.117V61.5241H282.656ZM263.016 101.623H241.768V84.3207H263.016V101.623ZM263.016 83.2141H241.768V61.5241H263.016V83.2141Z" fill="black"/>
<path d="M267.729 109.518C267.493 109.529 267.259 109.467 267.059 109.34C266.859 109.213 266.703 109.028 266.611 108.81C266.52 108.591 266.498 108.35 266.548 108.118C266.599 107.887 266.719 107.677 266.893 107.516L266.972 107.201C266.961 107.176 266.951 107.151 266.94 107.126C266.702 106.563 266.303 106.083 265.793 105.746C265.283 105.409 264.685 105.231 264.074 105.233C263.463 105.235 262.866 105.418 262.359 105.759C261.851 106.099 261.455 106.582 261.221 107.147C260.286 109.401 259.095 111.659 258.802 114.042C258.673 115.095 258.727 116.163 258.963 117.198C256.766 112.403 255.625 107.192 255.618 101.917C255.617 100.594 255.691 99.2712 255.838 97.9559C255.96 96.8776 256.128 95.8069 256.344 94.7439C257.522 88.9764 260.05 83.5706 263.721 78.9704C265.498 78.0005 266.935 76.5089 267.838 74.6967C268.165 74.0452 268.397 73.3498 268.525 72.6321C268.324 72.6584 268.121 72.6748 267.92 72.688C267.858 72.6913 267.792 72.6946 267.73 72.6979L267.706 72.6989C267.486 72.7088 267.267 72.6548 267.077 72.5433C266.887 72.4319 266.733 72.2678 266.633 72.0708C266.534 71.8738 266.494 71.6523 266.518 71.4329C266.541 71.2136 266.628 71.0057 266.767 70.8344C266.853 70.7279 266.94 70.6214 267.026 70.5149C267.158 70.3505 267.293 70.1894 267.424 70.0251C267.439 70.0095 267.453 69.993 267.467 69.9758C267.618 69.7884 267.769 69.6043 267.92 69.4169C267.644 68.9884 267.273 68.6295 266.836 68.3682C265.321 67.4805 263.231 68.0953 262.137 69.4662C261.04 70.8371 260.833 72.7603 261.214 74.4731C261.589 75.9305 262.209 77.3135 263.047 78.5628C262.965 78.668 262.88 78.7699 262.798 78.8751C261.296 80.807 259.987 82.8815 258.89 85.0688C259.157 82.6184 258.838 80.1395 257.961 77.8362C257.071 75.6897 255.404 73.8818 253.936 72.0261C252.173 69.7971 248.557 70.7699 248.247 73.5955C248.244 73.6228 248.241 73.6502 248.238 73.6775C248.456 73.8006 248.669 73.9312 248.878 74.0694C249.141 74.2448 249.344 74.4953 249.461 74.7883C249.579 75.0812 249.605 75.4029 249.537 75.7111C249.469 76.0193 249.309 76.2996 249.079 76.5155C248.849 76.7313 248.559 76.8726 248.247 76.9207L248.215 76.9256C248.293 77.7118 248.43 78.491 248.626 79.2564C249.193 81.3932 250.195 83.3898 251.57 85.1209C252.944 86.852 254.661 88.2803 256.614 89.3163C256.742 89.382 256.867 89.4477 256.995 89.5102C255.892 92.6357 255.201 95.8913 254.938 99.1952C254.789 101.144 254.798 103.103 254.964 105.05L254.954 104.981C254.534 102.815 253.379 100.861 251.685 99.4484C249.169 97.3805 245.614 96.619 242.9 94.9569C242.611 94.7716 242.276 94.6727 241.933 94.6719C241.59 94.671 241.254 94.7683 240.965 94.9522C240.676 95.1361 240.445 95.3989 240.3 95.7097C240.155 96.0205 240.102 96.3664 240.147 96.7064C240.15 96.7306 240.154 96.7547 240.158 96.7789C240.563 96.9438 240.956 97.1338 241.338 97.3477C241.556 97.4708 241.769 97.6014 241.978 97.7395C242.24 97.9149 242.443 98.1655 242.561 98.4584C242.679 98.7514 242.705 99.073 242.637 99.3812C242.569 99.6894 242.409 99.9698 242.179 100.186C241.948 100.401 241.658 100.543 241.346 100.591L241.314 100.596C241.292 100.599 241.272 100.602 241.249 100.606C241.94 102.257 242.911 103.777 244.117 105.1C245.608 106.7 247.41 107.979 249.413 108.858C251.415 109.737 253.576 110.198 255.762 110.212H255.766C256.359 112.792 257.219 115.304 258.332 117.707H267.5C267.532 117.605 267.562 117.5 267.592 117.398C266.743 117.452 265.891 117.401 265.055 117.247C265.735 116.412 266.415 115.57 267.095 114.735C267.111 114.72 267.125 114.703 267.138 114.686C267.483 114.259 267.831 113.835 268.177 113.407L268.177 113.407C268.195 112.097 268.045 110.79 267.729 109.518ZM257.231 88.856L257.236 88.8495L257.231 88.8626V88.856ZM255.201 107.171L255.122 106.993C255.125 106.865 255.125 106.737 255.122 106.605C255.122 106.569 255.115 106.533 255.115 106.497C255.145 106.724 255.171 106.951 255.204 107.177L255.201 107.171Z" fill="#2F2E41"/>
</g>
<defs>
<clipPath id="clip0_666_1566">
<rect width="350" height="257.309" fill="white" transform="translate(0 0.951172)"/>
</clipPath>
</defs>
</svg>
